STARTFONT 2.1
COMMENT
COMMENT Converted from OpenType font "ipaexm.ttf" by "otf2bdf 3.0".
COMMENT
FONT -FreeType-IPAexMincho-Medium-R-Normal--28-280-72-72-P-245-ISO10646-1
SIZE 28 72 72
FONTBOUNDINGBOX 35 34 -7 -8
STARTPROPERTIES 19
FOUNDRY "FreeType"
FAMILY_NAME "IPAexMincho"
WEIGHT_NAME "Medium"
SLANT "R"
SETWIDTH_NAME "Normal"
ADD_STYLE_NAME ""
PIXEL_SIZE 28
POINT_SIZE 280
RESOLUTION_X 72
RESOLUTION_Y 72
SPACING "P"
AVERAGE_WIDTH 245
CHARSET_REGISTRY "ISO10646"
CHARSET_ENCODING "1"
FONT_ASCENT 24
FONT_DESCENT 3
COPYRIGHT "Copyright(c) Information-technology Promotion Agency, Japan (IPA), 2003-2019. You must accept "https://opensource.org/licenses/IPA/" to use this product."
_OTF_FONTFILE "ipaexm.ttf"
_OTF_PSNAME "IPAexMincho"
ENDPROPERTIES
CHARS 11691
STARTCHAR 0020
ENCODING 32
SWIDTH 285 0
DWIDTH 8 0
BBX 0 0 0 0
BITMAP
ENDCHAR
STARTCHAR 0021
ENCODING 33
SWIDTH 285 0
DWIDTH 8 0
BBX 4 20 2 0
BITMAP
60
60
60
60
60
60
60
60
60
60
60
60
20
20
00
00
00
60
F0
60
ENDCHAR
STARTCHAR 0022
ENCODING 34
SWIDTH 357 0
DWIDTH 10 0
BBX 6 7 2 14
BITMAP
CC
CC
CC
CC
CC
CC
CC
ENDCHAR
STARTCHAR 0023
ENCODING 35
SWIDTH 607 0
DWIDTH 17 0
BBX 14 21 2 -1
BITMAP
0430
0430
0420
0C20
0C60
0C60
FFFC
0840
0840
1840
18C0
18C0
FFFC
1080
3080
3080
3180
2180
2180
6100
2000
ENDCHAR
STARTCHAR 0024
ENCODING 36
SWIDTH 607 0
DWIDTH 17 0
BBX 13 23 2 -1
BITMAP
0200
0200
1FC0
3230
6230
6230
4230
6200
6200
3A00
1E00
07C0
02E0
0230
0238
0218
E218
E218
C230
6230
3FC0
0200
0200
ENDCHAR
STARTCHAR 0025
ENCODING 37
SWIDTH 785 0
DWIDTH 22 0
BBX 18 20 2 1
BITMAP
380100
440300
860200
820400
820C00
821800
821000
862000
C46000
784000
008700
018880
011840
021040
041040
0C1040
081040
101840
3008C0
200700
ENDCHAR
STARTCHAR 0026
ENCODING 38
SWIDTH 714 0
DWIDTH 20 0
BBX 18 20 2 0
BITMAP
078000
186000
106000
302000
302000
306000
18C000
0F0000
0E1FC0
1E0300
330200
618200
41C200
C0E400
C07400
C03800
601C00
603E00
386700
0F83C0
ENDCHAR
STARTCHAR 0027
ENCODING 39
SWIDTH 214 0
DWIDTH 6 0
BBX 2 7 2 14
BITMAP
C0
C0
C0
C0
C0
C0
C0
ENDCHAR
STARTCHAR 0028
ENCODING 40
SWIDTH 357 0
DWIDTH 10 0
BBX 5 27 3 -5
BITMAP
08
10
30
20
60
60
40
C0
C0
C0
C0
80
80
80
80
80
C0
C0
C0
C0
40
60
20
30
10
18
08
ENDCHAR
STARTCHAR 0029
ENCODING 41
SWIDTH 357 0
DWIDTH 10 0
BBX 6 27 2 -5
BITMAP
80
40
60
20
30
10
18
18
18
08
08
0C
0C
0C
0C
0C
08
18
18
18
10
30
30
20
60
40
80
ENDCHAR
STARTCHAR 002A
ENCODING 42
SWIDTH 250 0
DWIDTH 7 0
BBX 7 7 0 13
BITMAP
10
D6
7C
10
7C
D6
10
ENDCHAR
STARTCHAR 002B
ENCODING 43
SWIDTH 678 0
DWIDTH 19 0
BBX 15 15 2 2
BITMAP
0100
0100
0100
0100
0100
0100
0100
FFFE
0100
0100
0100
0100
0100
0100
0100
ENDCHAR
STARTCHAR 002C
ENCODING 44
SWIDTH 250 0
DWIDTH 7 0
BBX 3 6 2 -3
BITMAP
E0
E0
E0
60
40
C0
ENDCHAR
STARTCHAR 002D
ENCODING 45
SWIDTH 285 0
DWIDTH 8 0
BBX 6 2 1 7
BITMAP
FC
FC
ENDCHAR
STARTCHAR 002E
ENCODING 46
SWIDTH 250 0
DWIDTH 7 0
BBX 3 3 2 0
BITMAP
C0
E0
C0
ENDCHAR
STARTCHAR 002F
ENCODING 47
SWIDTH 500 0
DWIDTH 14 0
BBX 10 25 2 -4
BITMAP
0040
00C0
0080
0180
0180
0100
0300
0200
0200
0600
0400
0C00
0800
0800
1800
1000
1000
3000
2000
6000
4000
4000
C000
8000
8000
ENDCHAR
STARTCHAR 0030
ENCODING 48
SWIDTH 607 0
DWIDTH 17 0
BBX 13 20 2 0
BITMAP
0F80
18E0
3030
6030
6018
C018
C018
C018
C018
C018
C018
C018
C018
C018
C018
6018
6030
3020
18E0
0F80
ENDCHAR
STARTCHAR 0031
ENCODING 49
SWIDTH 607 0
DWIDTH 17 0
BBX 10 21 4 0
BITMAP
0400
3C00
FC00
0C00
0C00
0C00
0C00
0C00
0C00
0C00
0C00
0C00
0C00
0C00
0C00
0C00
0C00
0C00
0C00
1C00
FFC0
ENDCHAR
STARTCHAR 0032
ENCODING 50
SWIDTH 607 0
DWIDTH 17 0
BBX 13 20 2 0
BITMAP
0F80
3060
6030
6038
7018
7018
0038
0030
0070
00E0
0180
0700
0C00
1800
3008
2008
4008
4018
FFF8
FFF8
ENDCHAR
STARTCHAR 0033
ENCODING 51
SWIDTH 607 0
DWIDTH 17 0
BBX 13 20 2 0
BITMAP
0F80
30E0
4030
6030
6030
0030
0030
0060
01C0
0F80
00E0
0030
0038
0018
6018
E018
E030
4030
60E0
1F80
ENDCHAR
STARTCHAR 0034
ENCODING 52
SWIDTH 607 0
DWIDTH 17 0
BBX 15 20 1 0
BITMAP
0030
0070
0070
00B0
0130
0230
0630
0430
0830
1030
3030
6030
4030
FFFE
FFFE
0030
0030
0030
0070
01FC
ENDCHAR
STARTCHAR 0035
ENCODING 53
SWIDTH 607 0
DWIDTH 17 0
BBX 12 20 3 0
BITMAP
7FE0
7FE0
4000
4000
4000
4000
4000
CF00
F0C0
C060
C070
0030
0030
0030
C030
E030
C030
8060
60C0
1F00
ENDCHAR
STARTCHAR 0036
ENCODING 54
SWIDTH 607 0
DWIDTH 17 0
BBX 14 20 2 0
BITMAP
07E0
0C10
1838
3030
6000
6000
6000
67C0
4860
D030
E018
E018
E018
600C
601C
6018
2018
3030
1870
07C0
ENDCHAR
STARTCHAR 0037
ENCODING 55
SWIDTH 607 0
DWIDTH 17 0
BBX 13 20 3 0
BITMAP
FFF8
FFF8
C010
8030
8020
8040
0040
0080
0080
0180
0100
0300
0300
0200
0600
0600
0600
0E00
0E00
0C00
ENDCHAR
STARTCHAR 0038
ENCODING 56
SWIDTH 607 0
DWIDTH 17 0
BBX 13 22 2 -1
BITMAP
0F80
3860
2030
6010
6018
6018
6010
6030
3060
1CC0
0780
1FC0
30F0
6030
C018
C018
C018
C018
C018
6030
3060
0F80
ENDCHAR
STARTCHAR 0039
ENCODING 57
SWIDTH 607 0
DWIDTH 17 0
BBX 13 20 2 0
BITMAP
1F80
30E0
6060
C030
C030
C018
C018
C018
C038
6038
30D8
1F98
0018
0018
0030
0030
6020
7060
60C0
1F00
ENDCHAR
STARTCHAR 003A
ENCODING 58
SWIDTH 285 0
DWIDTH 8 0
BBX 3 14 3 0
BITMAP
C0
E0
C0
00
00
00
00
00
00
00
00
C0
E0
C0
ENDCHAR
STARTCHAR 003B
ENCODING 59
SWIDTH 285 0
DWIDTH 8 0
BBX 4 17 2 -3
BITMAP
60
70
60
00
00
00
00
00
00
00
60
70
70
20
20
C0
80
ENDCHAR
STARTCHAR 003C
ENCODING 60
SWIDTH 678 0
DWIDTH 19 0
BBX 15 15 2 1
BITMAP
0006
003C
00E0
0380
0E00
3800
E000
C000
3800
0E00
0380
00E0
0038
000E
0002
ENDCHAR
STARTCHAR 003D
ENCODING 61
SWIDTH 678 0
DWIDTH 19 0
BBX 15 6 2 6
BITMAP
FFFE
0000
0000
0000
0000
FFFE
ENDCHAR
STARTCHAR 003E
ENCODING 62
SWIDTH 678 0
DWIDTH 19 0
BBX 15 15 2 1
BITMAP
C000
7000
1E00
0380
00E0
0038
000E
0006
0038
00E0
0380
0E00
3800
E000
8000
ENDCHAR
STARTCHAR 003F
ENCODING 63
SWIDTH 500 0
DWIDTH 14 0
BBX 12 20 1 0
BITMAP
1F80
30C0
4060
C060
E070
6070
0060
0060
00C0
0180
0200
0600
0400
0400
0400
0000
0000
0E00
0E00
0E00
ENDCHAR
STARTCHAR 0040
ENCODING 64
SWIDTH 892 0
DWIDTH 25 0
BBX 21 20 2 0
BITMAP
00FE00
070180
0C0040
183820
30E710
60C310
618208
430608
C30608
C30608
C70C08
C60C18
C60C10
461C20
632C40
63CF80
300000
180040
0E0180
01FE00
ENDCHAR
STARTCHAR 0041
ENCODING 65
SWIDTH 714 0
DWIDTH 20 0
BBX 21 20 0 0
BITMAP
002000
006000
007000
00F000
009000
009800
011800
010C00
030C00
020400
020600
040600
07FF00
0C0300
080300
080180
180180
1000C0
3000C0
FE07F8
ENDCHAR
STARTCHAR 0042
ENCODING 66
SWIDTH 714 0
DWIDTH 20 0
BBX 17 20 1 0
BITMAP
FFF800
1C0E00
180700
180300
180300
180300
180300
180600
180C00
1FF000
181E00
180300
180180
180180
180180
180180
180180
180300
1C0E00
FFF800
ENDCHAR
STARTCHAR 0043
ENCODING 67
SWIDTH 714 0
DWIDTH 20 0
BBX 17 20 2 0
BITMAP
03FC80
0E0F80
180380
300180
600180
600080
C00000
C00000
C00000
C00000
C00000
C00000
C00000
C00080
600080
600080
300100
180200
0E0C00
03F000
ENDCHAR
STARTCHAR 0044
ENCODING 68
SWIDTH 785 0
DWIDTH 22 0
BBX 19 20 1 0
BITMAP
FFF800
1C0E00
180380
180180
1800C0
1800E0
180060
180060
180060
180060
180060
180060
180060
180060
1800E0
1800C0
180180
180380
1C0E00
FFF800
ENDCHAR
STARTCHAR 0045
ENCODING 69
SWIDTH 714 0
DWIDTH 20 0
BBX 17 20 1 0
BITMAP
FFFF00
1C0300
180100
180100
180100
180000
181000
181000
183000
1FF000
183000
181000
181000
180000
180080
180080
180180
180180
1C0380
FFFF80
ENDCHAR
STARTCHAR 0046
ENCODING 70
SWIDTH 642 0
DWIDTH 18 0
BBX 16 20 1 0
BITMAP
FFFF
1C03
1801
1801
1801
1800
1810
1810
1830
1FF0
1830
1810
1810
1800
1800
1800
1800
1800
1C00
FF00
ENDCHAR
STARTCHAR 0047
ENCODING 71
SWIDTH 785 0
DWIDTH 22 0
BBX 19 20 2 0
BITMAP
03FC80
0E0F80
180380
300180
600180
600080
C00000
C00000
C00000
C00000
C00000
C00FE0
C00180
C00180
E00180
600180
300180
180380
0E0F80
03F880
ENDCHAR
STARTCHAR 0048
ENCODING 72
SWIDTH 821 0
DWIDTH 23 0
BBX 21 20 1 0
BITMAP
FF07F8
1C01C0
1800C0
1800C0
1800C0
1800C0
1800C0
1800C0
1800C0
1FFFC0
1800C0
1800C0
1800C0
1800C0
1800C0
1800C0
1800C0
1800C0
1C01C0
FF07F8
ENDCHAR
STARTCHAR 0049
ENCODING 73
SWIDTH 392 0
DWIDTH 11 0
BBX 8 20 1 0
BITMAP
FF
1C
18
18
18
18
18
18
18
18
18
18
18
18
18
18
18
18
1C
FF
ENDCHAR
STARTCHAR 004A
ENCODING 74
SWIDTH 464 0
DWIDTH 13 0
BBX 12 20 0 0
BITMAP
0FF0
01C0
0180
0180
0180
0180
0180
0180
0180
0180
0180
0180
0180
0180
0180
0180
E180
E180
4300
3E00
ENDCHAR
STARTCHAR 004B
ENCODING 75
SWIDTH 714 0
DWIDTH 20 0
BBX 19 20 1 0
BITMAP
FF0FC0
1C0300
180600
180C00
181800
183000
186000
18C000
198000
1B8000
1CC000
186000
187000
183800
181800
180C00
180600
180700
1C0380
7F0FE0
ENDCHAR
STARTCHAR 004C
ENCODING 76
SWIDTH 607 0
DWIDTH 17 0
BBX 16 20 1 0
BITMAP
FF00
1C00
1800
1800
1800
1800
1800
1800
1800
1800
1800
1800
1800
1800
1801
1801
1801
1803
1C07
FFFF
ENDCHAR
STARTCHAR 004D
ENCODING 77
SWIDTH 964 0
DWIDTH 27 0
BBX 24 20 1 0
BITMAP
FC001F
16003C
16002C
16006C
13004C
13004C
1300CC
11808C
11808C
10C10C
10C10C
10C30C
10620C
10620C
10660C
10340C
10340C
10180C
18181C
FE187F
ENDCHAR
STARTCHAR 004E
ENCODING 78
SWIDTH 821 0
DWIDTH 23 0
BBX 21 20 1 0
BITMAP
FC03F8
1C0060
160040
170040
130040
118040
11C040
10C040
106040
103040
103840
101840
100C40
100E40
100640
100340
1003C0
1001C0
1800C0
FE0040
ENDCHAR
STARTCHAR 004F
ENCODING 79
SWIDTH 785 0
DWIDTH 22 0
BBX 19 20 2 0
BITMAP
03F000
0E0E00
180300
300180
600180
6000C0
C000C0
C000E0
C000E0
C00060
C00060
C000E0
C000E0
C000C0
6000C0
600180
300180
180300
0E0E00
03F000
ENDCHAR
STARTCHAR 0050
ENCODING 80
SWIDTH 642 0
DWIDTH 18 0
BBX 17 20 1 0
BITMAP
FFF800
1C0E00
180700
180300
180300
180380
180300
180300
180700
181E00
1FF800
180000
180000
180000
180000
180000
180000
180000
1C0000
FF0000
ENDCHAR
STARTCHAR 0051
ENCODING 81
SWIDTH 785 0
DWIDTH 22 0
BBX 20 23 2 -3
BITMAP
03F000
1E0C00
380700
700380
600180
E000C0
C000C0
C000E0
C000E0
C00060
C00060
C00060
C000E0
C000C0
41E0C0
6230C0
221980
120F00
0A0E00
05FE00
020610
000310
0001E0
ENDCHAR
STARTCHAR 0052
ENCODING 82
SWIDTH 678 0
DWIDTH 19 0
BBX 19 20 1 0
BITMAP
FFF800
1C0E00
180700
180300
180300
180300
180300
180300
180E00
18FC00
19E000
183000
181800
180C00
180C00
180600
180600
180300
1C0380
FF03E0
ENDCHAR
STARTCHAR 0053
ENCODING 83
SWIDTH 607 0
DWIDTH 17 0
BBX 13 20 2 0
BITMAP
1FC8
3078
6038
C018
C008
C008
E000
7000
3C00
0F80
03E0
00F0
0038
8018
8018
8018
C018
E018
F070
9FC0
ENDCHAR
STARTCHAR 0054
ENCODING 84
SWIDTH 607 0
DWIDTH 17 0
BBX 17 20 0 0
BITMAP
7FFF80
E0C180
C0C080
80C080
80C080
00C000
00C000
00C000
00C000
00C000
00C000
00C000
00C000
00C000
00C000
00C000
00C000
00C000
01C000
07F800
ENDCHAR
STARTCHAR 0055
ENCODING 85
SWIDTH 785 0
DWIDTH 22 0
BBX 21 20 1 0
BITMAP
FE03F8
3800C0
380040
100040
100040
100040
100040
100040
100040
100040
100040
100040
100040
180040
1800C0
1800C0
180080
0C0180
070700
01FC00
ENDCHAR
STARTCHAR 0056
ENCODING 86
SWIDTH 714 0
DWIDTH 20 0
BBX 20 20 0 0
BITMAP
FE03F0
3800C0
180080
180080
0C0180
0C0100
0C0300
060200
060200
030600
030400
030400
018800
018800
009800
00D000
00D000
006000
006000
006000
ENDCHAR
STARTCHAR 0057
ENCODING 87
SWIDTH 964 0
DWIDTH 27 0
BBX 27 20 0 0
BITMAP
FE3F8FE0
380E0180
18060100
18060100
18060300
0C070200
0C0B0200
0C0B0200
0C090600
06198400
06118400
06108C00
0330C800
0320C800
0320C800
01E07000
01C07000
01C07000
00C02000
00802000
ENDCHAR
STARTCHAR 0058
ENCODING 88
SWIDTH 714 0
DWIDTH 20 0
BBX 20 20 0 0
BITMAP
FF07F0
1C01C0
0C0100
060300
060600
030400
018800
01D800
00F000
006000
007000
00B800
019800
030C00
020600
040600
0C0300
180180
3801C0
FE07F0
ENDCHAR
STARTCHAR 0059
ENCODING 89
SWIDTH 678 0
DWIDTH 19 0
BBX 19 20 0 0
BITMAP
FF0FE0
380180
180100
0C0300
0C0200
060400
060C00
030800
019800
019000
00E000
00E000
006000
006000
006000
006000
006000
006000
00E000
03FC00
ENDCHAR
STARTCHAR 005A
ENCODING 90
SWIDTH 642 0
DWIDTH 18 0
BBX 15 20 1 0
BITMAP
7FFE
700E
400C
4018
8030
0070
0060
00C0
01C0
0380
0300
0600
0E00
0C00
1802
3002
7002
6006
C01E
FFFE
ENDCHAR
STARTCHAR 005B
ENCODING 91
SWIDTH 357 0
DWIDTH 10 0
BBX 5 27 3 -6
BITMAP
F8
C0
C0
C0
C0
C0
C0
C0
C0
C0
C0
C0
C0
C0
C0
C0
C0
C0
C0
C0
C0
C0
C0
C0
C0
C0
F8
ENDCHAR
STARTCHAR 005C
ENCODING 92
SWIDTH 500 0
DWIDTH 14 0
BBX 10 25 2 -4
BITMAP
8000
C000
4000
6000
2000
2000
3000
1000
1000
1800
0800
0C00
0400
0400
0600
0200
0200
0300
0100
0180
0080
0080
00C0
0040
0040
ENDCHAR
STARTCHAR 005D
ENCODING 93
SWIDTH 357 0
DWIDTH 10 0
BBX 5 27 1 -6
BITMAP
F8
08
08
08
08
08
08
08
08
08
08
08
08
08
08
08
08
08
08
08
08
08
08
08
08
08
F8
ENDCHAR
STARTCHAR 005E
ENCODING 94
SWIDTH 500 0
DWIDTH 14 0
BBX 12 8 1 9
BITMAP
0600
0F00
0900
1080
30C0
6060
C030
8010
ENDCHAR
STARTCHAR 005F
ENCODING 95
SWIDTH 500 0
DWIDTH 14 0
BBX 14 1 0 -3
BITMAP
FFFC
ENDCHAR
STARTCHAR 0060
ENCODING 96
SWIDTH 500 0
DWIDTH 14 0
BBX 4 3 4 17
BITMAP
C0
60
30
ENDCHAR
STARTCHAR 0061
ENCODING 97
SWIDTH 535 0
DWIDTH 15 0
BBX 12 14 2 0
BITMAP
1F00
6180
E0C0
60C0
00C0
01C0
3EC0
60C0
C0C0
C0C0
C0C0
C0C0
E160
3E70
ENDCHAR
STARTCHAR 0062
ENCODING 98
SWIDTH 607 0
DWIDTH 17 0
BBX 15 21 0 0
BITMAP
1800
F800
1800
1800
1800
1800
1800
19F0
1E18
1C0C
1806
1806
1806
1806
1806
1806
1806
1806
1C0C
1618
11F0
ENDCHAR
STARTCHAR 0063
ENCODING 99
SWIDTH 535 0
DWIDTH 15 0
BBX 11 14 2 0
BITMAP
0F80
3060
6060
C060
C000
C000
C000
C000
C000
C000
C000
6020
3040
1F80
ENDCHAR
STARTCHAR 0064
ENCODING 100
SWIDTH 607 0
DWIDTH 17 0
BBX 15 21 2 0
BITMAP
0030
00F0
0030
0030
0030
0030
0030
1F30
30F0
6070
C030
C030
C030
C030
C030
C030
C030
C030
6070
30B0
1F3E
ENDCHAR
STARTCHAR 0065
ENCODING 101
SWIDTH 571 0
DWIDTH 16 0
BBX 12 14 2 0
BITMAP
1F80
30C0
6060
C020
C030
C030
FFF0
C000
C000
C000
C000
6030
3060
0F80
ENDCHAR
STARTCHAR 0066
ENCODING 102
SWIDTH 321 0
DWIDTH 9 0
BBX 10 20 1 0
BITMAP
0F80
18C0
10C0
3000
3000
3000
FF00
3000
3000
3000
3000
3000
3000
3000
3000
3000
3000
3000
3000
FE00
ENDCHAR
STARTCHAR 0067
ENCODING 103
SWIDTH 535 0
DWIDTH 15 0
BBX 14 21 1 -5
BITMAP
001C
003C
0FC0
30E0
6030
6030
6030
6030
6030
3060
1F80
2000
3000
1F80
1FF0
7038
4018
C018
6018
7030
1FC0
ENDCHAR
STARTCHAR 0068
ENCODING 104
SWIDTH 607 0
DWIDTH 17 0
BBX 16 21 1 0
BITMAP
3000
F000
3000
3000
3000
3000
3000
33E0
3430
3818
3018
3018
3018
3018
3018
3018
3018
3018
3018
301C
FE7F
ENDCHAR
STARTCHAR 0069
ENCODING 105
SWIDTH 285 0
DWIDTH 8 0
BBX 7 20 1 0
BITMAP
30
38
38
00
00
00
F0
30
30
30
30
30
30
30
30
30
30
30
38
FE
ENDCHAR
STARTCHAR 006A
ENCODING 106
SWIDTH 321 0
DWIDTH 9 0
BBX 8 26 -2 -6
BITMAP
06
07
07
00
00
00
1E
06
06
06
06
06
06
06
06
06
06
06
06
06
06
06
66
E6
44
38
ENDCHAR
STARTCHAR 006B
ENCODING 107
SWIDTH 571 0
DWIDTH 16 0
BBX 15 21 1 0
BITMAP
3000
F000
3000
3000
3000
3000
3000
30FC
3030
3060
3080
3100
3200
3F00
3B80
3180
30C0
3060
3030
3038
FE7E
ENDCHAR
STARTCHAR 006C
ENCODING 108
SWIDTH 285 0
DWIDTH 8 0
BBX 7 20 1 0
BITMAP
F0
30
30
30
30
30
30
30
30
30
30
30
30
30
30
30
30
30
30
FE
ENDCHAR
STARTCHAR 006D
ENCODING 109
SWIDTH 892 0
DWIDTH 25 0
BBX 24 14 1 0
BITMAP
F3E1E0
343630
181418
181818
101818
101818
101818
101818
101818
101818
101818
101818
381818
FEFE7F
ENDCHAR
STARTCHAR 006E
ENCODING 110
SWIDTH 642 0
DWIDTH 18 0
BBX 16 14 1 0
BITMAP
F1E0
3638
1818
180C
100C
100C
100C
100C
100C
100C
100C
100C
380C
FE7F
ENDCHAR
STARTCHAR 006F
ENCODING 111
SWIDTH 571 0
DWIDTH 16 0
BBX 13 14 2 0
BITMAP
0F80
30E0
6060
C030
C038
C018
C018
C018
C018
C038
C030
6070
30E0
0F80
ENDCHAR
STARTCHAR 0070
ENCODING 112
SWIDTH 607 0
DWIDTH 17 0
BBX 15 19 1 -5
BITMAP
F3E0
3438
3818
380C
300C
3006
3006
3006
3006
300C
300C
3818
3438
33E0
3000
3000
3000
3000
FE00
ENDCHAR
STARTCHAR 0071
ENCODING 113
SWIDTH 607 0
DWIDTH 17 0
BBX 14 19 2 -5
BITMAP
1F10
30D0
6070
C030
C030
C030
C030
C030
C030
C030
C030
6070
30B0
1F30
0030
0030
0030
0030
00FC
ENDCHAR
STARTCHAR 0072
ENCODING 114
SWIDTH 392 0
DWIDTH 11 0
BBX 10 14 1 0
BITMAP
F3C0
36C0
1400
1800
1800
1000
1000
1000
1000
1000
1000
1000
3800
FE00
ENDCHAR
STARTCHAR 0073
ENCODING 115
SWIDTH 464 0
DWIDTH 13 0
BBX 10 14 2 0
BITMAP
3F80
6380
C080
C080
C000
E000
3C00
0F00
0180
80C0
80C0
C0C0
E180
9F00
ENDCHAR
STARTCHAR 0074
ENCODING 116
SWIDTH 321 0
DWIDTH 9 0
BBX 8 18 1 0
BITMAP
10
10
30
30
FF
30
30
30
30
30
30
30
30
30
30
30
31
1E
ENDCHAR
STARTCHAR 0075
ENCODING 117
SWIDTH 607 0
DWIDTH 17 0
BBX 16 14 1 0
BITMAP
F078
3018
3018
3018
3018
3018
3018
3018
3018
3018
3018
3038
1878
0F9F
ENDCHAR
STARTCHAR 0076
ENCODING 118
SWIDTH 535 0
DWIDTH 15 0
BBX 15 14 0 0
BITMAP
FC3E
3008
3018
1810
1810
0830
0C20
0C20
0440
0640
0280
0380
0380
0100
ENDCHAR
STARTCHAR 0077
ENCODING 119
SWIDTH 785 0
DWIDTH 22 0
BBX 22 14 0 0
BITMAP
FCFC7C
303010
303030
103820
183820
182820
084C40
0C4C40
0C4440
048680
068680
070300
030300
030300
ENDCHAR
STARTCHAR 0078
ENCODING 120
SWIDTH 535 0
DWIDTH 15 0
BBX 15 14 0 0
BITMAP
FC7C
3810
1830
0C60
0640
0680
0300
0380
04C0
0CC0
0860
1030
2038
F87E
ENDCHAR
STARTCHAR 0079
ENCODING 121
SWIDTH 535 0
DWIDTH 15 0
BBX 15 19 0 -5
BITMAP
FC3E
3008
3008
1810
1810
0C20
0C20
0C20
0640
0640
0380
0380
0180
0100
0100
0200
0200
3200
3C00
ENDCHAR
STARTCHAR 007A
ENCODING 122
SWIDTH 464 0
DWIDTH 13 0
BBX 11 14 1 0
BITMAP
7FE0
40C0
C1C0
8180
0300
0600
0600
0C00
1800
3820
3020
6020
C060
FFE0
ENDCHAR
STARTCHAR 007B
ENCODING 123
SWIDTH 321 0
DWIDTH 9 0
BBX 6 27 2 -6
BITMAP
3C
20
60
60
60
60
60
60
60
60
60
60
C0
C0
60
60
60
60
60
60
60
60
60
60
60
30
0C
ENDCHAR
STARTCHAR 007C
ENCODING 124
SWIDTH 178 0
DWIDTH 5 0
BBX 1 26 2 -5
BITMAP
80
80
80
80
80
80
80
80
80
80
80
80
80
80
80
80
80
80
80
80
80
80
80
80
80
80
ENDCHAR
STARTCHAR 007D
ENCODING 125
SWIDTH 321 0
DWIDTH 9 0
BBX 7 27 1 -6
BITMAP
70
18
18
18
18
18
18
18
18
18
08
0C
06
06
0C
08
18
18
18
18
18
18
18
18
18
30
C0
ENDCHAR
STARTCHAR 007E
ENCODING 126
SWIDTH 500 0
DWIDTH 14 0
BBX 7 3 4 17
BITMAP
E0
B2
0C
ENDCHAR
STARTCHAR 00A0
ENCODING 160
SWIDTH 285 0
DWIDTH 8 0
BBX 0 0 0 0
BITMAP
ENDCHAR
STARTCHAR 00A1
ENCODING 161
SWIDTH 285 0
DWIDTH 8 0
BBX 4 20 2 0
BITMAP
60
F0
60
00
00
00
40
60
60
60
60
60
60
60
60
60
60
60
60
60
ENDCHAR
STARTCHAR 00A2
ENCODING 162
SWIDTH 571 0
DWIDTH 16 0
BBX 13 20 2 1
BITMAP
0080
0080
0F80
3960
7130
6170
C270
C200
C200
C600
C400
C400
EC08
6810
3820
1860
1780
1000
1000
2000
ENDCHAR
STARTCHAR 00A3
ENCODING 163
SWIDTH 750 0
DWIDTH 21 0
BBX 17 20 2 1
BITMAP
01F000
030C00
060E00
0E0E00
0C0E00
0C0000
0C0000
060000
060000
3FF800
030000
030000
030000
010000
3D8000
478000
81C080
81F100
433F00
3C0E00
ENDCHAR
STARTCHAR 00A4
ENCODING 164
SWIDTH 607 0
DWIDTH 17 0
BBX 13 12 2 3
BITMAP
CF98
7870
2030
6010
4010
4018
4018
4018
6010
2030
7870
CF98
ENDCHAR
STARTCHAR 00A5
ENCODING 165
SWIDTH 607 0
DWIDTH 17 0
BBX 17 20 0 0
BITMAP
FE1F80
380700
180600
180400
0C0800
061800
061000
032000
01C000
3FFE00
008000
008000
3FFE00
008000
008000
008000
008000
008000
01C000
07F000
ENDCHAR
STARTCHAR 00A6
ENCODING 166
SWIDTH 178 0
DWIDTH 5 0
BBX 1 26 2 -5
BITMAP
80
80
80
80
80
80
80
80
80
80
80
00
00
00
00
80
80
80
80
80
80
80
80
80
80
80
ENDCHAR
STARTCHAR 00A7
ENCODING 167
SWIDTH 678 0
DWIDTH 19 0
BBX 11 26 4 -2
BITMAP
1F00
7080
4040
C0E0
C0E0
C0E0
E000
7000
3C00
2F00
43C0
80E0
8060
C020
E020
7820
1E40
0780
01C0
00E0
C060
E020
C020
C060
60C0
1F00
ENDCHAR
STARTCHAR 00A8
ENCODING 168
SWIDTH 500 0
DWIDTH 14 0
BBX 8 3 3 17
BITMAP
66
E7
67
ENDCHAR
STARTCHAR 00A9
ENCODING 169
SWIDTH 1000 0
DWIDTH 28 0
BBX 22 22 3 -1
BITMAP
00FC00
070380
0C00C0
107820
218690
430188
46018C
860084
860004
8C0004
8C0004
8C0004
8E0004
860084
860084
C30108
418208
207C10
100020
0800C0
070380
00FE00
ENDCHAR
STARTCHAR 00AA
ENCODING 170
SWIDTH 428 0
DWIDTH 12 0
BBX 9 11 2 9
BITMAP
3C00
4600
C200
3E00
6200
C200
C600
C780
7800
0000
FF00
ENDCHAR
STARTCHAR 00AB
ENCODING 171
SWIDTH 500 0
DWIDTH 14 0
BBX 10 11 2 3
BITMAP
0840
1080
3180
6100
6300
C600
6300
6100
3180
1080
0840
ENDCHAR
STARTCHAR 00AC
ENCODING 172
SWIDTH 678 0
DWIDTH 19 0
BBX 14 6 2 5
BITMAP
FFFC
000C
000C
000C
000C
000C
ENDCHAR
STARTCHAR 00AD
ENCODING 173
SWIDTH 678 0
DWIDTH 19 0
BBX 15 1 2 9
BITMAP
FFFE
ENDCHAR
STARTCHAR 00AE
ENCODING 174
SWIDTH 1000 0
DWIDTH 28 0
BBX 22 23 3 -2
BITMAP
00FC00
070380
0C00C0
100020
27FC10
618718
418308
81810C
818104
818304
819E04
81F804
818C04
818604
818604
C1830C
418388
67E1D8
200010
100020
0C00C0
070380
00FC00
ENDCHAR
STARTCHAR 00AF
ENCODING 175
SWIDTH 500 0
DWIDTH 14 0
BBX 8 1 3 18
BITMAP
FF
ENDCHAR
STARTCHAR 00B0
ENCODING 176
SWIDTH 285 0
DWIDTH 8 0
BBX 6 5 1 18
BITMAP
78
44
84
C4
78
ENDCHAR
STARTCHAR 00B1
ENCODING 177
SWIDTH 678 0
DWIDTH 19 0
BBX 15 16 2 2
BITMAP
0100
0100
0100
0100
0100
0100
FFFE
0100
0100
0100
0100
0100
0100
0100
0000
FFFE
ENDCHAR
STARTCHAR 00B2
ENCODING 178
SWIDTH 357 0
DWIDTH 10 0
BBX 8 10 1 10
BITMAP
3C
46
62
62
06
0C
30
61
43
FE
ENDCHAR
STARTCHAR 00B3
ENCODING 179
SWIDTH 357 0
DWIDTH 10 0
BBX 7 10 2 10
BITMAP
78
84
C6
04
38
0C
C6
C6
86
78
ENDCHAR
STARTCHAR 00B4
ENCODING 180
SWIDTH 500 0
DWIDTH 14 0
BBX 4 3 6 17
BITMAP
30
60
C0
ENDCHAR
STARTCHAR 00B6
ENCODING 182
SWIDTH 1000 0
DWIDTH 28 0
BBX 11 25 7 -2
BITMAP
1FE0
7C20
7C20
FC20
FC20
FC20
FC20
7C20
3C20
0C20
0420
0420
0420
0420
0420
0420
0420
0420
0420
0420
0420
0420
0420
0420
0420
ENDCHAR
STARTCHAR 00B7
ENCODING 183
SWIDTH 250 0
DWIDTH 7 0
BBX 3 3 2 7
BITMAP
C0
E0
C0
ENDCHAR
STARTCHAR 00B8
ENCODING 184
SWIDTH 500 0
DWIDTH 14 0
BBX 6 7 4 -7
BITMAP
20
60
38
0C
0C
F8
80
ENDCHAR
STARTCHAR 00B9
ENCODING 185
SWIDTH 357 0
DWIDTH 10 0
BBX 6 10 2 10
BITMAP
F0
30
30
30
30
30
30
30
30
7C
ENDCHAR
STARTCHAR 00BA
ENCODING 186
SWIDTH 428 0
DWIDTH 12 0
BBX 8 11 2 9
BITMAP
3C
C2
83
81
81
83
C2
3C
00
00
FF
ENDCHAR
STARTCHAR 00BB
ENCODING 187
SWIDTH 500 0
DWIDTH 14 0
BBX 10 11 2 3
BITMAP
8200
4200
6100
3180
3080
18C0
3080
3180
6100
4200
8200
ENDCHAR
STARTCHAR 00BC
ENCODING 188
SWIDTH 750 0
DWIDTH 21 0
BBX 18 20 2 1
BITMAP
F00100
300300
300200
300400
300C00
301800
301000
302000
306000
7C4100
008300
018500
010D00
020900
041100
0C2100
083FC0
100100
300100
2007C0
ENDCHAR
STARTCHAR 00BD
ENCODING 189
SWIDTH 750 0
DWIDTH 21 0
BBX 18 20 2 1
BITMAP
F00100
300300
300200
300400
300C00
301800
301000
302000
306000
7C4F00
009880
0190C0
0118C0
0200C0
040180
0C0700
080C00
100840
301040
201FC0
ENDCHAR
STARTCHAR 00BE
ENCODING 190
SWIDTH 750 0
DWIDTH 21 0
BBX 18 20 2 1
BITMAP
780100
840300
C60200
040400
380C00
0C1800
C61000
C63000
866000
784100
008300
018500
010D00
020900
061100
0C2100
083FC0
100100
300100
2007C0
ENDCHAR
STARTCHAR 00BF
ENCODING 191
SWIDTH 500 0
DWIDTH 14 0
BBX 11 20 2 0
BITMAP
0600
0E00
0600
0000
0000
0600
0600
0400
0400
0800
3000
6000
E000
C0E0
C0E0
C060
C060
E040
7080
1F00
ENDCHAR
STARTCHAR 00C0
ENCODING 192
SWIDTH 714 0
DWIDTH 20 0
BBX 20 25 0 1
BITMAP
030000
018000
00C000
000000
000000
006000
006000
007000
00F000
00B000
009800
011800
010C00
030C00
020C00
020600
060600
07FF00
0C0300
080300
080180
180180
1000C0
3000C0
FE07F0
ENDCHAR
STARTCHAR 00C1
ENCODING 193
SWIDTH 714 0
DWIDTH 20 0
BBX 20 25 0 1
BITMAP
000C00
001800
006000
000000
000000
006000
006000
007000
00F000
00B000
009800
011800
010C00
030C00
020C00
020600
060600
07FF00
0C0300
080300
080180
180180
1000C0
3000C0
FE07F0
ENDCHAR
STARTCHAR 00C2
ENCODING 194
SWIDTH 714 0
DWIDTH 20 0
BBX 20 25 0 0
BITMAP
006000
00F000
018C00
000000
000000
002000
006000
007000
00F000
00B000
009800
011800
010C00
030C00
020C00
020600
060600
07FF00
0C0300
080300
080180
180180
1000C0
3000C0
FE07F0
ENDCHAR
STARTCHAR 00C3
ENCODING 195
SWIDTH 714 0
DWIDTH 20 0
BBX 20 24 0 0
BITMAP
01E200
023C00
000000
000000
002000
006000
007000
00F000
00B000
009800
011800
010C00
030C00
020C00
020600
060600
07FF00
0C0300
080300
080180
180180
1000C0
3000C0
FE07F0
ENDCHAR
STARTCHAR 00C4
ENCODING 196
SWIDTH 714 0
DWIDTH 20 0
BBX 20 25 0 0
BITMAP
030C00
030C00
030C00
000000
000000
002000
006000
007000
00F000
00B000
009800
011800
010C00
030C00
020C00
020600
060600
07FF00
0C0300
080300
080180
180180
1000C0
3000C0
FE07F0
ENDCHAR
STARTCHAR 00C5
ENCODING 197
SWIDTH 714 0
DWIDTH 20 0
BBX 20 26 0 0
BITMAP
006000
009000
009000
009000
007000
000000
006000
006000
007000
00F000
00B000
009800
011800
010C00
030C00
020C00
020600
060600
07FF00
0C0300
080300
080180
180180
1000C0
3000C0
FE07F0
ENDCHAR
STARTCHAR 00C6
ENCODING 198
SWIDTH 1000 0
DWIDTH 28 0
BBX 26 20 0 0
BITMAP
00FFFF80
00160180
00160080
00260080
00260080
00460040
00460800
00860800
00861800
01FFF800
01060800
02060800
02060800
04060000
04060040
0C060040
080600C0
180600C0
380E01C0
FE3FFFC0
ENDCHAR
STARTCHAR 00C7
ENCODING 199
SWIDTH 714 0
DWIDTH 20 0
BBX 18 27 2 -7
BITMAP
03F880
0E0F80
180380
300180
600180
600080
C00000
C00000
C00000
C00000
C00000
C00000
C00000
C000C0
E00080
600180
700100
380300
1E0E00
07F800
008000
018000
01E000
003000
003000
003000
03E000
ENDCHAR
STARTCHAR 00C8
ENCODING 200
SWIDTH 714 0
DWIDTH 20 0
BBX 17 25 1 1
BITMAP
060000
038000
00C000
004000
000000
FFFF00
180300
180100
180100
180100
180000
181000
181000
183000
1FF000
183000
181000
181000
180000
180080
180080
180180
180180
1C0380
FFFF80
ENDCHAR
STARTCHAR 00C9
ENCODING 201
SWIDTH 714 0
DWIDTH 20 0
BBX 17 25 1 1
BITMAP
001800
007000
00C000
008000
000000
FFFF00
180300
180100
180100
180100
180000
181000
181000
183000
1FF000
183000
181000
181000
180000
180080
180080
180180
180180
1C0380
FFFF80
ENDCHAR
STARTCHAR 00CA
ENCODING 202
SWIDTH 714 0
DWIDTH 20 0
BBX 17 25 1 0
BITMAP
00E000
01B000
021800
000000
000000
FFFF00
180300
180100
180100
180100
180000
181000
181000
183000
1FF000
183000
181000
181000
180000
180080
180080
180180
180180
1C0380
FFFF80
ENDCHAR
STARTCHAR 00CB
ENCODING 203
SWIDTH 714 0
DWIDTH 20 0
BBX 17 25 1 0
BITMAP
061800
071C00
061800
000000
000000
FFFF00
180300
180100
180100
180100
180000
181000
181000
183000
1FF000
183000
181000
181000
180000
180080
180080
180180
180180
1C0380
FFFF80
ENDCHAR
STARTCHAR 00CC
ENCODING 204
SWIDTH 392 0
DWIDTH 11 0
BBX 8 26 1 0
BITMAP
40
E0
70
18
08
00
FF
1C
18
18
18
18
18
18
18
18
18
18
18
18
18
18
18
18
1C
FF
ENDCHAR
STARTCHAR 00CD
ENCODING 205
SWIDTH 392 0
DWIDTH 11 0
BBX 8 25 1 1
BITMAP
03
06
0C
00
00
FF
1C
18
18
18
18
18
18
18
18
18
18
18
18
18
18
18
18
1C
FF
ENDCHAR
STARTCHAR 00CE
ENCODING 206
SWIDTH 392 0
DWIDTH 11 0
BBX 8 25 1 0
BITMAP
1C
36
43
00
00
FF
1C
18
18
18
18
18
18
18
18
18
18
18
18
18
18
18
18
1C
FF
ENDCHAR
STARTCHAR 00CF
ENCODING 207
SWIDTH 392 0
DWIDTH 11 0
BBX 9 25 1 0
BITMAP
C300
E380
C300
0000
0000
FF00
1C00
1800
1800
1800
1800
1800
1800
1800
1800
1800
1800
1800
1800
1800
1800
1800
1800
1C00
FF00
ENDCHAR
STARTCHAR 00D0
ENCODING 208
SWIDTH 785 0
DWIDTH 22 0
BBX 19 20 1 0
BITMAP
FFF800
1C0600
180380
180180
1800C0
1800E0
180060
180060
180060
7FC060
180060
180060
180060
180060
1800E0
1800C0
180180
180380
1C0E00
FFF800
ENDCHAR
STARTCHAR 00D1
ENCODING 209
SWIDTH 821 0
DWIDTH 23 0
BBX 21 25 1 0
BITMAP
01C000
026200
021C00
000000
000000
FC03F8
1C0060
160040
170040
130040
118040
11C040
10C040
106040
103040
103840
101840
100C40
100E40
100640
100340
1003C0
1001C0
1800C0
FE0040
ENDCHAR
STARTCHAR 00D2
ENCODING 210
SWIDTH 785 0
DWIDTH 22 0
BBX 19 25 2 1
BITMAP
070000
038000
00C000
004000
000000
03F000
0C0E00
180300
300180
600180
6000C0
C000C0
C000E0
C000E0
C00060
C000E0
C000E0
C000E0
E000C0
6000C0
600180
300180
180300
0E0E00
03F800
ENDCHAR
STARTCHAR 00D3
ENCODING 211
SWIDTH 785 0
DWIDTH 22 0
BBX 19 25 2 1
BITMAP
001800
003000
006000
000000
000000
03F000
0C0E00
180300
300180
600180
6000C0
C000C0
C000E0
C000E0
C00060
C000E0
C000E0
C000E0
E000C0
6000C0
600180
300180
180300
0E0E00
03F800
ENDCHAR
STARTCHAR 00D4
ENCODING 212
SWIDTH 785 0
DWIDTH 22 0
BBX 19 25 2 0
BITMAP
00E000
01B000
021800
000000
000000
03F000
0C0E00
180300
300180
600180
6000C0
C000C0
C000E0
C000E0
C00060
C000E0
C000E0
C000E0
E000C0
6000C0
600180
300180
180300
0E0E00
03F800
ENDCHAR
STARTCHAR 00D5
ENCODING 213
SWIDTH 785 0
DWIDTH 22 0
BBX 19 25 2 0
BITMAP
038000
044400
043800
000000
000000
03F000
0C0E00
180300
300180
600180
6000C0
C000C0
C000E0
C000E0
C00060
C000E0
C000E0
C000E0
E000C0
6000C0
600180
300180
180300
0E0E00
03F800
ENDCHAR
STARTCHAR 00D6
ENCODING 214
SWIDTH 785 0
DWIDTH 22 0
BBX 19 25 2 0
BITMAP
061800
071C00
061800
000000
000000
03F000
0C0E00
180300
300180
600180
6000C0
C000C0
C000E0
C000E0
C00060
C000E0
C000E0
C000E0
E000C0
6000C0
600180
300180
180300
0E0E00
03F800
ENDCHAR
STARTCHAR 00D7
ENCODING 215
SWIDTH 678 0
DWIDTH 19 0
BBX 11 11 4 3
BITMAP
8020
C060
60C0
3180
1B00
0E00
0E00
1B00
3180
60C0
C060
ENDCHAR
STARTCHAR 00D8
ENCODING 216
SWIDTH 785 0
DWIDTH 22 0
BBX 19 20 2 1
BITMAP
03F8C0
0E0F80
180300
300380
6005C0
600CC0
E018C0
C030E0
C020E0
C04060
C0C0E0
C180E0
C300E0
C200C0
E400C0
680180
780380
300300
7C0E00
43F800
ENDCHAR
STARTCHAR 00D9
ENCODING 217
SWIDTH 785 0
DWIDTH 22 0
BBX 21 26 1 0
BITMAP
010000
038000
01C000
006000
000000
000000
FE03F8
3800C0
380040
100040
100040
100040
100040
100040
100040
100040
100040
100040
100040
180040
1800C0
1800C0
180080
0C0180
070700
01FC00
ENDCHAR
STARTCHAR 00DA
ENCODING 218
SWIDTH 785 0
DWIDTH 22 0
BBX 21 25 1 1
BITMAP
000C00
001800
003000
000000
000000
FE03F8
3800C0
380040
100040
100040
100040
100040
100040
100040
100040
100040
100040
100040
180040
1800C0
1800C0
180080
0C0180
070700
01FC00
ENDCHAR
STARTCHAR 00DB
ENCODING 219
SWIDTH 785 0
DWIDTH 22 0
BBX 21 25 1 0
BITMAP
007000
00D800
018400
000000
000000
FE03F8
3800C0
380040
100040
100040
100040
100040
100040
100040
100040
100040
100040
100040
180040
1800C0
1800C0
180080
0C0180
070700
01FC00
ENDCHAR
STARTCHAR 00DC
ENCODING 220
SWIDTH 785 0
DWIDTH 22 0
BBX 21 25 1 0
BITMAP
018E00
038E00
018E00
000000
000000
FE03F8
3800C0
380040
100040
100040
100040
100040
100040
100040
100040
100040
100040
100040
180040
1800C0
1800C0
180080
0C0180
070700
01FC00
ENDCHAR
STARTCHAR 00DD
ENCODING 221
SWIDTH 678 0
DWIDTH 19 0
BBX 19 25 0 1
BITMAP
000C00
001800
003000
000000
000000
FF0FE0
380180
180100
0C0300
0C0200
060400
070C00
030800
019800
019000
00E000
00E000
006000
006000
006000
006000
006000
006000
00E000
03FC00
ENDCHAR
STARTCHAR 00DE
ENCODING 222
SWIDTH 678 0
DWIDTH 19 0
BBX 17 20 1 0
BITMAP
FF0000
1C0000
180000
180000
1FF800
181E00
180700
180380
180180
180180
180180
180180
180380
180700
181E00
1FF000
180000
180000
1C0000
FF0000
ENDCHAR
STARTCHAR 00DF
ENCODING 223
SWIDTH 535 0
DWIDTH 15 0
BBX 13 20 1 0
BITMAP
0FC0
18E0
3060
3030
3030
3030
3060
3040
3180
3380
3060
3030
3018
3018
3018
3018
3018
3018
3330
FFE0
ENDCHAR
STARTCHAR 00E0
ENCODING 224
SWIDTH 535 0
DWIDTH 15 0
BBX 12 21 2 0
BITMAP
1000
3800
1C00
0600
0000
0000
0000
1F00
6180
E0C0
60C0
0040
01C0
3E40
6040
C040
C040
C0C0
C0C0
E360
3E70
ENDCHAR
STARTCHAR 00E1
ENCODING 225
SWIDTH 535 0
DWIDTH 15 0
BBX 12 21 2 0
BITMAP
0100
0380
0700
0C00
0000
0000
0000
1F00
6180
E0C0
60C0
0040
01C0
3E40
6040
C040
C040
C0C0
C0C0
E360
3E70
ENDCHAR
STARTCHAR 00E2
ENCODING 226
SWIDTH 535 0
DWIDTH 15 0
BBX 12 20 2 0
BITMAP
0C00
1E00
3180
0000
0000
0000
1F00
6180
E0C0
60C0
0040
01C0
3E40
6040
C040
C040
C0C0
C0C0
E360
3E70
ENDCHAR
STARTCHAR 00E3
ENCODING 227
SWIDTH 535 0
DWIDTH 15 0
BBX 12 20 2 0
BITMAP
3800
2480
0380
0000
0000
0000
1F00
6180
E0C0
60C0
0040
01C0
3E40
6040
C040
C040
C0C0
C0C0
E360
3E70
ENDCHAR
STARTCHAR 00E4
ENCODING 228
SWIDTH 535 0
DWIDTH 15 0
BBX 12 20 2 0
BITMAP
3180
3180
0000
0000
0000
0000
1F00
6180
E0C0
60C0
0040
01C0
3E40
6040
C040
C040
C0C0
C0C0
E360
3E70
ENDCHAR
STARTCHAR 00E5
ENCODING 229
SWIDTH 535 0
DWIDTH 15 0
BBX 12 20 2 0
BITMAP
0E00
1200
1200
0E00
0000
0000
1F00
6180
E0C0
60C0
0040
01C0
3E40
6040
C040
C040
80C0
C0C0
E360
3E70
ENDCHAR
STARTCHAR 00E6
ENCODING 230
SWIDTH 857 0
DWIDTH 24 0
BBX 20 14 2 0
BITMAP
1F0F80
61B8C0
60F060
E0E030
60E030
004030
1FFFF0
704000
C04000
C06000
C06010
C0F010
E13860
3E0F80
ENDCHAR
STARTCHAR 00E7
ENCODING 231
SWIDTH 535 0
DWIDTH 15 0
BBX 12 20 2 -6
BITMAP
0F80
3060
6060
C060
C000
C000
C000
C000
C000
C000
E010
6020
3840
0F80
0400
0600
0380
0180
0180
1F00
ENDCHAR
STARTCHAR 00E8
ENCODING 232
SWIDTH 571 0
DWIDTH 16 0
BBX 12 20 2 1
BITMAP
1800
0C00
0200
0000
0000
0000
0F80
30C0
6060
C030
C030
FFF0
C000
C000
C000
C000
E010
6020
3860
0F80
ENDCHAR
STARTCHAR 00E9
ENCODING 233
SWIDTH 571 0
DWIDTH 16 0
BBX 12 20 2 1
BITMAP
0180
0300
0600
0000
0000
0000
0F80
30C0
6060
C030
C030
FFF0
C000
C000
C000
C000
E010
6020
3860
0F80
ENDCHAR
STARTCHAR 00EA
ENCODING 234
SWIDTH 571 0
DWIDTH 16 0
BBX 12 20 2 0
BITMAP
0600
0F00
1880
0000
0000
0000
0F80
30C0
6060
C030
C030
FFF0
C000
C000
C000
C000
E010
6020
3860
0F80
ENDCHAR
STARTCHAR 00EB
ENCODING 235
SWIDTH 571 0
DWIDTH 16 0
BBX 12 20 2 0
BITMAP
39C0
39C0
0000
0000
0000
0000
0F80
30C0
6060
C030
C030
FFF0
C000
C000
C000
C000
E010
6020
3860
0F80
ENDCHAR
STARTCHAR 00EC
ENCODING 236
SWIDTH 285 0
DWIDTH 8 0
BBX 7 20 1 1
BITMAP
C0
60
30
00
00
00
F0
30
30
30
30
30
30
30
30
30
30
30
38
FE
ENDCHAR
STARTCHAR 00ED
ENCODING 237
SWIDTH 285 0
DWIDTH 8 0
BBX 7 20 1 1
BITMAP
0C
1C
30
20
00
00
F0
30
30
30
30
30
30
30
30
30
30
30
38
FE
ENDCHAR
STARTCHAR 00EE
ENCODING 238
SWIDTH 285 0
DWIDTH 8 0
BBX 7 19 1 0
BITMAP
38
4C
80
00
00
F0
30
30
30
30
30
30
30
30
30
30
30
38
FE
ENDCHAR
STARTCHAR 00EF
ENCODING 239
SWIDTH 285 0
DWIDTH 8 0
BBX 7 20 1 0
BITMAP
C6
C6
00
00
00
00
F0
30
30
30
30
30
30
30
30
30
30
30
38
FE
ENDCHAR
STARTCHAR 00F0
ENCODING 240
SWIDTH 571 0
DWIDTH 16 0
BBX 13 20 2 1
BITMAP
3980
0600
0B00
3180
00C0
0060
1FE0
30F0
6070
C030
C038
C018
C018
C018
C010
C030
C030
6060
30C0
1F80
ENDCHAR
STARTCHAR 00F1
ENCODING 241
SWIDTH 642 0
DWIDTH 18 0
BBX 16 20 1 0
BITMAP
0700
0990
0060
0000
0000
0000
F1E0
3638
1818
1808
100C
100C
100C
100C
100C
100C
100C
100C
380C
FE7F
ENDCHAR
STARTCHAR 00F2
ENCODING 242
SWIDTH 571 0
DWIDTH 16 0
BBX 13 20 2 1
BITMAP
1800
0C00
0200
0000
0000
0000
0F80
30E0
6060
C030
C030
C018
C018
C018
C018
C010
C030
6020
30E0
0F80
ENDCHAR
STARTCHAR 00F3
ENCODING 243
SWIDTH 571 0
DWIDTH 16 0
BBX 13 20 2 1
BITMAP
0180
0300
0600
0000
0000
0000
0F80
30E0
6060
C030
C030
C018
C018
C018
C018
C010
C030
6020
30E0
0F80
ENDCHAR
STARTCHAR 00F4
ENCODING 244
SWIDTH 571 0
DWIDTH 16 0
BBX 13 20 2 0
BITMAP
0600
0F00
1880
0000
0000
0000
0F80
30E0
6060
C030
C030
C018
C018
C018
C018
C010
C030
6020
30E0
0F80
ENDCHAR
STARTCHAR 00F5
ENCODING 245
SWIDTH 571 0
DWIDTH 16 0
BBX 13 20 2 0
BITMAP
1C00
1240
01C0
0000
0000
0000
0F80
30E0
6060
C030
C030
C018
C018
C018
C018
C010
C030
6020
30E0
0F80
ENDCHAR
STARTCHAR 00F6
ENCODING 246
SWIDTH 571 0
DWIDTH 16 0
BBX 13 20 2 0
BITMAP
18C0
18C0
1800
0000
0000
0000
0F80
30E0
6060
C030
C030
C018
C018
C018
C018
C010
C030
6020
30E0
0F80
ENDCHAR
STARTCHAR 00F7
ENCODING 247
SWIDTH 678 0
DWIDTH 19 0
BBX 15 12 2 3
BITMAP
0380
0380
0380
0380
0000
FFFE
0000
0000
0380
0380
0380
0380
ENDCHAR
STARTCHAR 00F8
ENCODING 248
SWIDTH 571 0
DWIDTH 16 0
BBX 13 14 2 1
BITMAP
0FB0
3060
6070
C0B0
C198
C318
C218
C418
C818
D830
F030
6060
70C0
9F80
ENDCHAR
STARTCHAR 00F9
ENCODING 249
SWIDTH 607 0
DWIDTH 17 0
BBX 16 20 1 1
BITMAP
0C00
0600
0300
0000
0000
0000
F078
3018
3018
3018
3018
3018
3018
3018
3018
3018
3018
3038
1878
0F9F
ENDCHAR
STARTCHAR 00FA
ENCODING 250
SWIDTH 607 0
DWIDTH 17 0
BBX 16 20 1 1
BITMAP
00C0
01C0
0300
0200
0000
0000
F078
3018
3018
3018
3018
3018
3018
3018
3018
3018
3018
3038
1878
0F9F
ENDCHAR
STARTCHAR 00FB
ENCODING 251
SWIDTH 607 0
DWIDTH 17 0
BBX 16 19 1 0
BITMAP
0380
04C0
0800
0000
0000
F078
3018
3018
3018
3018
3018
3018
3018
3018
3018
3018
3038
1878
0F9F
ENDCHAR
STARTCHAR 00FC
ENCODING 252
SWIDTH 607 0
DWIDTH 17 0
BBX 16 20 1 0
BITMAP
0C60
0CE0
0060
0000
0000
0000
F078
3018
3018
3018
3018
3018
3018
3018
3018
3018
3018
3038
1878
0F9F
ENDCHAR
STARTCHAR 00FD
ENCODING 253
SWIDTH 535 0
DWIDTH 15 0
BBX 15 25 0 -4
BITMAP
0060
00C0
0180
0000
0000
0000
FC3E
3008
3008
1810
1810
0C20
0C20
0420
0640
0640
0380
0380
0180
0100
0100
0200
0200
3200
3C00
ENDCHAR
STARTCHAR 00FE
ENCODING 254
SWIDTH 607 0
DWIDTH 17 0
BBX 15 26 0 -5
BITMAP
1800
F800
1800
1800
1800
1800
1800
19F0
1E18
1C0C
1806
1806
1806
1806
1806
1806
1806
1806
1C0C
1E18
19F0
1800
1800
1800
1800
FE00
ENDCHAR
STARTCHAR 00FF
ENCODING 255
SWIDTH 535 0
DWIDTH 15 0
BBX 15 25 0 -5
BITMAP
0C60
0C60
0000
0000
0000
0000
FC3E
3008
3008
1810
1810
0C20
0C20
0420
0640
0640
0380
0380
0180
0100
0100
0200
0200
3200
3C00
ENDCHAR
STARTCHAR 0100
ENCODING 256
SWIDTH 714 0
DWIDTH 20 0
BBX 20 24 0 0
BITMAP
01FC00
000000
000000
000000
006000
006000
007000
00F000
00B000
009800
011800
010C00
030C00
020C00
020600
060600
07FF00
0C0300
080300
080180
180180
1000C0
3000C0
FE07F0
ENDCHAR
STARTCHAR 0101
ENCODING 257
SWIDTH 535 0
DWIDTH 15 0
BBX 13 19 2 0
BITMAP
3F80
0000
0000
0000
0000
1F00
6180
E0C0
60C0
0040
03C0
3C40
6040
C040
C040
C0C0
C0C0
E368
3C70
ENDCHAR
STARTCHAR 0102
ENCODING 258
SWIDTH 714 0
DWIDTH 20 0
BBX 20 25 0 0
BITMAP
020400
010C00
00F000
000000
000000
002000
006000
007000
00F000
00B000
009800
011800
010C00
030C00
020C00
020600
060600
07FF00
0C0300
080300
080180
180180
1000C0
3000C0
FE07F0
ENDCHAR
STARTCHAR 0103
ENCODING 259
SWIDTH 535 0
DWIDTH 15 0
BBX 13 20 2 0
BITMAP
2080
3180
1F00
0000
0000
0000
1F00
6180
E0C0
60C0
0040
03C0
3C40
6040
C040
C040
C0C0
C0C0
E368
3C70
ENDCHAR
STARTCHAR 0104
ENCODING 260
SWIDTH 714 0
DWIDTH 20 0
BBX 20 26 0 -6
BITMAP
002000
006000
007000
00F000
00B000
009800
011800
010C00
030C00
020C00
020600
060600
07FF00
0C0300
080300
080180
180180
1000C0
3000C0
FE07F0
0000C0
000100
000300
000600
000620
0003C0
ENDCHAR
STARTCHAR 0105
ENCODING 261
SWIDTH 535 0
DWIDTH 15 0
BBX 12 20 2 -6
BITMAP
1F00
6180
E0C0
60C0
0040
01C0
3E40
6040
C040
C040
C0C0
C0C0
E340
3E70
0060
00C0
0180
0100
0180
01F0
ENDCHAR
STARTCHAR 0106
ENCODING 262
SWIDTH 714 0
DWIDTH 20 0
BBX 18 26 2 0
BITMAP
001000
003800
007000
00C000
008000
000000
03F880
0E0F80
180380
300180
600180
600080
C00000
C00000
C00000
C00000
C00000
C00000
C00000
C000C0
600080
600080
300100
180200
0E0C00
03F000
ENDCHAR
STARTCHAR 0107
ENCODING 263
SWIDTH 535 0
DWIDTH 15 0
BBX 12 20 2 1
BITMAP
0180
0300
0600
0000
0000
0000
0F80
3060
6060
C060
C000
C000
C000
C000
C000
C000
E010
6020
3840
1F80
ENDCHAR
STARTCHAR 0108
ENCODING 264
SWIDTH 714 0
DWIDTH 20 0
BBX 18 25 2 0
BITMAP
00E000
01B000
061800
000000
000000
03F880
0E0F80
180380
300180
600180
600080
C00000
C00000
C00000
C00000
C00000
C00000
C00000
C000C0
600080
600080
300100
180200
0E0C00
03F000
ENDCHAR
STARTCHAR 0109
ENCODING 265
SWIDTH 535 0
DWIDTH 15 0
BBX 12 20 2 0
BITMAP
0600
0F00
1880
0000
0000
0000
0F80
3060
6060
C060
C000
C000
C000
C000
C000
C000
E010
6020
3840
1F80
ENDCHAR
STARTCHAR 010C
ENCODING 268
SWIDTH 714 0
DWIDTH 20 0
BBX 18 25 2 0
BITMAP
021800
01B000
00E000
000000
000000
03F880
0E0F80
180380
300180
600180
600080
C00000
C00000
C00000
C00000
C00000
C00000
C00000
C000C0
600080
600080
300100
180200
0E0C00
03F000
ENDCHAR
STARTCHAR 010D
ENCODING 269
SWIDTH 535 0
DWIDTH 15 0
BBX 12 20 2 0
BITMAP
1080
0F00
0600
0000
0000
0000
0F80
3060
6060
C060
C000
C000
C000
C000
C000
C000
E010
6020
3840
1F80
ENDCHAR
STARTCHAR 010E
ENCODING 270
SWIDTH 785 0
DWIDTH 22 0
BBX 19 25 1 0
BITMAP
030800
01B000
00E000
000000
000000
FFF800
1C0E00
180380
180180
1800C0
1800E0
180060
180060
180060
180060
180060
180060
180060
180060
1800E0
1800C0
180180
180380
1C0E00
FFF800
ENDCHAR
STARTCHAR 010F
ENCODING 271
SWIDTH 607 0
DWIDTH 17 0
BBX 17 21 2 0
BITMAP
000300
00F380
003380
003100
003300
003000
003000
1F3000
30F000
607000
C03000
C03000
C03000
C03000
C03000
C03000
C03000
C03000
607000
30B000
1F3C00
ENDCHAR
STARTCHAR 0111
ENCODING 273
SWIDTH 607 0
DWIDTH 17 0
BBX 14 21 2 0
BITMAP
0010
00F0
0030
0030
03FC
0030
0030
1F30
30F0
6070
C030
C030
C030
C030
C030
C030
C030
C030
6070
30B0
1F3C
ENDCHAR
STARTCHAR 0112
ENCODING 274
SWIDTH 714 0
DWIDTH 20 0
BBX 17 24 1 0
BITMAP
03F800
000000
000000
000000
FFFF00
180300
180100
180100
180100
180000
181000
181000
183000
1FF000
183000
181000
181000
180000
180080
180080
180180
180180
1C0380
FFFF80
ENDCHAR
STARTCHAR 0113
ENCODING 275
SWIDTH 571 0
DWIDTH 16 0
BBX 12 19 2 0
BITMAP
1FC0
0000
0000
0000
0000
0F80
30C0
6060
C030
C030
FFF0
C000
C000
C000
C000
E010
6020
3860
0F80
ENDCHAR
STARTCHAR 0118
ENCODING 280
SWIDTH 714 0
DWIDTH 20 0
BBX 17 26 1 -6
BITMAP
FFFF00
180300
180100
180100
180100
180000
181000
181000
183000
1FF000
183000
181000
181000
180000
180080
180080
180180
180180
1C0380
FFFF80
00C000
018000
030000
060000
062000
03C000
ENDCHAR
STARTCHAR 0119
ENCODING 281
SWIDTH 571 0
DWIDTH 16 0
BBX 12 20 2 -6
BITMAP
1F80
30C0
6060
C030
C030
FFF0
C000
C000
C000
C000
E030
7060
3FC0
0700
0600
0C00
1800
1800
1880
0F00
ENDCHAR
STARTCHAR 011A
ENCODING 282
SWIDTH 714 0
DWIDTH 20 0
BBX 17 25 1 0
BITMAP
021800
01B000
00E000
000000
000000
FFFF00
180300
180100
180100
180100
180000
181000
181000
183000
1FF000
183000
181000
181000
180000
180080
180080
180180
180180
1C0380
FFFF80
ENDCHAR
STARTCHAR 011B
ENCODING 283
SWIDTH 571 0
DWIDTH 16 0
BBX 12 20 2 0
BITMAP
10C0
0D80
0600
0000
0000
0000
0F80
30C0
6060
C030
C030
FFF0
C000
C000
C000
C000
E010
6020
3860
0F80
ENDCHAR
STARTCHAR 011C
ENCODING 284
SWIDTH 785 0
DWIDTH 22 0
BBX 19 25 2 0
BITMAP
00E000
01B000
021800
000000
000000
03F880
0E0F80
180380
300180
600180
600080
C00000
C00000
C00000
C00000
C00000
C00FE0
C00180
C00180
E00180
600180
300180
180380
0E0E80
03F880
ENDCHAR
STARTCHAR 011D
ENCODING 285
SWIDTH 535 0
DWIDTH 15 0
BBX 14 25 1 -5
BITMAP
0300
0780
08C0
0000
001C
003C
0FC0
3860
6030
6030
6030
6030
6030
3060
1F80
2000
3000
1FC0
1FF0
7038
C018
C018
6018
7030
1FC0
ENDCHAR
STARTCHAR 0124
ENCODING 292
SWIDTH 821 0
DWIDTH 23 0
BBX 21 25 1 0
BITMAP
007000
00D800
010400
000000
000000
FF07F8
1C01C0
1800C0
1800C0
1800C0
1800C0
1800C0
1800C0
1800C0
1FFFC0
1800C0
1800C0
1800C0
1800C0
1800C0
1800C0
1800C0
1800C0
1C01C0
FF07F8
ENDCHAR
STARTCHAR 0125
ENCODING 293
SWIDTH 607 0
DWIDTH 17 0
BBX 16 25 1 0
BITMAP
1800
3C00
4600
0000
0000
F000
3000
3000
3000
3000
3000
33E0
3430
3818
3018
3018
3018
3018
3018
3018
3018
3018
3018
301C
FE7F
ENDCHAR
STARTCHAR 0127
ENCODING 295
SWIDTH 607 0
DWIDTH 17 0
BBX 16 21 1 0
BITMAP
1000
F000
3000
3000
FF00
3000
3000
33E0
3430
3818
3018
3018
3018
3018
3018
3018
3018
3018
3018
301C
FE7F
ENDCHAR
STARTCHAR 012A
ENCODING 298
SWIDTH 392 0
DWIDTH 11 0
BBX 8 24 1 0
BITMAP
7F
00
00
00
FF
1C
18
18
18
18
18
18
18
18
18
18
18
18
18
18
18
18
1C
FF
ENDCHAR
STARTCHAR 012B
ENCODING 299
SWIDTH 285 0
DWIDTH 8 0
BBX 8 19 0 0
BITMAP
FF
00
00
00
08
78
18
18
18
18
18
18
18
18
18
18
18
1C
7F
ENDCHAR
STARTCHAR 0134
ENCODING 308
SWIDTH 464 0
DWIDTH 13 0
BBX 12 25 0 0
BITMAP
01C0
0660
0C30
0000
0000
0FF0
01C0
0180
0180
0180
0180
0180
0180
0180
0180
0180
0180
0180
0180
0180
0180
6180
E180
4300
3E00
ENDCHAR
STARTCHAR 0135
ENCODING 309
SWIDTH 321 0
DWIDTH 9 0
BBX 8 26 -1 -6
BITMAP
0C
1E
33
00
00
00
3C
0C
0C
0C
0C
0C
0C
0C
0C
0C
0C
0C
0C
0C
0C
0C
CC
CC
88
70
ENDCHAR
STARTCHAR 0139
ENCODING 313
SWIDTH 607 0
DWIDTH 17 0
BBX 16 26 1 0
BITMAP
0100
0380
0700
0C00
0000
0000
FF00
1C00
1800
1800
1800
1800
1800
1800
1800
1800
1800
1800
1800
1800
1801
1801
1801
1803
1C07
7FFF
ENDCHAR
STARTCHAR 013A
ENCODING 314
SWIDTH 285 0
DWIDTH 8 0
BBX 7 25 1 1
BITMAP
0C
18
30
00
00
F0
30
30
30
30
30
30
30
30
30
30
30
30
30
30
30
30
30
30
FE
ENDCHAR
STARTCHAR 013D
ENCODING 317
SWIDTH 607 0
DWIDTH 17 0
BBX 16 21 1 0
BITMAP
0018
FF38
1C18
1808
1810
1820
1800
1800
1800
1800
1800
1800
1800
1800
1800
1801
1801
1801
1803
1C07
7FFF
ENDCHAR
STARTCHAR 013E
ENCODING 318
SWIDTH 321 0
DWIDTH 9 0
BBX 9 21 1 0
BITMAP
0300
F380
3380
3180
3100
3200
3000
3000
3000
3000
3000
3000
3000
3000
3000
3000
3000
3000
3000
3000
FE00
ENDCHAR
STARTCHAR 0141
ENCODING 321
SWIDTH 607 0
DWIDTH 17 0
BBX 16 20 1 0
BITMAP
FF00
1C00
1800
1800
1800
1880
1980
1B00
1E00
1800
3800
5800
1800
1800
1801
1801
1801
1803
1C07
FFFF
ENDCHAR
STARTCHAR 0142
ENCODING 322
SWIDTH 285 0
DWIDTH 8 0
BBX 7 21 1 0
BITMAP
10
F0
30
30
30
30
30
32
36
38
30
70
B0
30
30
30
30
30
30
30
FE
ENDCHAR
STARTCHAR 0143
ENCODING 323
SWIDTH 821 0
DWIDTH 23 0
BBX 21 25 1 1
BITMAP
000C00
001800
003000
000000
000000
FC03F8
1C0060
160040
170040
130040
118040
11C040
10C040
106040
103040
103840
101840
100C40
100E40
100640
100340
1001C0
1001C0
1800C0
FE0040
ENDCHAR
STARTCHAR 0144
ENCODING 324
SWIDTH 642 0
DWIDTH 18 0
BBX 16 20 1 1
BITMAP
0070
00E0
0180
0000
0000
0000
F1E0
3638
1818
1808
100C
100C
100C
100C
100C
100C
100C
100C
380C
FE7F
ENDCHAR
STARTCHAR 0147
ENCODING 327
SWIDTH 821 0
DWIDTH 23 0
BBX 21 25 1 0
BITMAP
010C00
00D800
007000
000000
000000
FC03F8
1C0060
160040
170040
130040
118040
11C040
10C040
106040
103040
103840
101840
100C40
100E40
100640
100340
1001C0
1001C0
1800C0
FE0040
ENDCHAR
STARTCHAR 0148
ENCODING 328
SWIDTH 642 0
DWIDTH 18 0
BBX 16 20 1 0
BITMAP
0420
03C0
0180
0000
0000
0000
F1E0
3638
1818
1808
100C
100C
100C
100C
100C
100C
100C
100C
380C
FE7F
ENDCHAR
STARTCHAR 014B
ENCODING 331
SWIDTH 642 0
DWIDTH 18 0
BBX 14 20 1 -6
BITMAP
F1E0
3638
1818
1808
100C
100C
100C
100C
100C
100C
100C
100C
380C
FE0C
000C
000C
0188
0198
0198
00F0
ENDCHAR
STARTCHAR 014C
ENCODING 332
SWIDTH 785 0
DWIDTH 22 0
BBX 19 24 2 0
BITMAP
03F800
000000
000000
000000
03F000
0C0E00
180300
300180
600180
6000C0
C000C0
C000E0
C000E0
C00060
C000E0
C000E0
C000E0
E000C0
6000C0
600180
300180
180300
0E0E00
03F800
ENDCHAR
STARTCHAR 014D
ENCODING 333
SWIDTH 571 0
DWIDTH 16 0
BBX 13 19 2 0
BITMAP
1FC0
0000
0000
0000
0000
0F80
30E0
6060
C030
C038
C018
C018
C018
C018
C038
C030
6070
30E0
1F80
ENDCHAR
STARTCHAR 0150
ENCODING 336
SWIDTH 785 0
DWIDTH 22 0
BBX 19 25 2 0
BITMAP
00CC00
019800
013000
002000
000000
03F000
0C0E00
180300
300180
600180
6000C0
C000C0
C000E0
C000E0
C00060
C000E0
C000E0
C000E0
E000C0
6000C0
600180
300180
180300
0E0E00
03F800
ENDCHAR
STARTCHAR 0151
ENCODING 337
SWIDTH 571 0
DWIDTH 16 0
BBX 13 20 2 1
BITMAP
0660
0CC0
0980
0000
0000
0000
0F80
30E0
6060
C030
C038
C018
C018
C018
C018
C038
C030
6070
30E0
1F80
ENDCHAR
STARTCHAR 0152
ENCODING 338
SWIDTH 1035 0
DWIDTH 29 0
BBX 26 20 2 0
BITMAP
03FFFF80
0C0E0180
18060080
30060080
60060080
E0060080
C0060800
C0060800
C0061800
C007F800
C0061800
C0060800
C0060800
C0060000
60060040
60060040
30060080
18060080
0E0E0180
03FFFF80
ENDCHAR
STARTCHAR 0153
ENCODING 339
SWIDTH 928 0
DWIDTH 26 0
BBX 22 14 2 0
BITMAP
1F07E0
30CC30
607818
C07008
C0300C
C0300C
C03FFC
C03000
C03000
C03000
C07000
60780C
70CC18
1F83E0
ENDCHAR
STARTCHAR 0154
ENCODING 340
SWIDTH 678 0
DWIDTH 19 0
BBX 19 25 1 1
BITMAP
003000
006000
00C000
000000
000000
FFF800
1C0E00
180700
180300
180300
180300
180300
180300
180600
1FF800
19E000
183000
181800
180C00
180C00
180600
180600
180300
1C0380
FF03E0
ENDCHAR
STARTCHAR 0155
ENCODING 341
SWIDTH 392 0
DWIDTH 11 0
BBX 10 20 1 1
BITMAP
0300
0600
0C00
0000
0000
0000
F1C0
36C0
1400
1800
1800
1000
1000
1000
1000
1000
1000
1000
3800
FE00
ENDCHAR
STARTCHAR 0158
ENCODING 344
SWIDTH 678 0
DWIDTH 19 0
BBX 19 25 1 0
BITMAP
061800
036000
01C000
000000
000000
FFF800
1C0E00
180700
180300
180300
180300
180300
180300
180600
1FF800
19E000
183000
181800
180C00
180C00
180600
180600
180300
1C0380
FF03E0
ENDCHAR
STARTCHAR 0159
ENCODING 345
SWIDTH 392 0
DWIDTH 11 0
BBX 10 20 1 0
BITMAP
6100
3600
1C00
0000
0000
0000
F1C0
36C0
1400
1800
1800
1000
1000
1000
1000
1000
1000
1000
3800
FE00
ENDCHAR
STARTCHAR 015A
ENCODING 346
SWIDTH 607 0
DWIDTH 17 0
BBX 13 25 2 1
BITMAP
00C0
0180
0300
0000
0000
1FC8
3078
6038
C018
C008
C008
E000
7000
3C00
0F80
03E0
0070
0038
8018
8018
8018
C018
E018
B070
8FC0
ENDCHAR
STARTCHAR 015B
ENCODING 347
SWIDTH 464 0
DWIDTH 13 0
BBX 10 21 2 0
BITMAP
0200
0700
0E00
1800
0000
0000
0000
3F80
6380
C080
C080
C000
E000
3C00
0F00
0180
80C0
80C0
C0C0
E180
9F00
ENDCHAR
STARTCHAR 015C
ENCODING 348
SWIDTH 607 0
DWIDTH 17 0
BBX 13 25 2 0
BITMAP
0700
0D80
1840
0000
0000
1FC8
3078
6038
C018
C008
C008
E000
7000
3C00
0F80
03E0
0070
0038
8018
8018
8018
C018
E018
B070
8FC0
ENDCHAR
STARTCHAR 015D
ENCODING 349
SWIDTH 464 0
DWIDTH 13 0
BBX 10 20 2 0
BITMAP
0C00
1E00
2300
0000
0000
0000
3F80
6380
C080
C080
C000
E000
3C00
0F00
0180
80C0
80C0
C0C0
E180
9F00
ENDCHAR
STARTCHAR 015E
ENCODING 350
SWIDTH 607 0
DWIDTH 17 0
BBX 13 26 2 -6
BITMAP
1FC8
3078
6038
C018
C008
C008
E000
7000
3C00
0F80
03E0
0070
0038
8018
8018
8018
C018
E018
B070
8FC0
0000
0700
0700
0300
0100
0600
ENDCHAR
STARTCHAR 015F
ENCODING 351
SWIDTH 464 0
DWIDTH 13 0
BBX 10 20 2 -6
BITMAP
3F80
6380
C080
C080
C000
E000
3C00
0F00
0180
80C0
80C0
C0C0
E180
9F00
0000
0C00
0C00
0400
0400
0C00
ENDCHAR
STARTCHAR 0160
ENCODING 352
SWIDTH 607 0
DWIDTH 17 0
BBX 13 25 2 0
BITMAP
1040
0D80
0700
0000
0000
1FC8
3078
6038
C018
C008
C008
E000
7000
3C00
0F80
03E0
0070
0038
8018
8018
8018
C018
E018
F070
9FC0
ENDCHAR
STARTCHAR 0161
ENCODING 353
SWIDTH 464 0
DWIDTH 13 0
BBX 10 20 2 0
BITMAP
6300
3600
1C00
0000
0000
0000
3F80
6380
C080
C080
C000
E000
3C00
0F00
0180
80C0
80C0
80C0
E180
9F00
ENDCHAR
STARTCHAR 0162
ENCODING 354
SWIDTH 607 0
DWIDTH 17 0
BBX 17 26 0 -6
BITMAP
7FFF80
E0C180
C0C080
80C080
80C080
00C000
00C000
00C000
00C000
00C000
00C000
00C000
00C000
00C000
00C000
00C000
00C000
00C000
01C000
07F800
000000
01C000
01C000
00C000
00C000
018000
ENDCHAR
STARTCHAR 0163
ENCODING 355
SWIDTH 321 0
DWIDTH 9 0
BBX 8 24 1 -6
BITMAP
10
10
30
30
FF
30
30
30
30
30
30
30
30
30
30
30
31
1E
00
1C
1C
0C
0C
18
ENDCHAR
STARTCHAR 0164
ENCODING 356
SWIDTH 607 0
DWIDTH 17 0
BBX 17 25 0 0
BITMAP
061800
036000
01C000
000000
000000
7FFF80
E0C180
C0C080
80C080
80C080
00C000
00C000
00C000
00C000
00C000
00C000
00C000
00C000
00C000
00C000
00C000
00C000
00C000
01C000
07F800
ENDCHAR
STARTCHAR 0165
ENCODING 357
SWIDTH 357 0
DWIDTH 10 0
BBX 9 21 1 0
BITMAP
0380
0380
0180
1080
1300
3000
3000
FF00
3000
3000
3000
3000
3000
3000
3000
3000
3000
3000
3000
3100
1E00
ENDCHAR
STARTCHAR 016A
ENCODING 362
SWIDTH 785 0
DWIDTH 22 0
BBX 21 24 1 0
BITMAP
01FC00
000000
000000
000000
FE03F8
3800C0
380040
100040
100040
100040
100040
100040
100040
100040
100040
100040
100040
1800C0
1800C0
1800C0
1C0080
0C0180
070700
01FC00
ENDCHAR
STARTCHAR 016B
ENCODING 363
SWIDTH 607 0
DWIDTH 17 0
BBX 16 19 1 0
BITMAP
0FE0
0000
0000
0000
1008
F078
3018
3018
3018
3018
3018
3018
3018
3018
3018
3018
3038
1878
0F9F
ENDCHAR
STARTCHAR 016C
ENCODING 364
SWIDTH 785 0
DWIDTH 22 0
BBX 21 25 1 0
BITMAP
010400
018400
00F800
000000
000000
FE03F8
3800C0
380040
100040
100040
100040
100040
100040
100040
100040
100040
100040
100040
1800C0
1800C0
1800C0
1C0080
0C0180
070700
01FC00
ENDCHAR
STARTCHAR 016D
ENCODING 365
SWIDTH 607 0
DWIDTH 17 0
BBX 16 20 1 0
BITMAP
0820
0860
07C0
0000
0000
0000
F078
7038
3018
3018
3018
3018
3018
3018
3018
3018
3018
3038
1878
0F9F
ENDCHAR
STARTCHAR 016E
ENCODING 366
SWIDTH 785 0
DWIDTH 22 0
BBX 21 26 1 0
BITMAP
007000
004800
008800
004800
007000
000000
FE03F8
3800C0
380040
100040
100040
100040
100040
100040
100040
100040
100040
100040
100040
1800C0
1800C0
1800C0
1C0080
0C0180
070700
01FC00
ENDCHAR
STARTCHAR 016F
ENCODING 367
SWIDTH 607 0
DWIDTH 17 0
BBX 16 20 1 0
BITMAP
0380
0480
0480
0380
0000
0000
F078
3018
3018
3018
3018
3018
3018
3018
3018
3018
3018
3038
1878
0F9F
ENDCHAR
STARTCHAR 0170
ENCODING 368
SWIDTH 785 0
DWIDTH 22 0
BBX 21 25 1 0
BITMAP
006600
004C00
009800
001000
000000
FE03F8
3800C0
380040
100040
100040
100040
100040
100040
100040
100040
100040
100040
100040
1800C0
1800C0
1800C0
1C0080
0C0180
070700
01FC00
ENDCHAR
STARTCHAR 0171
ENCODING 369
SWIDTH 607 0
DWIDTH 17 0
BBX 16 20 1 1
BITMAP
0330
0260
0440
0000
0000
0000
F078
3018
3018
3018
3018
3018
3018
3018
3018
3018
3018
3038
1878
0F9F
ENDCHAR
STARTCHAR 0179
ENCODING 377
SWIDTH 642 0
DWIDTH 18 0
BBX 15 26 1 0
BITMAP
0020
0070
00E0
0180
0100
0000
7FFE
700E
400C
4018
8030
0070
0060
00C0
01C0
0180
0300
0600
0E00
0C00
1802
3802
7002
6002
C00E
FFFE
ENDCHAR
STARTCHAR 017A
ENCODING 378
SWIDTH 464 0
DWIDTH 13 0
BBX 11 20 1 1
BITMAP
0180
0300
0600
0000
0000
0000
7FE0
40C0
C1C0
8180
0300
0600
0600
0C00
1800
3820
3020
6020
C060
FFE0
ENDCHAR
STARTCHAR 017B
ENCODING 379
SWIDTH 642 0
DWIDTH 18 0
BBX 15 25 1 0
BITMAP
0180
0180
0180
0000
0000
7FFE
700E
400C
4018
8030
0070
0060
00C0
01C0
0180
0300
0600
0E00
0C00
1802
3802
7002
6002
C00E
FFFE
ENDCHAR
STARTCHAR 017C
ENCODING 380
SWIDTH 464 0
DWIDTH 13 0
BBX 11 20 1 0
BITMAP
0600
0E00
0600
0000
0000
0000
7FE0
40C0
C1C0
8180
0300
0600
0600
0C00
1800
3820
3020
6020
C060
FFE0
ENDCHAR
STARTCHAR 017D
ENCODING 381
SWIDTH 642 0
DWIDTH 18 0
BBX 15 25 1 0
BITMAP
0C30
06C0
0380
0000
0000
7FFE
700E
400C
4018
8030
0070
0060
00C0
01C0
0180
0300
0600
0E00
0C00
1802
3802
7002
6002
C00E
FFFE
ENDCHAR
STARTCHAR 017E
ENCODING 382
SWIDTH 464 0
DWIDTH 13 0
BBX 11 20 1 0
BITMAP
3080
0F00
0600
0000
0000
0000
7FE0
40C0
C1C0
8180
0300
0600
0600
0C00
1800
3820
3020
6020
C060
FFE0
ENDCHAR
STARTCHAR 0193
ENCODING 403
SWIDTH 785 0
DWIDTH 22 0
BBX 22 24 2 0
BITMAP
000078
0000DC
00008C
000080
03F880
0E0F80
180380
300180
600180
600080
C00000
C00000
C00000
C00000
C00000
C00FE0
C00180
C00180
E00180
600180
300180
180380
0E0E80
03F880
ENDCHAR
STARTCHAR 01C2
ENCODING 450
SWIDTH 500 0
DWIDTH 14 0
BBX 12 19 1 1
BITMAP
0600
0600
0600
0600
0600
0600
FFF0
0600
0600
0600
0600
FFF0
0600
0600
0600
0600
0600
0600
0600
ENDCHAR
STARTCHAR 01CD
ENCODING 461
SWIDTH 714 0
DWIDTH 20 0
BBX 21 25 0 0
BITMAP
010400
019800
00F000
006000
000000
002000
006000
007000
00F000
00B000
009800
011800
010C00
030C00
020C00
020600
040600
07FF00
0C0300
080300
080180
180180
1000C0
3000C0
FE07F8
ENDCHAR
STARTCHAR 01CE
ENCODING 462
SWIDTH 535 0
DWIDTH 15 0
BBX 13 20 2 0
BITMAP
3180
1B00
0E00
0000
0000
0000
1F00
6180
E0C0
60C0
00C0
03C0
3CC0
60C0
C0C0
C0C0
C0C0
C0C0
E368
3C70
ENDCHAR
STARTCHAR 01D0
ENCODING 464
SWIDTH 285 0
DWIDTH 8 0
BBX 7 20 1 0
BITMAP
86
6C
38
00
00
00
F0
30
30
30
30
30
30
30
30
30
30
30
38
FE
ENDCHAR
STARTCHAR 01D1
ENCODING 465
SWIDTH 785 0
DWIDTH 22 0
BBX 19 25 2 0
BITMAP
020800
01B000
00E000
000000
000000
03F000
0E0E00
180300
300180
600180
6000C0
C000C0
C000E0
C000E0
C00060
C00060
C000E0
C000E0
C000C0
6000C0
600180
300180
180300
0E0E00
03F000
ENDCHAR
STARTCHAR 01D2
ENCODING 466
SWIDTH 571 0
DWIDTH 16 0
BBX 13 20 2 0
BITMAP
18C0
0D80
0700
0000
0000
0000
0F80
30E0
6060
C030
C038
C018
C018
C018
C018
C038
C030
6070
30E0
0F80
ENDCHAR
STARTCHAR 01D4
ENCODING 468
SWIDTH 607 0
DWIDTH 17 0
BBX 16 20 1 0
BITMAP
0C20
06C0
0380
0000
0000
0000
F078
3018
3018
3018
3018
3018
3018
3018
3018
3018
3018
3038
1878
0F9F
ENDCHAR
STARTCHAR 01D6
ENCODING 470
SWIDTH 607 0
DWIDTH 17 0
BBX 16 22 1 0
BITMAP
0FE0
0000
0C60
0CE0
0060
0000
0000
0000
F078
3018
3018
3018
3018
3018
3018
3018
3018
3018
3018
3038
1878
0F9F
ENDCHAR
STARTCHAR 01D8
ENCODING 472
SWIDTH 607 0
DWIDTH 17 0
BBX 16 24 1 0
BITMAP
0040
00C0
0180
0200
0C60
0CE0
0060
0000
0000
0000
F078
3018
3018
3018
3018
3018
3018
3018
3018
3018
3018
3038
1878
0F9F
ENDCHAR
STARTCHAR 01DA
ENCODING 474
SWIDTH 607 0
DWIDTH 17 0
BBX 16 24 1 0
BITMAP
0800
04C0
0380
0100
0C60
0CE0
0060
0000
0000
0000
F078
3018
3018
3018
3018
3018
3018
3018
3018
3018
3018
3038
1878
0F9F
ENDCHAR
STARTCHAR 01DC
ENCODING 476
SWIDTH 607 0
DWIDTH 17 0
BBX 16 24 1 0
BITMAP
0400
0E00
0300
0000
0C60
0CE0
0060
0000
0000
0000
F078
3018
3018
3018
3018
3018
3018
3018
3018
3018
3018
3038
1878
0F9F
ENDCHAR
STARTCHAR 01F8
ENCODING 504
SWIDTH 821 0
DWIDTH 23 0
BBX 21 25 1 1
BITMAP
038000
01C000
006000
002000
000000
FC03F8
1C0060
160040
170040
130040
118040
11C040
10C040
106040
103040
103840
101840
100C40
100E40
100640
100340
1001C0
1001C0
1800C0
FE0040
ENDCHAR
STARTCHAR 01F9
ENCODING 505
SWIDTH 642 0
DWIDTH 18 0
BBX 16 20 1 1
BITMAP
0C00
0600
0300
0000
0000
0000
F1E0
3638
1818
1808
100C
100C
100C
100C
100C
100C
100C
100C
380C
FE7F
ENDCHAR
STARTCHAR 01FD
ENCODING 509
SWIDTH 857 0
DWIDTH 24 0
BBX 20 20 2 1
BITMAP
001C00
003800
006000
000000
000000
000000
1F0F80
61B8C0
60F060
E0E030
60E030
004030
1FFFF0
704000
C04000
C06000
C0E010
C0B010
E33860
3E0F80
ENDCHAR
STARTCHAR 0250
ENCODING 592
SWIDTH 535 0
DWIDTH 15 0
BBX 13 14 1 0
BITMAP
E3E0
3C30
3818
3018
3018
3030
3070
3FC0
3000
3030
3070
1030
1860
07C0
ENDCHAR
STARTCHAR 0251
ENCODING 593
SWIDTH 571 0
DWIDTH 16 0
BBX 14 14 2 0
BITMAP
1F20
30A0
6060
C060
C020
C020
C020
C020
C020
C020
C060
6070
30B4
1F18
ENDCHAR
STARTCHAR 0252
ENCODING 594
SWIDTH 571 0
DWIDTH 16 0
BBX 14 14 1 0
BITMAP
E3C0
2C30
3818
3018
300C
300C
300C
300C
300C
300C
3018
3818
2C30
23C0
ENDCHAR
STARTCHAR 0253
ENCODING 595
SWIDTH 607 0
DWIDTH 17 0
BBX 12 20 3 0
BITMAP
1F80
7040
C060
C060
C000
C000
CF80
F0C0
E060
C030
C030
C030
C030
C030
C030
C030
C030
E060
B0C0
8F80
ENDCHAR
STARTCHAR 0254
ENCODING 596
SWIDTH 535 0
DWIDTH 15 0
BBX 12 14 1 0
BITMAP
1F80
20C0
4060
0030
0030
0030
0030
0030
0030
6030
E030
4060
60C0
1F00
ENDCHAR
STARTCHAR 0255
ENCODING 597
SWIDTH 535 0
DWIDTH 15 0
BBX 12 16 2 -2
BITMAP
0F80
3060
6060
C060
C000
C000
C000
C000
C0E0
C310
E210
6410
3C20
1FC0
0800
1000
ENDCHAR
STARTCHAR 0256
ENCODING 598
SWIDTH 607 0
DWIDTH 17 0
BBX 17 27 2 -6
BITMAP
001000
00F000
003000
003000
003000
003000
003000
1F3000
30F000
607000
C03000
C03000
C03000
C03000
C03000
C03000
C03000
C03000
607000
30B000
1F3000
003000
003000
003180
003180
001980
000F00
ENDCHAR
STARTCHAR 0257
ENCODING 599
SWIDTH 607 0
DWIDTH 17 0
BBX 17 20 2 0
BITMAP
000F00
001980
003180
003000
003000
003000
1F3000
30F000
607000
C03000
C03000
C03000
C03000
C03000
C03000
C03000
C03000
607000
30B000
1F3C00
ENDCHAR
STARTCHAR 0258
ENCODING 600
SWIDTH 571 0
DWIDTH 16 0
BBX 12 14 2 0
BITMAP
1F80
70C0
C060
C030
C030
FFF0
0030
0030
0030
0030
8060
C0E0
61C0
1F00
ENDCHAR
STARTCHAR 0259
ENCODING 601
SWIDTH 571 0
DWIDTH 16 0
BBX 12 14 2 0
BITMAP
1F00
61C0
C060
0060
0030
0030
0030
FFF0
C030
C030
C060
4060
70C0
1F00
ENDCHAR
STARTCHAR 025A
ENCODING 602
SWIDTH 785 0
DWIDTH 22 0
BBX 20 14 2 0
BITMAP
1F8000
3FC000
60E200
C03700
803900
807980
81D890
0318E0
0C1800
301800
701800
303000
186000
078000
ENDCHAR
STARTCHAR 025C
ENCODING 604
SWIDTH 535 0
DWIDTH 15 0
BBX 12 14 1 0
BITMAP
3F80
00E0
0060
0060
0060
00C0
1F80
0060
0020
0030
0030
0070
E0E0
1F80
ENDCHAR
STARTCHAR 025E
ENCODING 606
SWIDTH 571 0
DWIDTH 16 0
BBX 12 14 2 0
BITMAP
0F80
3060
4020
C030
8020
80E0
8F80
8060
8030
8030
C030
6070
7FE0
1F80
ENDCHAR
STARTCHAR 025F
ENCODING 607
SWIDTH 321 0
DWIDTH 9 0
BBX 10 20 -2 -6
BITMAP
1FC0
0300
0300
0300
0300
0300
0300
0300
0300
0300
0300
0300
0300
3FC0
0300
0300
C300
C600
C600
7C00
ENDCHAR
STARTCHAR 0260
ENCODING 608
SWIDTH 607 0
DWIDTH 17 0
BBX 17 26 2 -6
BITMAP
000F00
001980
001180
003000
003000
003000
1F3000
30F000
607000
C03000
C03000
C03000
C03000
C03000
C03000
C03000
C03000
607000
30B000
1F3000
603000
E03000
E03000
406000
20C000
1F8000
ENDCHAR
STARTCHAR 0261
ENCODING 609
SWIDTH 607 0
DWIDTH 17 0
BBX 12 20 2 -6
BITMAP
1F10
30D0
6070
C030
C030
C030
C030
C030
C030
C030
C030
6070
30B0
1F30
6030
E030
E030
4060
20C0
1F80
ENDCHAR
STARTCHAR 0264
ENCODING 612
SWIDTH 571 0
DWIDTH 16 0
BBX 14 14 1 0
BITMAP
F01C
1830
0EC0
0780
0380
0380
04C0
0C60
0860
1860
1860
0860
0CC0
0780
ENDCHAR
STARTCHAR 0265
ENCODING 613
SWIDTH 607 0
DWIDTH 17 0
BBX 15 20 1 -6
BITMAP
FC7E
3018
3018
3018
3018
3018
3018
3018
3018
3018
3018
3038
1858
0F98
0018
0018
0018
0018
001E
0010
ENDCHAR
STARTCHAR 0266
ENCODING 614
SWIDTH 607 0
DWIDTH 17 0
BBX 16 20 1 0
BITMAP
07E0
0C18
1818
3018
3000
3000
33E0
3430
3818
3018
3018
3018
3018
3018
3018
3018
3018
3018
301C
FE7F
ENDCHAR
STARTCHAR 0267
ENCODING 615
SWIDTH 607 0
DWIDTH 17 0
BBX 13 26 1 -6
BITMAP
07E0
0C18
1818
3018
3000
3000
33E0
3430
3818
3018
3018
3018
3018
3018
3018
3018
3018
3018
3018
FE18
0018
0018
0198
0398
0110
00E0
ENDCHAR
STARTCHAR 0268
ENCODING 616
SWIDTH 321 0
DWIDTH 9 0
BBX 8 20 1 0
BITMAP
18
38
18
00
00
00
F8
18
18
18
18
FF
18
18
18
18
18
18
18
FE
ENDCHAR
STARTCHAR 026C
ENCODING 620
SWIDTH 392 0
DWIDTH 11 0
BBX 10 20 1 0
BITMAP
1E00
0600
0600
0600
0600
F600
8E00
8600
C600
7E00
07C0
0600
0600
0600
0600
0600
0600
0600
0600
1FC0
ENDCHAR
STARTCHAR 026D
ENCODING 621
SWIDTH 321 0
DWIDTH 9 0
BBX 9 26 1 -6
BITMAP
F000
3000
3000
3000
3000
3000
3000
3000
3000
3000
3000
3000
3000
3000
3000
3000
3000
3000
3000
3000
3000
3000
3180
1180
1980
0F00
ENDCHAR
STARTCHAR 026E
ENCODING 622
SWIDTH 607 0
DWIDTH 17 0
BBX 15 27 1 -6
BITMAP
1000
F000
3000
3000
3000
3000
3000
3FFE
300C
3018
3030
3070
3060
30C0
3180
33F0
301C
300C
3006
3006
FE06
0006
0C06
1C06
0C0C
0C18
03F0
ENDCHAR
STARTCHAR 026F
ENCODING 623
SWIDTH 892 0
DWIDTH 25 0
BBX 23 14 1 0
BITMAP
FEFE7E
303818
301818
301818
301818
301818
301818
301818
301818
301818
303818
103838
184C58
0F879E
ENDCHAR
STARTCHAR 0270
ENCODING 624
SWIDTH 892 0
DWIDTH 25 0
BBX 23 20 1 -6
BITMAP
FEFE7E
303818
301818
301818
301818
301818
301818
301818
301818
301818
303818
103838
184C58
0F8798
000018
000018
000018
000018
000018
00001E
ENDCHAR
STARTCHAR 0271
ENCODING 625
SWIDTH 892 0
DWIDTH 25 0
BBX 21 20 1 -6
BITMAP
F3E1E0
343630
183418
181818
101818
101818
101818
101818
101818
101818
101818
101818
381818
FEFE18
000018
000018
000198
000398
000130
0000E0
ENDCHAR
STARTCHAR 0272
ENCODING 626
SWIDTH 642 0
DWIDTH 18 0
BBX 18 20 -1 -6
BITMAP
3C7800
0D8E00
060600
060200
040300
040300
040300
040300
040300
040300
040300
040300
040300
041FC0
040000
040000
CC0000
CC0000
8C0000
700000
ENDCHAR
STARTCHAR 0273
ENCODING 627
SWIDTH 642 0
DWIDTH 18 0
BBX 19 20 1 -6
BITMAP
F1E000
363800
181800
180800
100C00
100C00
100C00
100C00
100C00
100C00
100C00
100C00
380C00
FE0C00
000C00
000C00
000CC0
000CE0
000440
000380
ENDCHAR
STARTCHAR 0275
ENCODING 629
SWIDTH 571 0
DWIDTH 16 0
BBX 13 14 2 0
BITMAP
0F80
30E0
6030
C030
C018
C018
FFF8
C018
C018
C038
C030
6060
30E0
0F80
ENDCHAR
STARTCHAR 0279
ENCODING 633
SWIDTH 428 0
DWIDTH 12 0
BBX 11 14 0 0
BITMAP
0FE0
0300
0300
0300
0300
0300
0300
0300
0300
0300
0300
4700
EB80
73E0
ENDCHAR
STARTCHAR 027A
ENCODING 634
SWIDTH 428 0
DWIDTH 12 0
BBX 11 20 0 0
BITMAP
0FE0
0300
0300
0300
0300
0300
0300
0300
0300
0300
0300
0300
0300
0300
0300
0300
0300
4700
EB80
73E0
ENDCHAR
STARTCHAR 027B
ENCODING 635
SWIDTH 428 0
DWIDTH 12 0
BBX 13 20 0 -6
BITMAP
1FC0
0300
0300
0300
0300
0300
0300
0300
0300
0300
0700
C700
CB00
F300
0300
0300
0338
0338
0190
00E0
ENDCHAR
STARTCHAR 027D
ENCODING 637
SWIDTH 392 0
DWIDTH 11 0
BBX 10 19 1 -5
BITMAP
F1C0
36C0
1800
1800
1000
1000
1000
1000
1000
1000
1000
1000
1000
1000
1000
1000
1980
1980
0F00
ENDCHAR
STARTCHAR 027E
ENCODING 638
SWIDTH 357 0
DWIDTH 10 0
BBX 9 14 1 0
BITMAP
0F00
1980
1980
1000
1000
1000
1000
1000
1000
1000
1000
1000
3800
FE00
ENDCHAR
STARTCHAR 0281
ENCODING 641
SWIDTH 535 0
DWIDTH 15 0
BBX 14 14 1 0
BITMAP
FC3C
3030
3070
3060
30C0
31C0
3F80
33C0
3060
3030
3030
3030
3060
FFC0
ENDCHAR
STARTCHAR 0282
ENCODING 642
SWIDTH 464 0
DWIDTH 13 0
BBX 10 20 2 -6
BITMAP
3F80
6380
C080
C080
C000
6000
3C00
0700
0180
80C0
80C0
C0C0
E180
9F00
8000
8000
8C00
9C00
CC00
7800
ENDCHAR
STARTCHAR 0283
ENCODING 643
SWIDTH 428 0
DWIDTH 12 0
BBX 11 26 0 -6
BITMAP
01E0
0360
0600
0600
0600
0600
0600
0600
0600
0600
0600
0600
0600
0600
0600
0600
0600
0600
0600
0600
0600
0600
0600
E400
CC00
7800
ENDCHAR
STARTCHAR 0284
ENCODING 644
SWIDTH 321 0
DWIDTH 9 0
BBX 13 26 -2 -6
BITMAP
01F0
0318
0218
0600
0600
0600
0600
0600
0600
0600
0600
0600
0600
0600
0600
0600
0600
0600
0600
3FE0
0600
0600
6600
E600
4C00
7800
ENDCHAR
STARTCHAR 0288
ENCODING 648
SWIDTH 321 0
DWIDTH 9 0
BBX 9 24 1 -6
BITMAP
1000
1000
3000
3000
FF00
3000
3000
3000
3000
3000
3000
3000
3000
3000
3000
3000
3000
3000
3000
3000
3300
3380
1900
0E00
ENDCHAR
STARTCHAR 0289
ENCODING 649
SWIDTH 607 0
DWIDTH 17 0
BBX 16 14 1 0
BITMAP
F078
3018
3008
3008
3008
FFFF
3008
3008
3008
3018
3018
1838
186C
0F8F
ENDCHAR
STARTCHAR 028A
ENCODING 650
SWIDTH 607 0
DWIDTH 17 0
BBX 14 14 2 0
BITMAP
F8FC
1040
3020
6030
6030
6018
4018
C018
C018
6018
6030
3030
3860
0F80
ENDCHAR
STARTCHAR 028B
ENCODING 651
SWIDTH 535 0
DWIDTH 15 0
BBX 13 15 1 0
BITMAP
0010
F018
3018
3008
3008
3008
3008
3008
3008
3018
3010
3010
3020
1860
0F80
ENDCHAR
STARTCHAR 028C
ENCODING 652
SWIDTH 535 0
DWIDTH 15 0
BBX 15 14 0 0
BITMAP
0100
0380
0380
02C0
04C0
0440
0C60
0860
0830
1030
1030
3018
2018
F87E
ENDCHAR
STARTCHAR 028D
ENCODING 653
SWIDTH 785 0
DWIDTH 22 0
BBX 22 14 0 0
BITMAP
030300
030300
030380
058580
058580
0C88C0
08C8C0
08C8C0
185060
107060
107020
303030
203030
F8FCFC
ENDCHAR
STARTCHAR 028E
ENCODING 654
SWIDTH 535 0
DWIDTH 15 0
BBX 15 20 0 0
BITMAP
0030
0078
00D8
0098
0180
0100
0100
0300
0380
0780
04C0
04C0
0C60
0860
0820
1030
1030
3018
3018
F87E
ENDCHAR
STARTCHAR 0290
ENCODING 656
SWIDTH 571 0
DWIDTH 16 0
BBX 16 20 1 -6
BITMAP
7FE0
40C0
C1C0
8180
0300
0600
0600
0C00
1800
3820
3020
6020
C060
FFE0
0020
0020
0026
0027
0012
001C
ENDCHAR
STARTCHAR 0291
ENCODING 657
SWIDTH 500 0
DWIDTH 14 0
BBX 13 16 1 -2
BITMAP
7FE0
40C0
C1C0
8180
0300
0600
0600
0C00
1800
3870
3188
6308
C608
FFF0
0C00
0800
ENDCHAR
STARTCHAR 0292
ENCODING 658
SWIDTH 500 0
DWIDTH 14 0
BBX 12 20 1 -6
BITMAP
7FF0
6060
40C0
4180
0300
0600
0C00
1F80
30C0
0060
0060
0030
0030
0030
0030
E030
E060
C060
61C0
3F00
ENDCHAR
STARTCHAR 0294
ENCODING 660
SWIDTH 500 0
DWIDTH 14 0
BBX 12 20 1 0
BITMAP
1F80
60E0
4070
E030
6030
0030
0030
0060
01C0
0600
0600
0600
0600
0600
0600
0600
0600
0600
0600
3F80
ENDCHAR
STARTCHAR 0295
ENCODING 661
SWIDTH 500 0
DWIDTH 14 0
BBX 12 20 1 0
BITMAP
1F80
3060
6030
C070
C070
C000
6000
6000
3800
0600
0200
0200
0200
0200
0200
0200
0200
0600
0700
1FC0
ENDCHAR
STARTCHAR 0298
ENCODING 664
SWIDTH 642 0
DWIDTH 18 0
BBX 14 14 2 0
BITMAP
0F80
3860
6010
4008
800C
8304
8784
8784
8304
800C
4008
6010
3060
0FC0
ENDCHAR
STARTCHAR 029D
ENCODING 669
SWIDTH 321 0
DWIDTH 9 0
BBX 10 25 -2 -5
BITMAP
0700
0700
0700
0000
0000
0000
1E00
0600
0600
0600
0600
0600
0600
0600
0600
0600
0600
0600
0600
0600
7E00
8700
86C0
C600
7C00
ENDCHAR
STARTCHAR 02A1
ENCODING 673
SWIDTH 500 0
DWIDTH 14 0
BBX 12 20 1 0
BITMAP
1F80
60E0
C070
E030
6030
0030
0030
0060
00C0
0700
0600
0600
3FC0
0600
0600
0600
0600
0600
0600
3F80
ENDCHAR
STARTCHAR 02A2
ENCODING 674
SWIDTH 500 0
DWIDTH 14 0
BBX 12 20 1 0
BITMAP
1F80
3060
6030
C070
C070
C000
6000
6000
3000
0E00
0200
0200
3FC0
0200
0200
0200
0200
0600
0700
1FC0
ENDCHAR
STARTCHAR 02BB
ENCODING 699
SWIDTH 1000 0
DWIDTH 28 0
BBX 3 7 22 17
BITMAP
20
40
C0
C0
E0
E0
60
ENDCHAR
STARTCHAR 02BC
ENCODING 700
SWIDTH 1000 0
DWIDTH 28 0
BBX 3 7 3 15
BITMAP
C0
E0
E0
60
40
C0
80
ENDCHAR
STARTCHAR 02C6
ENCODING 710
SWIDTH 500 0
DWIDTH 14 0
BBX 6 3 4 16
BITMAP
30
78
CC
ENDCHAR
STARTCHAR 02C7
ENCODING 711
SWIDTH 500 0
DWIDTH 14 0
BBX 6 3 4 17
BITMAP
84
78
30
ENDCHAR
STARTCHAR 02C8
ENCODING 712
SWIDTH 178 0
DWIDTH 5 0
BBX 1 11 2 10
BITMAP
80
80
80
80
80
80
80
80
80
80
80
ENDCHAR
STARTCHAR 02CC
ENCODING 716
SWIDTH 178 0
DWIDTH 5 0
BBX 1 11 2 -5
BITMAP
80
80
80
80
80
80
80
80
80
80
80
ENDCHAR
STARTCHAR 02D0
ENCODING 720
SWIDTH 285 0
DWIDTH 8 0
BBX 4 13 2 1
BITMAP
F0
60
40
00
00
00
00
00
00
00
40
60
F0
ENDCHAR
STARTCHAR 02D1
ENCODING 721
SWIDTH 285 0
DWIDTH 8 0
BBX 4 3 2 11
BITMAP
F0
60
40
ENDCHAR
STARTCHAR 02D8
ENCODING 728
SWIDTH 500 0
DWIDTH 14 0
BBX 6 2 4 18
BITMAP
84
78
ENDCHAR
STARTCHAR 02D9
ENCODING 729
SWIDTH 500 0
DWIDTH 14 0
BBX 2 3 6 17
BITMAP
C0
C0
C0
ENDCHAR
STARTCHAR 02DB
ENCODING 731
SWIDTH 500 0
DWIDTH 14 0
BBX 6 7 4 -7
BITMAP
18
30
60
60
C0
44
78
ENDCHAR
STARTCHAR 02DC
ENCODING 732
SWIDTH 500 0
DWIDTH 14 0
BBX 7 3 4 17
BITMAP
E0
B2
0C
ENDCHAR
STARTCHAR 02DD
ENCODING 733
SWIDTH 500 0
DWIDTH 14 0
BBX 7 3 4 18
BITMAP
66
4C
98
ENDCHAR
STARTCHAR 02DE
ENCODING 734
SWIDTH 500 0
DWIDTH 14 0
BBX 7 7 4 0
BITMAP
30
D0
10
30
32
34
1C
ENDCHAR
STARTCHAR 02E5
ENCODING 741
SWIDTH 500 0
DWIDTH 14 0
BBX 7 19 1 1
BITMAP
FE
06
06
06
06
06
06
06
06
06
06
06
06
06
06
06
06
06
06
ENDCHAR
STARTCHAR 02E6
ENCODING 742
SWIDTH 500 0
DWIDTH 14 0
BBX 7 20 1 0
BITMAP
06
06
06
06
06
FE
06
06
06
06
06
06
06
06
06
06
06
06
06
06
ENDCHAR
STARTCHAR 02E7
ENCODING 743
SWIDTH 500 0
DWIDTH 14 0
BBX 7 19 1 1
BITMAP
06
06
06
06
06
06
06
06
06
FE
06
06
06
06
06
06
06
06
06
ENDCHAR
STARTCHAR 02E8
ENCODING 744
SWIDTH 500 0
DWIDTH 14 0
BBX 7 20 1 0
BITMAP
06
06
06
06
06
06
06
06
06
06
06
06
06
06
FE
06
06
06
06
06
ENDCHAR
STARTCHAR 02E9
ENCODING 745
SWIDTH 500 0
DWIDTH 14 0
BBX 7 19 1 0
BITMAP
06
06
06
06
06
06
06
06
06
06
06
06
06
06
06
06
06
06
FE
ENDCHAR
STARTCHAR 0300
ENCODING 768
SWIDTH 500 0
DWIDTH 14 0
BBX 4 3 4 17
BITMAP
C0
60
30
ENDCHAR
STARTCHAR 0301
ENCODING 769
SWIDTH 500 0
DWIDTH 14 0
BBX 4 3 6 17
BITMAP
30
60
C0
ENDCHAR
STARTCHAR 0302
ENCODING 770
SWIDTH 500 0
DWIDTH 14 0
BBX 6 3 4 16
BITMAP
30
78
CC
ENDCHAR
STARTCHAR 0303
ENCODING 771
SWIDTH 500 0
DWIDTH 14 0
BBX 7 3 4 17
BITMAP
E0
B2
0C
ENDCHAR
STARTCHAR 0304
ENCODING 772
SWIDTH 500 0
DWIDTH 14 0
BBX 8 1 3 18
BITMAP
FF
ENDCHAR
STARTCHAR 0305
ENCODING 773
SWIDTH 500 0
DWIDTH 14 0
BBX 8 1 3 18
BITMAP
FF
ENDCHAR
STARTCHAR 0306
ENCODING 774
SWIDTH 500 0
DWIDTH 14 0
BBX 6 2 4 18
BITMAP
84
78
ENDCHAR
STARTCHAR 0308
ENCODING 776
SWIDTH 500 0
DWIDTH 14 0
BBX 8 3 3 17
BITMAP
66
E7
67
ENDCHAR
STARTCHAR 030B
ENCODING 779
SWIDTH 500 0
DWIDTH 14 0
BBX 7 3 4 18
BITMAP
66
4C
98
ENDCHAR
STARTCHAR 030C
ENCODING 780
SWIDTH 500 0
DWIDTH 14 0
BBX 6 3 4 17
BITMAP
84
78
30
ENDCHAR
STARTCHAR 030F
ENCODING 783
SWIDTH 500 0
DWIDTH 14 0
BBX 7 3 3 18
BITMAP
CC
64
32
ENDCHAR
STARTCHAR 0318
ENCODING 792
SWIDTH 500 0
DWIDTH 14 0
BBX 4 7 4 -8
BITMAP
10
10
10
F0
10
10
10
ENDCHAR
STARTCHAR 0319
ENCODING 793
SWIDTH 500 0
DWIDTH 14 0
BBX 4 7 6 -8
BITMAP
80
80
80
F0
80
80
80
ENDCHAR
STARTCHAR 031A
ENCODING 794
SWIDTH 500 0
DWIDTH 14 0
BBX 6 7 2 13
BITMAP
FC
0C
0C
0C
0C
0C
0C
ENDCHAR
STARTCHAR 031C
ENCODING 796
SWIDTH 500 0
DWIDTH 14 0
BBX 3 6 5 -7
BITMAP
20
40
C0
80
C0
60
ENDCHAR
STARTCHAR 031D
ENCODING 797
SWIDTH 500 0
DWIDTH 14 0
BBX 8 4 3 -5
BITMAP
18
18
18
FF
ENDCHAR
STARTCHAR 031E
ENCODING 798
SWIDTH 500 0
DWIDTH 14 0
BBX 8 4 3 -6
BITMAP
FF
18
18
18
ENDCHAR
STARTCHAR 031F
ENCODING 799
SWIDTH 500 0
DWIDTH 14 0
BBX 8 7 3 -8
BITMAP
18
18
18
FF
18
18
18
ENDCHAR
STARTCHAR 0320
ENCODING 800
SWIDTH 500 0
DWIDTH 14 0
BBX 8 1 3 -3
BITMAP
FF
ENDCHAR
STARTCHAR 0324
ENCODING 804
SWIDTH 500 0
DWIDTH 14 0
BBX 8 3 3 -3
BITMAP
67
E7
67
ENDCHAR
STARTCHAR 0325
ENCODING 805
SWIDTH 500 0
DWIDTH 14 0
BBX 4 4 5 -5
BITMAP
60
90
90
60
ENDCHAR
STARTCHAR 0327
ENCODING 807
SWIDTH 500 0
DWIDTH 14 0
BBX 6 7 4 -7
BITMAP
20
60
38
0C
0C
F8
80
ENDCHAR
STARTCHAR 0329
ENCODING 809
SWIDTH 500 0
DWIDTH 14 0
BBX 2 7 6 -8
BITMAP
C0
C0
C0
C0
C0
C0
C0
ENDCHAR
STARTCHAR 032A
ENCODING 810
SWIDTH 500 0
DWIDTH 14 0
BBX 8 4 3 -6
BITMAP
FF
C3
C3
C3
ENDCHAR
STARTCHAR 032C
ENCODING 812
SWIDTH 500 0
DWIDTH 14 0
BBX 6 3 4 -4
BITMAP
CC
78
30
ENDCHAR
STARTCHAR 032F
ENCODING 815
SWIDTH 500 0
DWIDTH 14 0
BBX 6 3 4 -4
BITMAP
78
84
84
ENDCHAR
STARTCHAR 0330
ENCODING 816
SWIDTH 500 0
DWIDTH 14 0
BBX 8 2 3 -3
BITMAP
71
8F
ENDCHAR
STARTCHAR 0332
ENCODING 818
SWIDTH 500 0
DWIDTH 14 0
BBX 14 1 0 -3
BITMAP
FFFC
ENDCHAR
STARTCHAR 0334
ENCODING 820
SWIDTH 500 0
DWIDTH 14 0
BBX 7 2 4 7
BITMAP
E2
1C
ENDCHAR
STARTCHAR 0336
ENCODING 822
SWIDTH 892 0
DWIDTH 25 0
BBX 25 1 0 10
BITMAP
FFFFFF80
ENDCHAR
STARTCHAR 0339
ENCODING 825
SWIDTH 500 0
DWIDTH 14 0
BBX 3 6 6 -7
BITMAP
80
40
20
20
60
C0
ENDCHAR
STARTCHAR 033A
ENCODING 826
SWIDTH 500 0
DWIDTH 14 0
BBX 8 4 3 -6
BITMAP
C3
C3
C3
FF
ENDCHAR
STARTCHAR 033B
ENCODING 827
SWIDTH 500 0
DWIDTH 14 0
BBX 8 4 3 -6
BITMAP
FF
C3
C3
FF
ENDCHAR
STARTCHAR 033C
ENCODING 828
SWIDTH 500 0
DWIDTH 14 0
BBX 8 2 3 -3
BITMAP
7E
99
ENDCHAR
STARTCHAR 033D
ENCODING 829
SWIDTH 500 0
DWIDTH 14 0
BBX 6 5 4 15
BITMAP
CC
78
30
78
CC
ENDCHAR
STARTCHAR 0361
ENCODING 865
SWIDTH 0 0
DWIDTH 0 0
BBX 14 3 -7 22
BITMAP
0FC0
7038
8004
ENDCHAR
STARTCHAR 0391
ENCODING 913
SWIDTH 1000 0
DWIDTH 28 0
BBX 22 20 3 2
BITMAP
002000
003000
003000
005800
005800
008C00
008C00
018E00
010600
030600
020300
020300
07FF80
040180
0C01C0
0800C0
1800C0
100060
300070
FE03FC
ENDCHAR
STARTCHAR 0392
ENCODING 914
SWIDTH 1000 0
DWIDTH 28 0
BBX 17 19 5 2
BITMAP
FFF800
180E00
180600
180300
180300
180300
180700
180600
181C00
1FF000
180E00
180380
180180
180180
180180
180180
180180
180700
FFFC00
ENDCHAR
STARTCHAR 0393
ENCODING 915
SWIDTH 1000 0
DWIDTH 28 0
BBX 16 19 6 2
BITMAP
FFFF
3807
3003
3001
3001
3001
3000
3000
3000
3000
3000
3000
3000
3000
3000
3000
3000
3800
FE00
ENDCHAR
STARTCHAR 0394
ENCODING 916
SWIDTH 1000 0
DWIDTH 28 0
BBX 18 20 5 2
BITMAP
00C000
00C000
01E000
016000
036000
023000
023000
041800
041800
080C00
080C00
100600
100600
300300
200300
200300
400180
400180
FFFFC0
FFFFC0
ENDCHAR
STARTCHAR 0395
ENCODING 917
SWIDTH 1000 0
DWIDTH 28 0
BBX 17 19 5 2
BITMAP
FFFF00
380300
180100
180100
180100
180000
180800
180800
181800
1FF800
181800
180800
180800
180000
180080
180080
180180
380380
FFFF80
ENDCHAR
STARTCHAR 0396
ENCODING 918
SWIDTH 1000 0
DWIDTH 28 0
BBX 16 19 6 2
BITMAP
7FFE
7006
600C
401C
4038
0030
0060
00C0
01C0
0180
0300
0600
0E00
1C01
1801
3001
6003
E007
FFFF
ENDCHAR
STARTCHAR 0397
ENCODING 919
SWIDTH 1000 0
DWIDTH 28 0
BBX 20 19 4 2
BITMAP
FE07F0
3801C0
180180
180180
180180
180180
180180
180180
180180
1FFF80
180180
180180
180180
180180
180180
180180
180180
3801C0
FE07F0
ENDCHAR
STARTCHAR 0398
ENCODING 920
SWIDTH 1000 0
DWIDTH 28 0
BBX 18 21 5 0
BITMAP
03F000
0E1C00
180600
300300
600180
600180
E001C0
C804C0
C804C0
CFFCC0
CFFCC0
C804C0
C804C0
C000C0
E001C0
600180
600380
300300
180600
0E1C00
03F000
ENDCHAR
STARTCHAR 0399
ENCODING 921
SWIDTH 1000 0
DWIDTH 28 0
BBX 8 19 10 2
BITMAP
FF
18
18
18
18
18
18
18
18
18
18
18
18
18
18
18
18
18
FF
ENDCHAR
STARTCHAR 039A
ENCODING 922
SWIDTH 1000 0
DWIDTH 28 0
BBX 20 19 5 2
BITMAP
FE1FC0
300600
300C00
301800
303000
306000
30C000
318000
338000
36C000
386000
303000
303800
301C00
300E00
300600
300300
300380
FE0FF0
ENDCHAR
STARTCHAR 039B
ENCODING 923
SWIDTH 1000 0
DWIDTH 28 0
BBX 20 20 4 2
BITMAP
006000
006000
006000
00B000
00B000
01B800
011800
011800
020C00
020C00
060E00
040600
0C0600
080300
080300
100380
100180
300180
3001C0
FE0FF0
ENDCHAR
STARTCHAR 039C
ENCODING 924
SWIDTH 1000 0
DWIDTH 28 0
BBX 24 19 2 2
BITMAP
FC001F
1C0038
1C0038
160078
160058
130058
130098
130098
118118
118118
10C118
10C218
106218
106418
106418
103818
103818
101818
FC107F
ENDCHAR
STARTCHAR 039D
ENCODING 925
SWIDTH 1000 0
DWIDTH 28 0
BBX 20 20 4 1
BITMAP
F803F0
3C00C0
2C0040
260040
270040
238040
218040
20C040
20E040
207040
203840
201840
200C40
200E40
200740
2003C0
2001C0
2001C0
FC00C0
000040
ENDCHAR
STARTCHAR 039E
ENCODING 926
SWIDTH 1000 0
DWIDTH 28 0
BBX 16 19 6 2
BITMAP
7FFE
7FFE
4002
4002
4002
0000
0000
1008
1008
1FF8
1FF8
1008
1008
0000
0000
8001
8001
FFFF
FFFF
ENDCHAR
STARTCHAR 039F
ENCODING 927
SWIDTH 1000 0
DWIDTH 28 0
BBX 18 21 5 0
BITMAP
03F000
0E1C00
180600
300300
600180
600180
E001C0
C000C0
C000C0
C000C0
C000C0
C000C0
C000C0
C000C0
E001C0
600180
600380
300700
180600
0E1C00
03F000
ENDCHAR
STARTCHAR 03A0
ENCODING 928
SWIDTH 1000 0
DWIDTH 28 0
BBX 20 19 4 2
BITMAP
FFFFF0
3801C0
180180
180180
180180
180180
180180
180180
180180
180180
180180
180180
180180
180180
180180
180180
180180
3801C0
FE07F0
ENDCHAR
STARTCHAR 03A1
ENCODING 929
SWIDTH 1000 0
DWIDTH 28 0
BBX 17 19 6 2
BITMAP
FFF800
380E00
180700
180300
180380
180380
180380
180300
180700
181E00
1FF000
180000
180000
180000
180000
180000
180000
380000
FE0000
ENDCHAR
STARTCHAR 03A3
ENCODING 931
SWIDTH 1000 0
DWIDTH 28 0
BBX 17 19 5 2
BITMAP
FFFF80
700380
380180
1C0080
0E0080
070000
038000
01C000
006000
004000
008000
010000
020000
040080
080080
100080
200180
7FFF80
FFFF80
ENDCHAR
STARTCHAR 03A4
ENCODING 932
SWIDTH 1000 0
DWIDTH 28 0
BBX 18 19 5 2
BITMAP
FFFFC0
E0C0C0
80C040
80C040
80C040
80C040
00C000
00C000
00C000
00C000
00C000
00C000
00C000
00C000
00C000
00C000
00C000
00C000
07F800
ENDCHAR
STARTCHAR 03A5
ENCODING 933
SWIDTH 1000 0
DWIDTH 28 0
BBX 18 19 5 2
BITMAP
1E1E00
3F3F80
63F180
C1E0C0
80C040
00C000
00C000
00C000
00C000
00C000
00C000
00C000
00C000
00C000
00C000
00C000
00C000
00C000
07F800
ENDCHAR
STARTCHAR 03A6
ENCODING 934
SWIDTH 1000 0
DWIDTH 28 0
BBX 18 19 5 2
BITMAP
07F000
00C000
00C000
07F800
18C600
70C300
60C180
C0C0C0
C0C0C0
C0C0C0
C0C0C0
C0C0C0
60C180
70C380
18C600
07F800
00C000
00C000
07F000
ENDCHAR
STARTCHAR 03A7
ENCODING 935
SWIDTH 1000 0
DWIDTH 28 0
BBX 21 19 4 2
BITMAP
FF0FE0
380380
0C0300
0E0200
070400
030800
019800
00D000
00E000
007000
00B000
011800
030C00
060E00
040700
080300
100180
3001C0
FE07F8
ENDCHAR
STARTCHAR 03A8
ENCODING 936
SWIDTH 1000 0
DWIDTH 28 0
BBX 22 19 3 2
BITMAP
70FC38
F8307C
983064
183040
083040
083040
083040
0830C0
0C30C0
0C30C0
0C30C0
063180
023300
01FE00
003000
003000
003000
003000
01FE00
ENDCHAR
STARTCHAR 03A9
ENCODING 937
SWIDTH 1000 0
DWIDTH 28 0
BBX 18 19 5 2
BITMAP
03F000
0E1C00
180600
300300
600180
600180
600180
E001C0
E001C0
600180
600180
600180
300300
300300
180600
861840
821040
FE1FC0
FE1FC0
ENDCHAR
STARTCHAR 03B1
ENCODING 945
SWIDTH 1000 0
DWIDTH 28 0
BBX 16 15 6 0
BITMAP
03C6
0664
0C6C
1828
3028
3030
6030
6020
6060
C060
C0A1
C0A1
4132
6232
3C1C
ENDCHAR
STARTCHAR 03B2
ENCODING 946
SWIDTH 1000 0
DWIDTH 28 0
BBX 14 24 6 -3
BITMAP
01E0
03F8
0718
060C
0C0C
080C
0808
1818
17B0
17C0
3020
3030
2030
2010
2018
6010
6030
6030
6060
58C0
C780
C000
C000
C000
ENDCHAR
STARTCHAR 03B3
ENCODING 947
SWIDTH 1000 0
DWIDTH 28 0
BBX 15 18 6 -3
BITMAP
3806
7C0C
8C08
0618
0230
0220
0260
0140
01C0
0180
0180
0100
0100
0300
0300
0300
0300
0200
ENDCHAR
STARTCHAR 03B4
ENCODING 948
SWIDTH 1000 0
DWIDTH 28 0
BBX 12 21 8 0
BITMAP
1F80
30E0
3030
1000
1800
0C00
0200
0D80
3040
6060
4060
C060
C060
C060
8060
8060
80C0
C0C0
C180
6300
3E00
ENDCHAR
STARTCHAR 03B5
ENCODING 949
SWIDTH 1000 0
DWIDTH 28 0
BBX 11 15 8 0
BITMAP
1F80
3040
6020
4000
4000
2F00
3F00
4000
C000
C000
8000
C020
C040
6180
3E00
ENDCHAR
STARTCHAR 03B6
ENCODING 950
SWIDTH 1000 0
DWIDTH 28 0
BBX 13 24 7 -2
BITMAP
0C38
1870
18E0
1BC0
0600
0400
0800
1800
3000
2000
6000
4000
4000
C000
C000
C000
6000
7800
1F00
07C0
00C0
0C40
0C40
0780
ENDCHAR
STARTCHAR 03B7
ENCODING 951
SWIDTH 1000 0
DWIDTH 28 0
BBX 13 17 6 -2
BITMAP
38F0
CB18
0A08
0C08
0C08
0C18
0818
1810
1810
3030
3030
3030
6060
0060
0060
0060
00C0
ENDCHAR
STARTCHAR 03B8
ENCODING 952
SWIDTH 1000 0
DWIDTH 28 0
BBX 13 21 7 0
BITMAP
01E0
0630
0C30
0818
1818
3018
3018
6018
6018
7FF8
6018
6030
4030
C030
C070
4060
4060
60C0
6180
3300
1E00
ENDCHAR
STARTCHAR 03B9
ENCODING 953
SWIDTH 1000 0
DWIDTH 28 0
BBX 7 14 10 0
BITMAP
38
30
30
60
60
40
C0
C0
C0
80
82
84
C4
78
ENDCHAR
STARTCHAR 03BA
ENCODING 954
SWIDTH 1000 0
DWIDTH 28 0
BBX 14 15 7 0
BITMAP
0C1C
183C
18E0
1980
1200
3400
3F00
3300
6300
6100
6100
C108
C108
C190
00E0
ENDCHAR
STARTCHAR 03BB
ENCODING 955
SWIDTH 1000 0
DWIDTH 28 0
BBX 15 21 6 0
BITMAP
0700
0F80
1880
0080
0080
0080
0080
0080
0180
0180
0380
0680
0680
0C80
1880
1880
30C2
60C2
6044
C078
0030
ENDCHAR
STARTCHAR 03BC
ENCODING 956
SWIDTH 1000 0
DWIDTH 28 0
BBX 17 18 5 -3
BITMAP
060400
060600
060400
0C0C00
080C00
080800
181800
101800
101000
301000
303080
387100
28D100
6F8E00
670E00
400000
400000
C00000
ENDCHAR
STARTCHAR 03BD
ENCODING 957
SWIDTH 1000 0
DWIDTH 28 0
BBX 14 14 7 1
BITMAP
701C
981C
0804
0804
0C04
0C0C
0C08
0818
0830
18E0
19C0
1F00
1E00
3800
ENDCHAR
STARTCHAR 03BE
ENCODING 958
SWIDTH 1000 0
DWIDTH 28 0
BBX 11 25 8 -3
BITMAP
0800
10E0
11C0
0E00
0400
0800
1800
1000
1000
11C0
0F80
1800
3000
6000
4000
C000
C000
C000
7000
3F00
0780
0080
3080
3980
1F00
ENDCHAR
STARTCHAR 03BF
ENCODING 959
SWIDTH 1000 0
DWIDTH 28 0
BBX 12 15 8 0
BITMAP
0780
18C0
3060
6020
6030
6030
C030
C030
C030
C030
4060
6060
60C0
3180
1F00
ENDCHAR
STARTCHAR 03C0
ENCODING 960
SWIDTH 1000 0
DWIDTH 28 0
BBX 15 16 7 0
BITMAP
0002
7FFC
C440
0840
08C0
0880
0880
1080
1080
3180
3180
2188
6188
6198
C0F0
0060
ENDCHAR
STARTCHAR 03C1
ENCODING 961
SWIDTH 1000 0
DWIDTH 28 0
BBX 14 17 6 -2
BITMAP
01E0
0638
0C18
180C
180C
100C
300C
300C
3818
6818
6C30
67C0
4000
4000
C000
C000
C000
ENDCHAR
STARTCHAR 03C2
ENCODING 962
SWIDTH 500 0
DWIDTH 14 0
BBX 12 20 1 -6
BITMAP
0F80
1860
3030
6030
6070
6030
6000
6000
7000
3000
1800
0E00
0700
0300
0180
0180
C180
E180
6300
3E00
ENDCHAR
STARTCHAR 03C3
ENCODING 963
SWIDTH 1000 0
DWIDTH 28 0
BBX 14 15 8 0
BITMAP
0FFC
1060
3060
6030
6030
4030
C030
C030
C030
C030
6060
6060
60C0
3180
1F00
ENDCHAR
STARTCHAR 03C4
ENCODING 964
SWIDTH 1000 0
DWIDTH 28 0
BBX 14 16 7 0
BITMAP
0004
7FF8
C100
8200
0200
0600
0400
0C00
0C00
0800
1800
1820
1840
1840
0C80
0700
ENDCHAR
STARTCHAR 03C5
ENCODING 965
SWIDTH 1000 0
DWIDTH 28 0
BBX 14 15 6 0
BITMAP
3818
4C1C
8C1C
0C0C
0C04
0804
1804
1804
3004
3004
3008
3008
3010
1860
0F80
ENDCHAR
STARTCHAR 03C6
ENCODING 966
SWIDTH 1000 0
DWIDTH 28 0
BBX 14 22 7 -2
BITMAP
0060
0040
0040
00C0
0080
07C0
18B0
3198
610C
C10C
C10C
C20C
C20C
C20C
C20C
C418
6430
1FC0
0C00
0800
0800
1800
ENDCHAR
STARTCHAR 03C7
ENCODING 967
SWIDTH 1000 0
DWIDTH 28 0
BBX 13 18 7 -3
BITMAP
3818
7C18
8C30
0660
0660
02C0
0280
0380
0300
0700
0500
0D00
1900
3100
3188
6188
C0F8
C070
ENDCHAR
STARTCHAR 03C8
ENCODING 968
SWIDTH 1000 0
DWIDTH 28 0
BBX 15 23 7 -3
BITMAP
0060
0060
0060
0040
00C0
08C8
308C
6084
4086
C106
C106
8106
8106
8206
C20C
C21C
6638
3DE0
0600
0C00
0C00
1800
1800
ENDCHAR
STARTCHAR 03C9
ENCODING 969
SWIDTH 1000 0
DWIDTH 28 0
BBX 18 15 5 0
BITMAP
020100
0C0100
180180
300080
2020C0
6060C0
4060C0
C0E0C0
C0C0C0
C0C080
C08180
E18100
634300
7E6600
1C3C00
ENDCHAR
STARTCHAR 0401
ENCODING 1025
SWIDTH 1000 0
DWIDTH 28 0
BBX 17 23 5 2
BITMAP
0C0C00
0C0C00
0C0C00
000000
FFFF00
380300
180100
180100
180100
180000
180800
180800
181800
1FF800
181800
180800
180800
180000
180080
180080
180180
380380
FFFF80
ENDCHAR
STARTCHAR 0410
ENCODING 1040
SWIDTH 1000 0
DWIDTH 28 0
BBX 22 20 3 2
BITMAP
002000
003000
003000
005800
005800
008C00
008C00
018E00
010600
030600
020300
020300
07FF80
040180
0C01C0
0800C0
1800C0
100060
300070
FE03FC
ENDCHAR
STARTCHAR 0411
ENCODING 1041
SWIDTH 1000 0
DWIDTH 28 0
BBX 17 19 5 2
BITMAP
FFFF00
180700
180100
180100
180100
180100
180000
180000
180000
1FF800
180700
180380
180180
180180
180180
180180
180380
180700
FFFC00
ENDCHAR
STARTCHAR 0412
ENCODING 1042
SWIDTH 1000 0
DWIDTH 28 0
BBX 17 19 5 2
BITMAP
FFF800
180E00
180600
180300
180300
180300
180700
180600
181C00
1FF000
180E00
180380
180180
180180
180180
180180
180180
180700
FFFC00
ENDCHAR
STARTCHAR 0413
ENCODING 1043
SWIDTH 1000 0
DWIDTH 28 0
BBX 16 19 6 2
BITMAP
FFFF
3807
3003
3001
3001
3001
3000
3000
3000
3000
3000
3000
3000
3000
3000
3000
3000
3800
FE00
ENDCHAR
STARTCHAR 0414
ENCODING 1044
SWIDTH 1000 0
DWIDTH 28 0
BBX 20 23 4 -2
BITMAP
1FFFE0
020380
020180
020180
020180
020180
020180
060180
040180
040180
040180
040180
080180
080180
180180
100180
300180
200380
FFFFF0
C00030
800030
800010
800010
ENDCHAR
STARTCHAR 0415
ENCODING 1045
SWIDTH 1000 0
DWIDTH 28 0
BBX 17 19 5 2
BITMAP
FFFF00
380300
180100
180100
180100
180000
180800
180800
181800
1FF800
181800
180800
180800
180000
180080
180080
180180
380380
FFFF80
ENDCHAR
STARTCHAR 0416
ENCODING 1046
SWIDTH 1000 0
DWIDTH 28 0
BBX 26 19 1 2
BITMAP
383F0700
740C0B00
340C0B00
020C1000
020C1000
020C1000
010C2000
008C4000
004C8000
00FFC000
00CCC000
018C6000
030C3000
070C3800
060C1800
0C0C0C00
1C0C0E00
380C0700
FE3F1FC0
ENDCHAR
STARTCHAR 0417
ENCODING 1047
SWIDTH 1000 0
DWIDTH 28 0
BBX 14 21 7 0
BITMAP
0FC0
7830
6018
4018
400C
001C
0018
0018
0070
0F80
0070
0018
000C
000C
800C
800C
C00C
C01C
6038
3070
0FC0
ENDCHAR
STARTCHAR 0418
ENCODING 1048
SWIDTH 1000 0
DWIDTH 28 0
BBX 20 19 4 2
BITMAP
FE07F0
3801C0
180180
180180
180180
180780
180D80
181180
182180
184180
188180
190180
1E0180
1C0180
180180
180180
180180
3801C0
FE07F0
ENDCHAR
STARTCHAR 0419
ENCODING 1049
SWIDTH 1000 0
DWIDTH 28 0
BBX 20 22 4 2
BITMAP
030C00
030C00
01F800
FE07F0
3801C0
180180
180180
180180
180780
180D80
181180
182180
184180
188180
190180
1E0180
1C0180
180180
180180
180180
3801C0
FE07F0
ENDCHAR
STARTCHAR 041A
ENCODING 1050
SWIDTH 1000 0
DWIDTH 28 0
BBX 20 19 5 2
BITMAP
FE0780
300DC0
3009C0
3019C0
301000
303000
302000
30C000
3F8000
30C000
306000
303000
303800
301C00
300E00
300600
300300
300380
FE0FF0
ENDCHAR
STARTCHAR 041B
ENCODING 1051
SWIDTH 1000 0
DWIDTH 28 0
BBX 20 21 3 0
BITMAP
03FFF0
00C0C0
0080C0
0080C0
0080C0
0080C0
0080C0
0080C0
0080C0
0080C0
0080C0
0080C0
0080C0
0080C0
6080C0
E180C0
8100C0
8100C0
C307F0
460000
3C0000
ENDCHAR
STARTCHAR 041C
ENCODING 1052
SWIDTH 1000 0
DWIDTH 28 0
BBX 24 19 2 2
BITMAP
7E003E
0E0070
0E0070
0B00B0
0B0090
198098
198118
118118
10C218
10C218
106418
106418
106418
103818
103818
101018
101008
30001C
FE007F
ENDCHAR
STARTCHAR 041D
ENCODING 1053
SWIDTH 1000 0
DWIDTH 28 0
BBX 20 19 4 2
BITMAP
FE07F0
3801C0
180180
180180
180180
180180
180180
180180
180180
1FFF80
180180
180180
180180
180180
180180
180180
180180
3801C0
FE07F0
ENDCHAR
STARTCHAR 041E
ENCODING 1054
SWIDTH 1000 0
DWIDTH 28 0
BBX 18 21 5 0
BITMAP
03F000
0E1C00
180600
300300
600180
600180
E001C0
C000C0
C000C0
C000C0
C000C0
C000C0
C000C0
C000C0
E001C0
600180
600380
300700
180600
0E1C00
03F000
ENDCHAR
STARTCHAR 041F
ENCODING 1055
SWIDTH 1000 0
DWIDTH 28 0
BBX 20 19 4 2
BITMAP
FFFFF0
3801C0
180180
180180
180180
180180
180180
180180
180180
180180
180180
180180
180180
180180
180180
180180
180180
3801C0
FE07F0
ENDCHAR
STARTCHAR 0420
ENCODING 1056
SWIDTH 1000 0
DWIDTH 28 0
BBX 17 19 6 2
BITMAP
FFF800
380E00
180700
180300
180380
180380
180380
180300
180700
181E00
1FF000
180000
180000
180000
180000
180000
180000
380000
FE0000
ENDCHAR
STARTCHAR 0421
ENCODING 1057
SWIDTH 1000 0
DWIDTH 28 0
BBX 18 21 5 0
BITMAP
01FC00
060780
180180
300080
200080
600000
600000
C00000
C00000
C00000
C00000
C00000
C00000
C00040
E00040
600040
7000C0
3800C0
1C0180
0E0700
01FC00
ENDCHAR
STARTCHAR 0422
ENCODING 1058
SWIDTH 1000 0
DWIDTH 28 0
BBX 18 19 5 2
BITMAP
FFFFC0
E0C0C0
80C040
80C040
80C040
80C040
00C000
00C000
00C000
00C000
00C000
00C000
00C000
00C000
00C000
00C000
00C000
00C000
07F800
ENDCHAR
STARTCHAR 0423
ENCODING 1059
SWIDTH 1000 0
DWIDTH 28 0
BBX 19 21 5 0
BITMAP
FF0FE0
380300
180200
0C0200
0C0400
060400
060C00
030800
030800
019000
01D000
00E000
00E000
004000
004000
608000
708000
610000
410000
620000
3C0000
ENDCHAR
STARTCHAR 0424
ENCODING 1060
SWIDTH 1000 0
DWIDTH 28 0
BBX 18 19 5 2
BITMAP
07F000
00C000
00C000
07F800
18C600
70C300
60C180
C0C0C0
C0C0C0
C0C0C0
C0C0C0
C0C0C0
60C180
70C380
18C600
07F800
00C000
00C000
07F000
ENDCHAR
STARTCHAR 0425
ENCODING 1061
SWIDTH 1000 0
DWIDTH 28 0
BBX 21 19 4 2
BITMAP
FF0FE0
380380
0C0300
0E0200
070400
030800
019800
00D000
00E000
007000
00B000
011800
030C00
060E00
040700
080300
100180
3001C0
FE07F8
ENDCHAR
STARTCHAR 0426
ENCODING 1062
SWIDTH 1000 0
DWIDTH 28 0
BBX 20 23 4 -2
BITMAP
FE0FE0
380180
300180
300180
300180
300180
300180
300180
300180
300180
300180
300180
300180
300180
300180
300180
300180
380380
FFFFF0
000070
000030
000010
000010
ENDCHAR
STARTCHAR 0427
ENCODING 1063
SWIDTH 1000 0
DWIDTH 28 0
BBX 18 19 5 2
BITMAP
FE1FC0
300700
300600
300600
300600
300600
300600
300600
300600
300600
180E00
0C1600
07E600
000600
000600
000600
000600
000700
001FC0
ENDCHAR
STARTCHAR 0428
ENCODING 1064
SWIDTH 1000 0
DWIDTH 28 0
BBX 24 19 2 2
BITMAP
FE7E7F
38181C
181818
181818
181818
181818
181818
181818
181818
181818
181818
181818
181818
181818
181818
181818
181818
381818
FFFFFF
ENDCHAR
STARTCHAR 0429
ENCODING 1065
SWIDTH 1000 0
DWIDTH 28 0
BBX 24 23 2 -2
BITMAP
FEFE7F
301818
301818
301818
301818
301818
301818
301818
301818
301818
301818
301818
301818
301818
301818
301818
301818
301818
FFFFFF
000003
000001
000001
000001
ENDCHAR
STARTCHAR 042A
ENCODING 1066
SWIDTH 1000 0
DWIDTH 28 0
BBX 21 19 4 2
BITMAP
FFE000
C30000
830000
830000
830000
030000
030000
030000
030000
03FF80
0300E0
030070
030030
030038
030038
030038
030030
0300E0
0FFF80
ENDCHAR
STARTCHAR 042B
ENCODING 1067
SWIDTH 1000 0
DWIDTH 28 0
BBX 24 19 2 2
BITMAP
FF007F
180018
180018
180018
180018
180018
180018
180018
180018
1FF818
180E18
180718
180318
180398
180398
180318
180318
180E18
FFF87F
ENDCHAR
STARTCHAR 042C
ENCODING 1068
SWIDTH 1000 0
DWIDTH 28 0
BBX 17 19 6 2
BITMAP
FE0000
300000
300000
300000
300000
300000
300000
300000
300000
3FF800
300E00
300700
300300
300380
300380
300380
300300
300E00
FFF800
ENDCHAR
STARTCHAR 042D
ENCODING 1069
SWIDTH 1000 0
DWIDTH 28 0
BBX 18 21 5 0
BITMAP
0FE000
701C00
600E00
400300
800380
000180
0001C0
0780C0
1FE0C0
10FFC0
003EC0
0000C0
0000C0
8001C0
800180
800180
C00380
C00700
600E00
383C00
0FE000
ENDCHAR
STARTCHAR 042E
ENCODING 1070
SWIDTH 1000 0
DWIDTH 28 0
BBX 23 21 2 0
BITMAP
FE07C0
381830
183018
18200C
18600C
186006
18C006
18C006
18C006
1FC006
18C006
18C006
18C006
18C006
186006
18600E
18600C
18300C
FE3818
001C30
0007C0
ENDCHAR
STARTCHAR 042F
ENCODING 1071
SWIDTH 1000 0
DWIDTH 28 0
BBX 19 20 4 1
BITMAP
03FFE0
0E0380
1C0300
180300
180300
180300
180300
1C0300
0E0300
03FF00
00C300
01C300
018300
038300
070300
060300
1C0300
380300
600FE0
800000
ENDCHAR
STARTCHAR 0430
ENCODING 1072
SWIDTH 1000 0
DWIDTH 28 0
BBX 14 15 8 0
BITMAP
3F80
61C0
60C0
6040
0040
03C0
1C40
3040
6040
C040
C040
C0E4
C0E4
6378
3C30
ENDCHAR
STARTCHAR 0431
ENCODING 1073
SWIDTH 1000 0
DWIDTH 28 0
BBX 14 21 7 1
BITMAP
0008
0018
07F0
0C00
1000
2000
47C0
5860
6010
6018
E018
C008
C00C
C00C
C00C
601C
6018
6018
3030
1860
0FC0
ENDCHAR
STARTCHAR 0432
ENCODING 1074
SWIDTH 1000 0
DWIDTH 28 0
BBX 14 13 6 2
BITMAP
FFE0
3838
1018
1018
1018
1030
1FE0
1018
100C
100C
100C
1818
FFF0
ENDCHAR
STARTCHAR 0433
ENCODING 1075
SWIDTH 1000 0
DWIDTH 28 0
BBX 14 13 7 2
BITMAP
FFFC
381C
100C
1004
1004
1000
1000
1000
1000
1000
1000
1800
FE00
ENDCHAR
STARTCHAR 0434
ENCODING 1076
SWIDTH 1000 0
DWIDTH 28 0
BBX 16 17 6 -2
BITMAP
1FFE
0418
0418
0418
0418
0418
0818
0818
0818
1018
1018
201C
FFFF
C003
8001
8001
8001
ENDCHAR
STARTCHAR 0435
ENCODING 1077
SWIDTH 1000 0
DWIDTH 28 0
BBX 13 15 7 0
BITMAP
0F80
1860
3030
6030
6018
6018
FFF8
C000
C000
6000
6008
6010
3010
1860
0FC0
ENDCHAR
STARTCHAR 0436
ENCODING 1078
SWIDTH 1000 0
DWIDTH 28 0
BBX 22 13 3 2
BITMAP
70FC38
783078
043080
043080
023100
03B700
027900
063180
0C30C0
0C30C0
183060
303030
FCFCFC
ENDCHAR
STARTCHAR 0437
ENCODING 1079
SWIDTH 1000 0
DWIDTH 28 0
BBX 12 15 8 0
BITMAP
1F80
70C0
6060
4060
0060
00C0
0F00
00C0
0060
8030
8030
C070
C060
71E0
1F80
ENDCHAR
STARTCHAR 0438
ENCODING 1080
SWIDTH 1000 0
DWIDTH 28 0
BBX 16 13 6 2
BITMAP
FC3F
300C
301C
303C
306C
308C
310C
320C
340C
380C
300C
300C
FC3F
ENDCHAR
STARTCHAR 0439
ENCODING 1081
SWIDTH 1000 0
DWIDTH 28 0
BBX 16 18 6 2
BITMAP
0C30
0C30
0C30
03C0
0000
FC3F
300C
301C
303C
306C
308C
310C
320C
340C
380C
300C
300C
FC3F
ENDCHAR
STARTCHAR 043A
ENCODING 1082
SWIDTH 1000 0
DWIDTH 28 0
BBX 16 13 7 2
BITMAP
FC1C
302C
3020
3040
3080
3F80
3180
30C0
3060
3030
3030
3018
FC7F
ENDCHAR
STARTCHAR 043B
ENCODING 1083
SWIDTH 1000 0
DWIDTH 28 0
BBX 16 15 5 0
BITMAP
0FFF
020C
020C
020C
020C
020C
020C
020C
020C
C20C
C20C
C40C
843F
CC00
7800
ENDCHAR
STARTCHAR 043C
ENCODING 1084
SWIDTH 1000 0
DWIDTH 28 0
BBX 18 13 5 2
BITMAP
F807C0
380700
280B00
2C0B00
240B00
261300
261300
232300
232300
214300
21C300
208300
F88FC0
ENDCHAR
STARTCHAR 043D
ENCODING 1085
SWIDTH 1000 0
DWIDTH 28 0
BBX 16 13 6 2
BITMAP
FC3F
300C
300C
300C
300C
300C
3FFC
300C
300C
300C
300C
300C
FC3F
ENDCHAR
STARTCHAR 043E
ENCODING 1086
SWIDTH 1000 0
DWIDTH 28 0
BBX 14 15 7 0
BITMAP
0F80
1860
3010
6018
6018
E008
C00C
C00C
C00C
E01C
6018
6018
3030
1860
0FC0
ENDCHAR
STARTCHAR 043F
ENCODING 1087
SWIDTH 1000 0
DWIDTH 28 0
BBX 16 13 6 2
BITMAP
FFFF
380C
300C
300C
300C
300C
300C
300C
300C
300C
300C
300C
FC3F
ENDCHAR
STARTCHAR 0440
ENCODING 1088
SWIDTH 1000 0
DWIDTH 28 0
BBX 15 18 6 -2
BITMAP
F3E0
3438
181C
180C
180E
1806
1806
1806
180E
180C
181C
1C38
1BE0
1800
1800
1800
3800
FE00
ENDCHAR
STARTCHAR 0441
ENCODING 1089
SWIDTH 1000 0
DWIDTH 28 0
BBX 13 15 7 0
BITMAP
07C0
1830
3030
6030
6000
6000
6000
E000
6000
6000
6008
7010
3810
1C60
0780
ENDCHAR
STARTCHAR 0442
ENCODING 1090
SWIDTH 1000 0
DWIDTH 28 0
BBX 14 13 7 2
BITMAP
FFFC
C30C
C30C
8304
0300
0300
0300
0300
0300
0300
0300
0300
0FC0
ENDCHAR
STARTCHAR 0443
ENCODING 1091
SWIDTH 1000 0
DWIDTH 28 0
BBX 17 18 6 -3
BITMAP
FE3F80
380C00
180C00
080800
0C0800
061000
061000
032000
032000
01C000
01C000
008000
008000
008000
010000
390000
320000
1C0000
ENDCHAR
STARTCHAR 0444
ENCODING 1092
SWIDTH 1000 0
DWIDTH 28 0
BBX 16 25 6 -3
BITMAP
0180
0780
0180
0180
0180
0180
0180
1FF8
218C
6186
4183
C183
C183
C183
C183
C183
4183
6186
318C
1FF8
0180
0180
0180
0180
07E0
ENDCHAR
STARTCHAR 0445
ENCODING 1093
SWIDTH 1000 0
DWIDTH 28 0
BBX 17 13 5 2
BITMAP
7F3F80
0C0C00
060800
031000
032000
01C000
00C000
016000
023000
041800
080C00
180E00
FE1F80
ENDCHAR
STARTCHAR 0446
ENCODING 1094
SWIDTH 1000 0
DWIDTH 28 0
BBX 16 17 6 -2
BITMAP
FC7E
3018
3018
3018
3018
3018
3018
3018
3018
3018
3018
3018
FFFF
0003
0001
0001
0001
ENDCHAR
STARTCHAR 0447
ENCODING 1095
SWIDTH 1000 0
DWIDTH 28 0
BBX 15 13 6 2
BITMAP
FC7E
3018
3018
3018
3018
3018
1818
0FF8
0018
0018
0018
0018
007E
ENDCHAR
STARTCHAR 0448
ENCODING 1096
SWIDTH 1000 0
DWIDTH 28 0
BBX 22 13 3 2
BITMAP
FCFCFC
383060
103020
103020
103020
103020
103020
103020
103020
103020
103020
183060
FFFFFC
ENDCHAR
STARTCHAR 0449
ENCODING 1097
SWIDTH 1000 0
DWIDTH 28 0
BBX 22 17 3 -2
BITMAP
FCFCFC
383060
103020
103020
103020
103020
103020
103020
103020
103020
103020
183070
FFFFFC
00000C
000004
000004
000004
ENDCHAR
STARTCHAR 044A
ENCODING 1098
SWIDTH 1000 0
DWIDTH 28 0
BBX 16 13 6 2
BITMAP
FF80
CC00
8C00
8C00
0C00
0C00
0FF8
0C0E
0C07
0C03
0C03
0C06
3FF8
ENDCHAR
STARTCHAR 044B
ENCODING 1099
SWIDTH 1000 0
DWIDTH 28 0
BBX 20 13 4 2
BITMAP
FE07F0
3001C0
100080
100080
100080
100080
1FE080
103880
101880
101C80
101880
3018C0
FFE7F0
ENDCHAR
STARTCHAR 044C
ENCODING 1100
SWIDTH 1000 0
DWIDTH 28 0
BBX 14 13 7 2
BITMAP
FE00
3000
1000
1000
1000
1000
1FE0
1038
100C
100C
100C
3018
FFE0
ENDCHAR
STARTCHAR 044D
ENCODING 1101
SWIDTH 1000 0
DWIDTH 28 0
BBX 13 15 8 0
BITMAP
3F80
E0E0
C060
8030
0030
3818
4638
01D8
0018
0030
0030
8030
C060
60C0
1F00
ENDCHAR
STARTCHAR 044E
ENCODING 1102
SWIDTH 1000 0
DWIDTH 28 0
BBX 20 15 4 0
BITMAP
FC1F00
3071C0
30C060
30C060
318030
318030
3F8030
318030
318030
318030
308030
30C060
FC60E0
0071C0
001F00
ENDCHAR
STARTCHAR 044F
ENCODING 1103
SWIDTH 1000 0
DWIDTH 28 0
BBX 14 14 7 1
BITMAP
1FFC
3030
6030
6030
6030
3030
1FF0
0630
0C30
1830
1830
3030
C0FC
8000
ENDCHAR
STARTCHAR 0451
ENCODING 1105
SWIDTH 1000 0
DWIDTH 28 0
BBX 13 20 7 0
BITMAP
1860
3870
1860
0000
0000
0F80
1860
3030
6030
6018
6018
FFF8
C000
C000
6000
6008
6010
3010
1860
0FC0
ENDCHAR
STARTCHAR 1E3E
ENCODING 7742
SWIDTH 964 0
DWIDTH 27 0
BBX 24 25 1 1
BITMAP
000600
000E00
001800
000000
000000
FC001F
16003C
16002C
16006C
13004C
13004C
1300CC
11808C
11808C
10C18C
10C10C
10C30C
10620C
10620C
10660C
10340C
10340C
10180C
18181C
FE187F
ENDCHAR
STARTCHAR 1E3F
ENCODING 7743
SWIDTH 892 0
DWIDTH 25 0
BBX 24 20 1 1
BITMAP
000600
000C00
001000
000000
000000
000000
F3E1E0
343630
183418
181818
101818
101818
101818
101818
101818
101818
101818
101818
381818
FEFE7F
ENDCHAR
STARTCHAR 1F70
ENCODING 8048
SWIDTH 571 0
DWIDTH 16 0
BBX 14 21 2 0
BITMAP
1000
3800
1C00
0600
0000
0000
0000
1F20
30A0
6060
C060
C020
C020
C020
C020
C020
C020
C060
6070
30B4
1F18
ENDCHAR
STARTCHAR 1F71
ENCODING 8049
SWIDTH 571 0
DWIDTH 16 0
BBX 14 21 2 0
BITMAP
0080
01C0
0380
0600
0000
0000
0000
1F20
30A0
6060
C060
C020
C020
C020
C020
C020
C020
C060
6070
30B4
1F18
ENDCHAR
STARTCHAR 1F72
ENCODING 8050
SWIDTH 535 0
DWIDTH 15 0
BBX 11 20 2 1
BITMAP
3000
1800
0C00
0000
0000
0000
1FC0
7000
6000
C000
4000
7700
1F00
6000
C000
C000
C000
C000
6060
3F80
ENDCHAR
STARTCHAR 1F73
ENCODING 8051
SWIDTH 535 0
DWIDTH 15 0
BBX 11 20 2 1
BITMAP
0180
0300
0600
0000
0000
0000
1FC0
7000
6000
C000
4000
7700
1F00
6000
C000
C000
C000
C000
6060
3F80
ENDCHAR
STARTCHAR 2002
ENCODING 8194
SWIDTH 500 0
DWIDTH 14 0
BBX 0 0 0 0
BITMAP
ENDCHAR
STARTCHAR 2003
ENCODING 8195
SWIDTH 1000 0
DWIDTH 28 0
BBX 0 0 0 0
BITMAP
ENDCHAR
STARTCHAR 2010
ENCODING 8208
SWIDTH 285 0
DWIDTH 8 0
BBX 6 2 1 7
BITMAP
FC
FC
ENDCHAR
STARTCHAR 2011
ENCODING 8209
SWIDTH 285 0
DWIDTH 8 0
BBX 6 2 1 7
BITMAP
FC
FC
ENDCHAR
STARTCHAR 2012
ENCODING 8210
SWIDTH 285 0
DWIDTH 8 0
BBX 6 2 1 7
BITMAP
FC
FC
ENDCHAR
STARTCHAR 2013
ENCODING 8211
SWIDTH 535 0
DWIDTH 15 0
BBX 13 1 1 8
BITMAP
FFF8
ENDCHAR
STARTCHAR 2014
ENCODING 8212
SWIDTH 892 0
DWIDTH 25 0
BBX 25 1 0 10
BITMAP
FFFFFF80
ENDCHAR
STARTCHAR 2015
ENCODING 8213
SWIDTH 1000 0
DWIDTH 28 0
BBX 26 1 1 10
BITMAP
FFFFFFC0
ENDCHAR
STARTCHAR 2016
ENCODING 8214
SWIDTH 1000 0
DWIDTH 28 0
BBX 6 28 11 -3
BITMAP
84
84
84
84
84
84
84
84
84
84
84
84
84
84
84
84
84
84
84
84
84
84
84
84
84
84
84
84
ENDCHAR
STARTCHAR 2018
ENCODING 8216
SWIDTH 1000 0
DWIDTH 28 0
BBX 3 7 22 17
BITMAP
20
40
C0
C0
E0
E0
60
ENDCHAR
STARTCHAR 2019
ENCODING 8217
SWIDTH 1000 0
DWIDTH 28 0
BBX 3 7 3 15
BITMAP
C0
E0
E0
60
40
C0
80
ENDCHAR
STARTCHAR 201C
ENCODING 8220
SWIDTH 1000 0
DWIDTH 28 0
BBX 10 8 16 16
BITMAP
0040
3080
2100
4300
C300
F380
F380
6180
ENDCHAR
STARTCHAR 201D
ENCODING 8221
SWIDTH 1000 0
DWIDTH 28 0
BBX 9 7 3 15
BITMAP
C300
E780
E780
6180
4100
C200
8600
ENDCHAR
STARTCHAR 2020
ENCODING 8224
SWIDTH 1000 0
DWIDTH 28 0
BBX 12 25 8 -2
BITMAP
0600
0F00
0F00
0600
76E0
FFF0
FFF0
76E0
0600
0F00
0600
0600
0600
0600
0600
0600
0600
0600
0600
0600
0600
0600
0600
0600
0600
ENDCHAR
STARTCHAR 2021
ENCODING 8225
SWIDTH 1000 0
DWIDTH 28 0
BBX 12 26 8 -2
BITMAP
0600
0F00
0600
0600
76E0
FFF0
74E0
0600
0600
0600
0600
0400
0400
0400
0400
0600
0600
0600
0600
76E0
FDF0
7FE0
0600
0600
0F00
0600
ENDCHAR
STARTCHAR 2022
ENCODING 8226
SWIDTH 357 0
DWIDTH 10 0
BBX 4 4 3 7
BITMAP
E0
F0
F0
60
ENDCHAR
STARTCHAR 2025
ENCODING 8229
SWIDTH 1000 0
DWIDTH 28 0
BBX 18 4 5 9
BITMAP
600180
F003C0
F003C0
600180
ENDCHAR
STARTCHAR 2026
ENCODING 8230
SWIDTH 1000 0
DWIDTH 28 0
BBX 22 3 3 9
BITMAP
E0301C
E0781C
E0301C
ENDCHAR
STARTCHAR 2030
ENCODING 8240
SWIDTH 1000 0
DWIDTH 28 0
BBX 24 25 2 -2
BITMAP
000400
380800
440800
C61000
C61000
862000
862000
866000
C64000
C6C000
448000
398000
010000
03381C
026422
06C663
04C663
0CC261
08C261
18C261
10C663
30C663
206422
60381C
400000
ENDCHAR
STARTCHAR 2032
ENCODING 8242
SWIDTH 250 0
DWIDTH 7 0
BBX 4 7 1 16
BITMAP
30
30
20
60
40
40
80
ENDCHAR
STARTCHAR 2033
ENCODING 8243
SWIDTH 392 0
DWIDTH 11 0
BBX 8 7 1 16
BITMAP
31
33
23
62
42
44
84
ENDCHAR
STARTCHAR 203B
ENCODING 8251
SWIDTH 1000 0
DWIDTH 28 0
BBX 22 22 3 0
BITMAP
003000
C0780C
607818
303830
180060
0C00C0
060180
030300
018600
60CC18
F0783C
F0303C
707818
00CC00
018600
030300
060180
0C00C0
183060
307830
607818
C0380C
ENDCHAR
STARTCHAR 203C
ENCODING 8252
SWIDTH 464 0
DWIDTH 13 0
BBX 9 20 2 0
BITMAP
6300
6300
6300
6300
6300
6300
6300
6300
6300
6300
6300
6300
2300
2200
0000
0000
0000
6300
F780
6300
ENDCHAR
STARTCHAR 203E
ENCODING 8254
SWIDTH 500 0
DWIDTH 14 0
BBX 8 1 3 18
BITMAP
FF
ENDCHAR
STARTCHAR 203F
ENCODING 8255
SWIDTH 428 0
DWIDTH 12 0
BBX 12 3 0 -3
BITMAP
8000
6070
1F80
ENDCHAR
STARTCHAR 2042
ENCODING 8258
SWIDTH 1000 0
DWIDTH 28 0
BBX 20 21 4 0
BITMAP
006000
006000
036C00
01D800
006000
01F800
034C00
006000
006000
000000
000000
180180
180180
C90930
6F0760
140380
3C02C0
6B0D60
C90930
180180
180180
ENDCHAR
STARTCHAR 2047
ENCODING 8263
SWIDTH 964 0
DWIDTH 27 0
BBX 24 20 1 0
BITMAP
1F80F8
30C30E
606606
406403
E07603
E07703
606603
006006
00C00E
018018
030030
060020
040060
040040
040040
000000
000000
0E0060
0E00E0
0E0060
ENDCHAR
STARTCHAR 2048
ENCODING 8264
SWIDTH 714 0
DWIDTH 20 0
BBX 17 20 1 0
BITMAP
1F8300
30C300
606300
406300
E07300
E07300
606300
006300
00C300
018300
030300
060300
040300
040200
040000
000000
000000
0E0300
0E0780
0E0300
ENDCHAR
STARTCHAR 2049
ENCODING 8265
SWIDTH 714 0
DWIDTH 20 0
BBX 16 20 2 0
BITMAP
60F8
610E
6207
6603
6703
6703
6703
6007
6006
600C
6010
6020
2020
2060
0060
0000
0000
6060
F070
6060
ENDCHAR
STARTCHAR 2051
ENCODING 8273
SWIDTH 1000 0
DWIDTH 28 0
BBX 8 22 10 0
BITMAP
18
18
DB
76
3C
3C
F6
DB
18
00
00
00
00
18
18
DB
76
18
76
D3
18
18
ENDCHAR
STARTCHAR 205A
ENCODING 8282
SWIDTH 1000 0
DWIDTH 28 0
BBX 4 18 12 2
BITMAP
60
F0
F0
60
00
00
00
00
00
00
00
00
00
00
60
F0
F0
60
ENDCHAR
STARTCHAR 205D
ENCODING 8285
SWIDTH 1000 0
DWIDTH 28 0
BBX 4 21 12 0
BITMAP
60
F0
60
00
00
00
00
00
00
60
F0
60
00
00
00
00
00
00
60
F0
60
ENDCHAR
STARTCHAR 20AC
ENCODING 8364
SWIDTH 607 0
DWIDTH 17 0
BBX 15 20 1 0
BITMAP
03F4
0E1C
1C0C
1804
3004
3000
3000
6000
FFE0
6000
6000
FFE0
6000
6000
3000
3002
3006
1804
0E18
03F0
ENDCHAR
STARTCHAR 2103
ENCODING 8451
SWIDTH 1000 0
DWIDTH 28 0
BBX 23 22 1 1
BITMAP
780000
440FC0
843034
C4601C
78C00C
018004
018004
030000
030000
030000
030000
030000
030000
030000
030000
030002
038002
018002
00C004
006008
003830
000FC0
ENDCHAR
STARTCHAR 210F
ENCODING 8463
SWIDTH 535 0
DWIDTH 15 0
BBX 13 20 1 1
BITMAP
3C00
0C00
0FC0
3F00
0800
1800
18E0
1330
1630
3430
3830
3030
3060
6060
6060
6060
40C8
C0C8
C0D0
C0E0
ENDCHAR
STARTCHAR 2113
ENCODING 8467
SWIDTH 1000 0
DWIDTH 28 0
BBX 13 21 7 0
BITMAP
00E0
0190
0310
0210
0610
0410
0C30
0C30
0820
1860
1840
18C0
1980
1100
1200
1C00
1808
7810
9830
0C60
0780
ENDCHAR
STARTCHAR 2116
ENCODING 8470
SWIDTH 1000 0
DWIDTH 28 0
BBX 25 20 1 1
BITMAP
F0780000
38200000
38200000
28200000
2C200000
24200000
2620F000
26219800
23230800
23230C00
21220C00
21A20400
20A20400
20E20400
20E20C00
20620C00
20630C00
20230980
F8219980
0000F180
ENDCHAR
STARTCHAR 2121
ENCODING 8481
SWIDTH 1000 0
DWIDTH 28 0
BBX 25 19 1 2
BITMAP
FFC00000
CC400000
8C400000
8C400000
0C000000
0C7FBC00
0C109800
0C109800
0C101800
0C111800
0C111800
0C1F1800
0C111800
0C111800
0C101800
0C109880
0C109880
0C119880
3F7FBF80
ENDCHAR
STARTCHAR 2127
ENCODING 8487
SWIDTH 857 0
DWIDTH 24 0
BBX 20 20 2 0
BITMAP
FF9FE0
FF1FE0
C20820
840430
8C0210
980110
100180
300180
3000C0
7000C0
6000C0
6000E0
6000C0
6000C0
7000C0
3001C0
380180
1C0300
0E0E00
03F800
ENDCHAR
STARTCHAR 212B
ENCODING 8491
SWIDTH 1000 0
DWIDTH 28 0
BBX 20 22 4 2
BITMAP
00F000
009000
011000
009000
006000
006000
00E000
00B000
00B000
011800
011800
021800
020C00
060C00
040600
07FE00
080600
080300
180300
100180
300180
FC0FF0
ENDCHAR
STARTCHAR 2135
ENCODING 8501
SWIDTH 678 0
DWIDTH 19 0
BBX 16 20 2 0
BITMAP
2008
6010
4018
C00C
C00E
E00B
7012
3820
1E20
7740
63C0
60F0
6078
601C
600C
2006
3006
3004
600C
C008
ENDCHAR
STARTCHAR 2153
ENCODING 8531
SWIDTH 750 0
DWIDTH 21 0
BBX 18 20 2 1
BITMAP
F00100
300300
300200
300400
300C00
301800
301000
302000
306000
7C4F00
009880
0198C0
0118C0
020080
040700
0C0080
0800C0
1018C0
3010C0
200F80
ENDCHAR
STARTCHAR 2154
ENCODING 8532
SWIDTH 750 0
DWIDTH 21 0
BBX 19 20 1 1
BITMAP
3C0080
460180
620100
620200
060600
0C0C00
300800
611800
433000
FE2780
004C40
00CC60
008C60
010040
030380
060040
040060
080C60
180860
1007C0
ENDCHAR
STARTCHAR 2155
ENCODING 8533
SWIDTH 750 0
DWIDTH 21 0
BBX 18 20 2 1
BITMAP
F00180
300300
300200
300400
300C00
301800
301000
303000
306000
304000
088F80
018800
011000
021700
0618C0
0C00C0
0800C0
1018C0
301080
200F00
ENDCHAR
STARTCHAR 2160
ENCODING 8544
SWIDTH 1000 0
DWIDTH 28 0
BBX 8 19 10 2
BITMAP
FF
18
18
18
18
18
18
18
18
18
18
18
18
18
18
18
18
18
FF
ENDCHAR
STARTCHAR 2161
ENCODING 8545
SWIDTH 1000 0
DWIDTH 28 0
BBX 16 19 6 2
BITMAP
FFFF
381C
300C
300C
300C
300C
300C
300C
300C
300C
300C
300C
300C
300C
300C
300C
300C
381C
FFFF
ENDCHAR
STARTCHAR 2162
ENCODING 8546
SWIDTH 1000 0
DWIDTH 28 0
BBX 22 19 3 2
BITMAP
FFFFFC
303070
303030
303030
303030
303030
303030
303030
303030
303030
303030
303030
303030
303030
303030
303030
303030
303030
FFFFFC
ENDCHAR
STARTCHAR 2163
ENCODING 8547
SWIDTH 1000 0
DWIDTH 28 0
BBX 24 19 3 2
BITMAP
FFF83F
30C00C
30C008
306008
306008
306010
303010
303020
303020
301820
301840
300C40
300C40
300C80
300680
300680
300700
380300
FE0300
ENDCHAR
STARTCHAR 2164
ENCODING 8548
SWIDTH 1000 0
DWIDTH 28 0
BBX 20 20 4 1
BITMAP
FE07F0
3800C0
1800C0
180080
1C0180
0C0100
0C0100
060200
060200
070200
030400
030400
018800
018800
00C800
00D000
00F000
006000
006000
002000
ENDCHAR
STARTCHAR 2165
ENCODING 8549
SWIDTH 1000 0
DWIDTH 28 0
BBX 24 19 1 2
BITMAP
FE0FFF
38010C
18010C
18020C
18020C
0C020C
0C040C
0C040C
06080C
06080C
03080C
03100C
03100C
01900C
01A00C
01A00C
00E00C
00C01C
00C07F
ENDCHAR
STARTCHAR 2166
ENCODING 8550
SWIDTH 1000 0
DWIDTH 28 0
BBX 25 19 1 2
BITMAP
FE3FFF80
3004E600
3004C600
1008C600
1808C600
1808C600
1810C600
0C10C600
0C10C600
0C20C600
0620C600
0620C600
0640C600
0240C600
0340C600
0380C600
0180C600
0180E600
0103FF80
ENDCHAR
STARTCHAR 2167
ENCODING 8551
SWIDTH 1000 0
DWIDTH 28 0
BBX 26 19 1 2
BITMAP
FC7FFFC0
7019BB00
30119300
30119300
10119300
18219300
18219300
18219300
0C219300
0C419300
0C419300
04419300
06819300
06819300
06819300
03819300
03019300
0301B300
0107FFC0
ENDCHAR
STARTCHAR 2168
ENCODING 8552
SWIDTH 1000 0
DWIDTH 28 0
BBX 23 19 3 2
BITMAP
FFFCFE
307030
303020
301860
301840
300C80
300C80
300700
300700
300300
300580
300580
3008C0
3010C0
301060
302030
306030
304038
FFF8FE
ENDCHAR
STARTCHAR 2169
ENCODING 8553
SWIDTH 1000 0
DWIDTH 28 0
BBX 21 19 4 2
BITMAP
FF0FE0
380380
0C0300
0E0200
070400
030800
019800
00D000
00E000
007000
00B000
011800
030C00
060E00
040700
080300
100180
3001C0
FE07F8
ENDCHAR
STARTCHAR 216A
ENCODING 8554
SWIDTH 1000 0
DWIDTH 28 0
BBX 23 19 2 2
BITMAP
FF3FFE
180818
0C0818
0C1018
062018
062018
034018
034018
018018
01C018
01C018
026018
066018
043018
083818
081818
100C18
300E18
FC3FFE
ENDCHAR
STARTCHAR 216B
ENCODING 8555
SWIDTH 1000 0
DWIDTH 28 0
BBX 26 19 1 2
BITMAP
FE7FFFC0
1818E600
18104600
0C104600
06204600
06204600
03404600
03804600
01804600
01804600
01C04600
02604600
04604600
04304600
08304600
08184600
101C4600
300CE600
FC3FFFC0
ENDCHAR
STARTCHAR 2170
ENCODING 8560
SWIDTH 1000 0
DWIDTH 28 0
BBX 6 20 11 2
BITMAP
30
30
30
00
00
00
10
F0
30
30
30
30
30
30
30
30
30
30
30
FC
ENDCHAR
STARTCHAR 2171
ENCODING 8561
SWIDTH 1000 0
DWIDTH 28 0
BBX 15 20 7 2
BITMAP
3030
7038
3030
0000
0000
0000
1010
F0F0
3030
3010
3010
3010
3010
3010
3010
3010
3010
3010
3038
FCFE
ENDCHAR
STARTCHAR 2172
ENCODING 8562
SWIDTH 1000 0
DWIDTH 28 0
BBX 20 20 4 2
BITMAP
3060C0
3870E0
3060C0
000000
000000
000000
102040
F1E3C0
3060C0
3060C0
3060C0
3060C0
3060C0
3060C0
3060C0
3060C0
3060C0
3060C0
3060C0
FFFFF0
ENDCHAR
STARTCHAR 2173
ENCODING 8563
SWIDTH 1000 0
DWIDTH 28 0
BBX 21 20 4 2
BITMAP
300000
380000
300000
000000
000000
000000
000000
F3F0F8
30C030
106020
106040
102040
103080
103080
101880
101900
100D00
100E00
300600
FE0400
ENDCHAR
STARTCHAR 2174
ENCODING 8564
SWIDTH 1000 0
DWIDTH 28 0
BBX 16 13 6 1
BITMAP
FC3F
300C
1808
1808
0810
0C10
0C30
0620
0620
0340
0340
0180
0180
ENDCHAR
STARTCHAR 2175
ENCODING 8565
SWIDTH 1000 0
DWIDTH 28 0
BBX 21 20 3 2
BITMAP
000060
0000E0
000060
000000
000000
000000
000020
FC7FE0
301860
301060
101060
182060
182060
0C6060
0C4060
064060
068060
028060
030060
0301F8
ENDCHAR
STARTCHAR 2176
ENCODING 8566
SWIDTH 1000 0
DWIDTH 28 0
BBX 26 20 1 2
BITMAP
0000C600
0001C700
0000C600
00000000
00000000
00000000
00004000
FE3FDE00
3808C600
1808C200
1810C200
0C10C200
0C10C200
0620C200
0620C200
0240C200
0340C200
0340C200
0180C600
0183FFC0
ENDCHAR
STARTCHAR 2177
ENCODING 8567
SWIDTH 1000 0
DWIDTH 28 0
BBX 26 20 1 2
BITMAP
00033300
00077300
00033300
00000000
00000000
00000000
00011100
FC7FFF00
301B3300
30133300
18333300
18233300
08233300
0C433300
0C433300
06833300
06833300
02833300
03033300
030FFFC0
ENDCHAR
STARTCHAR 2178
ENCODING 8568
SWIDTH 1000 0
DWIDTH 28 0
BBX 21 20 4 2
BITMAP
300000
380000
300000
000000
000000
000000
000000
F1F9F0
303040
101080
101980
100D00
100600
100600
100B00
101180
103180
1020C0
304060
FFF1F8
ENDCHAR
STARTCHAR 2179
ENCODING 8569
SWIDTH 1000 0
DWIDTH 28 0
BBX 17 13 5 2
BITMAP
7F3F80
0C0C00
060800
031000
032000
01C000
00C000
016000
023000
041800
080C00
180E00
FE1F80
ENDCHAR
STARTCHAR 217A
ENCODING 8570
SWIDTH 1000 0
DWIDTH 28 0
BBX 21 20 3 2
BITMAP
000060
000070
000060
000000
000000
000000
000000
7EFDE0
183060
0C2060
044060
068060
030060
038060
078060
04C060
086060
103060
203860
F8FFF8
ENDCHAR
STARTCHAR 217B
ENCODING 8571
SWIDTH 1000 0
DWIDTH 28 0
BBX 25 20 2 2
BITMAP
00018C00
00038E00
00018C00
00000000
00000000
00000000
00008000
FCFFBC00
18218C00
08418400
0CC18400
06818400
03018400
03018400
05818400
08C18400
18618400
10618400
20318E00
F8FFFF80
ENDCHAR
STARTCHAR 2190
ENCODING 8592
SWIDTH 1000 0
DWIDTH 28 0
BBX 24 9 2 6
BITMAP
060000
1C0000
300000
600000
FFFFFF
600000
300000
1C0000
060000
ENDCHAR
STARTCHAR 2191
ENCODING 8593
SWIDTH 1000 0
DWIDTH 28 0
BBX 10 24 9 -1
BITMAP
0800
0C00
1E00
3F00
6D80
CCC0
8C40
8C40
0C00
0C00
0C00
0C00
0C00
0C00
0C00
0C00
0C00
0C00
0C00
0C00
0C00
0C00
0C00
0C00
ENDCHAR
STARTCHAR 2192
ENCODING 8594
SWIDTH 1000 0
DWIDTH 28 0
BBX 24 9 2 6
BITMAP
000060
000038
00000C
000006
FFFFFF
000006
00000C
000038
000060
ENDCHAR
STARTCHAR 2193
ENCODING 8595
SWIDTH 1000 0
DWIDTH 28 0
BBX 10 24 9 -2
BITMAP
0C00
0C00
0C00
0C00
0C00
0C00
0C00
0C00
0C00
0C00
0C00
0C00
0C00
0C00
0C00
0C00
0C00
8C40
CCC0
4C80
6D80
3F00
1E00
0C00
ENDCHAR
STARTCHAR 2194
ENCODING 8596
SWIDTH 750 0
DWIDTH 21 0
BBX 17 11 2 4
BITMAP
081000
180800
300400
600600
400300
FFFF80
C00300
600200
300400
180C00
0C1800
ENDCHAR
STARTCHAR 2196
ENCODING 8598
SWIDTH 1000 0
DWIDTH 28 0
BBX 20 19 4 1
BITMAP
FF0000
618000
700000
580000
4C0000
460000
430000
418000
20C000
006000
003000
001800
000C00
000600
000300
000180
0000C0
000060
000030
ENDCHAR
STARTCHAR 2197
ENCODING 8599
SWIDTH 1000 0
DWIDTH 28 0
BBX 20 19 4 1
BITMAP
000FF0
001870
0000E0
0001A0
000320
000620
000C20
001820
003040
006000
00C000
018000
030000
060000
0C0000
180000
300000
600000
C00000
ENDCHAR
STARTCHAR 2198
ENCODING 8600
SWIDTH 1000 0
DWIDTH 28 0
BBX 20 19 4 2
BITMAP
C00000
600000
300000
180000
0C0000
060000
030000
018000
00C000
006000
003000
001820
000C20
000620
000320
0001A0
0000E0
001F70
0007F0
ENDCHAR
STARTCHAR 2199
ENCODING 8601
SWIDTH 1000 0
DWIDTH 28 0
BBX 20 19 4 2
BITMAP
000030
000060
0000C0
000180
000300
000600
000C00
001800
003000
006000
20C000
418000
430000
460000
4C0000
580000
700000
EF8000
FE0000
ENDCHAR
STARTCHAR 21C4
ENCODING 8644
SWIDTH 1000 0
DWIDTH 28 0
BBX 24 21 2 0
BITMAP
000060
000018
00000C
000006
FFFFFF
000006
00000C
000018
000030
000060
000000
060000
0C0000
180000
300000
600000
FFFFFF
600000
300000
180000
060000
ENDCHAR
STARTCHAR 21D2
ENCODING 8658
SWIDTH 750 0
DWIDTH 21 0
BBX 17 12 2 4
BITMAP
001000
000800
000C00
FFFE00
000300
000180
000180
000300
FFFE00
000C00
001800
001000
ENDCHAR
STARTCHAR 21D4
ENCODING 8660
SWIDTH 750 0
DWIDTH 21 0
BBX 17 12 2 4
BITMAP
0C1000
180800
100C00
3FFE00
400300
C00180
C00180
400300
3FFE00
100C00
080800
0C1000
ENDCHAR
STARTCHAR 21E6
ENCODING 8678
SWIDTH 1000 0
DWIDTH 28 0
BBX 22 9 3 6
BITMAP
020000
0E0000
320000
C1FFFC
800004
61FFFC
120000
0E0000
020000
ENDCHAR
STARTCHAR 21E7
ENCODING 8679
SWIDTH 1000 0
DWIDTH 28 0
BBX 8 22 10 0
BITMAP
10
18
24
24
42
81
81
6E
28
28
28
28
28
28
28
28
28
28
28
28
28
18
ENDCHAR
STARTCHAR 21E8
ENCODING 8680
SWIDTH 1000 0
DWIDTH 28 0
BBX 22 9 3 6
BITMAP
000100
0002C0
000230
FFFC0C
800004
FFFE18
000220
0002C0
000100
ENDCHAR
STARTCHAR 21E9
ENCODING 8681
SWIDTH 1000 0
DWIDTH 28 0
BBX 8 22 10 -1
BITMAP
18
28
28
28
28
28
28
28
28
28
28
28
28
28
28
E7
81
82
42
24
28
18
ENDCHAR
STARTCHAR 2200
ENCODING 8704
SWIDTH 750 0
DWIDTH 21 0
BBX 19 20 1 0
BITMAP
C00060
C00040
4000C0
600080
200180
300100
100300
1FFE00
080600
0C0400
040C00
060800
020800
031800
011000
013000
00A000
00E000
004000
004000
ENDCHAR
STARTCHAR 2202
ENCODING 8706
SWIDTH 571 0
DWIDTH 16 0
BBX 13 21 2 0
BITMAP
0780
0860
1020
0030
0030
0030
0030
0018
0018
1F38
30B0
6070
C030
C030
C030
C060
C060
C0C0
C180
6380
3E00
ENDCHAR
STARTCHAR 2203
ENCODING 8707
SWIDTH 750 0
DWIDTH 21 0
BBX 14 20 3 0
BITMAP
FFFC
000C
000C
000C
000C
000C
000C
000C
000C
FFFC
000C
000C
000C
000C
000C
000C
000C
000C
000C
FFFC
ENDCHAR
STARTCHAR 2205
ENCODING 8709
SWIDTH 785 0
DWIDTH 22 0
BBX 18 17 2 2
BITMAP
03F080
0C0D80
100300
200700
400C80
401880
8030C0
806040
80C040
818040
8300C0
C60080
4C0180
780100
300200
7C0C00
43F000
ENDCHAR
STARTCHAR 2207
ENCODING 8711
SWIDTH 750 0
DWIDTH 21 0
BBX 18 20 1 0
BITMAP
FFFFC0
7FFFC0
600080
300080
300180
180100
180300
0C0200
0C0600
0E0400
060C00
070800
030800
031000
019000
01B000
00E000
00E000
00C000
004000
ENDCHAR
STARTCHAR 2208
ENCODING 8712
SWIDTH 678 0
DWIDTH 19 0
BBX 15 14 2 2
BITMAP
0FFE
3800
6000
4000
C000
8000
FFFE
8000
8000
C000
4000
6000
3800
0FFE
ENDCHAR
STARTCHAR 2209
ENCODING 8713
SWIDTH 678 0
DWIDTH 19 0
BBX 15 18 2 0
BITMAP
0010
0030
0FFE
3860
6040
40C0
80C0
8080
FFFE
8100
8300
C300
4200
6600
3600
0FFE
0C00
0800
ENDCHAR
STARTCHAR 220B
ENCODING 8715
SWIDTH 678 0
DWIDTH 19 0
BBX 15 14 2 2
BITMAP
FFE0
0030
000C
0004
0006
0002
FFFE
0002
0002
0006
0004
000C
0038
FFE0
ENDCHAR
STARTCHAR 2212
ENCODING 8722
SWIDTH 678 0
DWIDTH 19 0
BBX 15 1 2 9
BITMAP
FFFE
ENDCHAR
STARTCHAR 2213
ENCODING 8723
SWIDTH 678 0
DWIDTH 19 0
BBX 15 15 2 1
BITMAP
FFFE
0000
0100
0100
0100
0100
0100
0100
FFFE
0100
0100
0100
0100
0100
0100
ENDCHAR
STARTCHAR 2219
ENCODING 8729
SWIDTH 250 0
DWIDTH 7 0
BBX 3 3 2 7
BITMAP
C0
E0
C0
ENDCHAR
STARTCHAR 221A
ENCODING 8730
SWIDTH 535 0
DWIDTH 15 0
BBX 14 26 1 -2
BITMAP
0004
0004
000C
0008
0008
0010
0010
0030
0020
0020
0060
0040
0040
00C0
2080
2080
2180
7100
7100
9300
9A00
1A00
0C00
0C00
0C00
0800
ENDCHAR
STARTCHAR 221D
ENCODING 8733
SWIDTH 678 0
DWIDTH 19 0
BBX 13 9 3 5
BITMAP
3838
C468
82C0
8380
8180
8180
8280
C6C0
3838
ENDCHAR
STARTCHAR 221E
ENCODING 8734
SWIDTH 678 0
DWIDTH 19 0
BBX 17 9 1 5
BITMAP
3C1E00
662300
434100
C14180
818180
C1C180
414100
626300
3C1C00
ENDCHAR
STARTCHAR 221F
ENCODING 8735
SWIDTH 678 0
DWIDTH 19 0
BBX 14 16 3 2
BITMAP
8000
8000
8000
8000
8000
8000
8000
8000
8000
8000
8000
8000
8000
8000
8000
FFFC
ENDCHAR
STARTCHAR 2220
ENCODING 8736
SWIDTH 678 0
DWIDTH 19 0
BBX 17 17 1 2
BITMAP
004000
004000
00C000
008000
018000
010000
030000
060000
060000
0C0000
080000
180000
100000
300000
200000
600000
FFFF80
ENDCHAR
STARTCHAR 2225
ENCODING 8741
SWIDTH 678 0
DWIDTH 19 0
BBX 13 25 3 -2
BITMAP
0088
0088
0118
0110
0110
0220
0220
0620
0440
0440
0C40
0880
0880
1980
1100
1100
3300
2200
2200
6600
4400
4400
CC00
8800
8800
ENDCHAR
STARTCHAR 2226
ENCODING 8742
SWIDTH 678 0
DWIDTH 19 0
BBX 13 25 3 -2
BITMAP
0088
0188
0110
0110
0330
8220
C220
6660
3440
1C40
0CC0
0E80
0B80
1980
11C0
1140
3320
2210
2208
6600
4400
4400
CC00
8800
8800
ENDCHAR
STARTCHAR 2227
ENCODING 8743
SWIDTH 678 0
DWIDTH 19 0
BBX 15 15 2 2
BITMAP
0100
0380
0280
06C0
0440
0C60
0820
1830
1010
3010
2008
2008
600C
4004
C006
ENDCHAR
STARTCHAR 2228
ENCODING 8744
SWIDTH 678 0
DWIDTH 19 0
BBX 15 15 2 1
BITMAP
C006
4004
600C
2008
3018
1010
1010
1820
0820
0C60
0440
06C0
0280
0380
0100
ENDCHAR
STARTCHAR 2229
ENCODING 8745
SWIDTH 678 0
DWIDTH 19 0
BBX 13 16 3 1
BITMAP
0F80
3060
6030
C010
C018
8008
8008
8008
8008
8008
8008
8008
8008
8008
8008
8008
ENDCHAR
STARTCHAR 222A
ENCODING 8746
SWIDTH 678 0
DWIDTH 19 0
BBX 13 17 3 0
BITMAP
8008
8008
8008
8008
8008
8008
8008
8008
8008
8008
8008
8008
C018
4010
6030
3060
0F80
ENDCHAR
STARTCHAR 222B
ENCODING 8747
SWIDTH 571 0
DWIDTH 16 0
BBX 14 25 1 -5
BITMAP
0078
00CC
008C
0180
0180
0100
0100
0300
0300
0300
0300
0300
0300
0300
0300
0300
0300
0200
0200
0200
0600
C600
C400
CC00
7800
ENDCHAR
STARTCHAR 222C
ENCODING 8748
SWIDTH 892 0
DWIDTH 25 0
BBX 23 25 1 -5
BITMAP
00783C
00CC66
008C46
0180C0
018080
010080
010180
030180
030180
030180
030180
030180
030180
030180
030180
030180
030180
020100
020100
020300
060300
C66300
C46200
CC6600
783C00
ENDCHAR
STARTCHAR 222E
ENCODING 8750
SWIDTH 571 0
DWIDTH 16 0
BBX 14 25 1 -5
BITMAP
0078
00CC
008C
0180
0180
0100
0100
0300
0700
0BC0
1320
1320
1320
1320
0B40
0780
0300
0200
0200
0200
0600
C600
C400
CC00
7800
ENDCHAR
STARTCHAR 2234
ENCODING 8756
SWIDTH 678 0
DWIDTH 19 0
BBX 15 14 2 2
BITMAP
0380
0380
0380
0380
0000
0000
0000
0000
0000
0000
600C
E01E
F01E
600C
ENDCHAR
STARTCHAR 2235
ENCODING 8757
SWIDTH 678 0
DWIDTH 19 0
BBX 15 14 2 2
BITMAP
600C
E01E
F01E
600C
0000
0000
0000
0000
0000
0000
0380
0380
0380
0380
ENDCHAR
STARTCHAR 223C
ENCODING 8764
SWIDTH 500 0
DWIDTH 14 0
BBX 7 3 4 17
BITMAP
E0
B2
0C
ENDCHAR
STARTCHAR 223D
ENCODING 8765
SWIDTH 678 0
DWIDTH 19 0
BBX 17 9 1 5
BITMAP
001C00
382300
604100
40C180
C08180
C18180
410100
620300
3C0E00
ENDCHAR
STARTCHAR 2243
ENCODING 8771
SWIDTH 678 0
DWIDTH 19 0
BBX 15 7 2 5
BITMAP
3E02
C3C4
8078
0000
0000
0000
FFFE
ENDCHAR
STARTCHAR 2245
ENCODING 8773
SWIDTH 678 0
DWIDTH 19 0
BBX 15 11 2 3
BITMAP
3C02
4702
81C4
0078
0000
0000
FFFE
0000
0000
0000
FFFE
ENDCHAR
STARTCHAR 2248
ENCODING 8776
SWIDTH 678 0
DWIDTH 19 0
BBX 15 9 2 4
BITMAP
3C02
4702
81C4
0078
0000
3C02
4702
81C4
0078
ENDCHAR
STARTCHAR 2252
ENCODING 8786
SWIDTH 678 0
DWIDTH 19 0
BBX 15 18 2 0
BITMAP
3000
7800
7800
3000
0000
0000
FFFE
0000
0000
0000
0000
FFFE
0000
0000
0018
003C
003C
0018
ENDCHAR
STARTCHAR 2260
ENCODING 8800
SWIDTH 678 0
DWIDTH 19 0
BBX 15 16 2 0
BITMAP
0060
0060
0040
00C0
00C0
FFFE
0180
0100
0100
0300
FFFE
0600
0600
0400
0400
0C00
ENDCHAR
STARTCHAR 2261
ENCODING 8801
SWIDTH 678 0
DWIDTH 19 0
BBX 15 10 2 4
BITMAP
FFFE
0000
0000
0000
FFFE
0000
0000
0000
0000
FFFE
ENDCHAR
STARTCHAR 2262
ENCODING 8802
SWIDTH 678 0
DWIDTH 19 0
BBX 15 16 2 0
BITMAP
0060
0060
0040
FFFE
0080
0080
0180
FFFE
0300
0300
0200
0200
FFFE
0400
0400
0C00
ENDCHAR
STARTCHAR 2266
ENCODING 8806
SWIDTH 678 0
DWIDTH 19 0
BBX 15 17 2 1
BITMAP
0006
007C
03C0
1E00
F000
C000
3800
0780
00F0
001E
0002
0000
FFFE
0000
0000
0000
FFFE
ENDCHAR
STARTCHAR 2267
ENCODING 8807
SWIDTH 678 0
DWIDTH 19 0
BBX 15 17 2 1
BITMAP
C000
7C00
0780
00F0
001E
0006
0038
03C0
1E00
F000
8000
0000
FFFE
0000
0000
0000
FFFE
ENDCHAR
STARTCHAR 226A
ENCODING 8810
SWIDTH 678 0
DWIDTH 19 0
BBX 15 15 2 1
BITMAP
00C6
030C
0618
0C70
30C0
6180
C700
C600
6380
30C0
1C60
0638
030C
01C6
0002
ENDCHAR
STARTCHAR 226B
ENCODING 8811
SWIDTH 678 0
DWIDTH 19 0
BBX 15 15 2 1
BITMAP
C600
6180
30C0
1C60
0618
030C
01C6
00C6
038C
0618
0C70
38C0
6180
C700
8000
ENDCHAR
STARTCHAR 2276
ENCODING 8822
SWIDTH 678 0
DWIDTH 19 0
BBX 15 18 2 0
BITMAP
0002
001E
00F0
0F00
7800
C000
3C00
0780
0078
E00E
3E00
03C0
0038
0006
003C
03E0
1E00
F000
ENDCHAR
STARTCHAR 2277
ENCODING 8823
SWIDTH 678 0
DWIDTH 19 0
BBX 15 18 2 0
BITMAP
8000
F000
1E00
01E0
003C
0006
0078
03C0
3C00
E00E
00F8
0780
3800
C000
7800
0F80
00F0
001E
ENDCHAR
STARTCHAR 2282
ENCODING 8834
SWIDTH 678 0
DWIDTH 19 0
BBX 15 14 2 2
BITMAP
0FFE
3800
6000
4000
C000
8000
8000
8000
8000
C000
4000
6000
3000
0FFE
ENDCHAR
STARTCHAR 2283
ENCODING 8835
SWIDTH 678 0
DWIDTH 19 0
BBX 15 14 2 2
BITMAP
FFE0
0030
000C
0004
0006
0002
0002
0002
0002
0006
0004
000C
0038
FFE0
ENDCHAR
STARTCHAR 2284
ENCODING 8836
SWIDTH 678 0
DWIDTH 19 0
BBX 15 18 2 0
BITMAP
0018
0010
0FFE
3830
6020
4060
C040
8040
80C0
8080
8080
C180
4100
6300
3A00
0FFE
0600
0400
ENDCHAR
STARTCHAR 2285
ENCODING 8837
SWIDTH 678 0
DWIDTH 19 0
BBX 15 18 2 0
BITMAP
0040
00C0
FFE0
00B8
018C
0104
0306
0202
0202
0602
0402
0C06
0C04
080C
1838
FFE0
3000
3000
ENDCHAR
STARTCHAR 2286
ENCODING 8838
SWIDTH 678 0
DWIDTH 19 0
BBX 15 16 2 2
BITMAP
1FFE
3000
4000
C000
8000
8000
8000
8000
C000
4000
3000
1FFE
0000
0000
0000
FFFE
ENDCHAR
STARTCHAR 2287
ENCODING 8839
SWIDTH 678 0
DWIDTH 19 0
BBX 15 16 2 2
BITMAP
FFF0
0018
0004
0006
0002
0002
0002
0002
0006
0004
0018
FFF0
0000
0000
0000
FFFE
ENDCHAR
STARTCHAR 228A
ENCODING 8842
SWIDTH 678 0
DWIDTH 19 0
BBX 15 19 2 0
BITMAP
1FFE
3000
4000
C000
8000
8000
8000
8000
C000
4000
3000
1FFE
0000
0000
00C0
0080
FFFE
0300
0200
ENDCHAR
STARTCHAR 228B
ENCODING 8843
SWIDTH 678 0
DWIDTH 19 0
BBX 15 19 2 0
BITMAP
FFE0
0018
0004
0006
0002
0002
0002
0002
0006
0004
0018
FFF0
0000
0000
00C0
0080
FFFE
0300
0200
ENDCHAR
STARTCHAR 2295
ENCODING 8853
SWIDTH 857 0
DWIDTH 24 0
BBX 20 20 2 0
BITMAP
01F800
060600
180180
306040
606060
406020
C06010
806010
806010
9FFF90
806010
806010
806010
C06030
406020
606060
3060C0
180180
0E0700
01F800
ENDCHAR
STARTCHAR 2296
ENCODING 8854
SWIDTH 857 0
DWIDTH 24 0
BBX 20 20 2 0
BITMAP
01F800
060600
180180
300040
600060
400020
C00010
800010
800010
9FFF90
800010
800010
800010
C00030
400020
600060
3000C0
180180
0E0700
01F800
ENDCHAR
STARTCHAR 2297
ENCODING 8855
SWIDTH 857 0
DWIDTH 24 0
BBX 20 20 2 0
BITMAP
01F800
060600
180180
300040
6C0360
460620
C30C10
819810
80F010
806010
80F010
819810
830C10
C60630
4C0320
600060
3000C0
180180
0E0700
03F800
ENDCHAR
STARTCHAR 22A5
ENCODING 8869
SWIDTH 678 0
DWIDTH 19 0
BBX 17 17 1 2
BITMAP
008000
008000
008000
008000
008000
008000
008000
008000
008000
008000
008000
008000
008000
008000
008000
008000
FFFF80
ENDCHAR
STARTCHAR 22BF
ENCODING 8895
SWIDTH 678 0
DWIDTH 19 0
BBX 16 16 2 3
BITMAP
0001
0003
0005
0009
0011
0031
0061
00C1
0181
0301
0601
0C01
1801
3001
6001
FFFF
ENDCHAR
STARTCHAR 22DA
ENCODING 8922
SWIDTH 678 0
DWIDTH 19 0
BBX 15 20 2 0
BITMAP
0002
007E
0FC0
F000
F000
1F80
00FC
0006
0000
FFFE
0000
8000
F800
0F80
007C
0006
007C
07C0
FC00
C000
ENDCHAR
STARTCHAR 22DB
ENCODING 8923
SWIDTH 678 0
DWIDTH 19 0
BBX 15 20 2 0
BITMAP
8000
FC00
07E0
001E
001E
03F0
7E00
C000
0000
FFFE
0000
0002
003E
07E0
7C00
C000
7C00
07C0
007E
0006
ENDCHAR
STARTCHAR 2305
ENCODING 8965
SWIDTH 678 0
DWIDTH 19 0
BBX 15 12 2 2
BITMAP
FFFE
0380
0280
06C0
04C0
0440
0C60
0820
1830
1010
3018
0010
ENDCHAR
STARTCHAR 2306
ENCODING 8966
SWIDTH 678 0
DWIDTH 19 0
BBX 15 16 2 0
BITMAP
FFFE
0000
0000
0000
FFFE
0380
0280
0680
06C0
0440
0C60
0820
1820
1830
1010
3018
ENDCHAR
STARTCHAR 2312
ENCODING 8978
SWIDTH 1000 0
DWIDTH 28 0
BBX 26 6 1 16
BITMAP
007F8000
07807000
1C000C00
30000300
40000080
80000040
ENDCHAR
STARTCHAR 2318
ENCODING 8984
SWIDTH 1000 0
DWIDTH 28 0
BBX 26 25 1 -2
BITMAP
3C000F00
62001180
41002080
C10020C0
41002080
61002180
3FFFFF00
01002000
01002000
01002000
01002000
01002000
01002000
01002000
01002000
01002000
01002000
01002000
3FFFFF00
61002180
41002080
C10020C0
C1002080
62001180
3C000F00
ENDCHAR
STARTCHAR 23BE
ENCODING 9150
SWIDTH 1000 0
DWIDTH 28 0
BBX 15 28 13 -3
BITMAP
FFFE
C000
C000
C000
C000
C000
C000
C000
C000
C000
C000
C000
C000
C000
C000
C000
C000
C000
C000
C000
C000
C000
C000
C000
C000
C000
C000
C000
ENDCHAR
STARTCHAR 23BF
ENCODING 9151
SWIDTH 1000 0
DWIDTH 28 0
BBX 15 28 13 -3
BITMAP
C000
C000
C000
C000
C000
C000
C000
C000
C000
C000
C000
C000
C000
C000
C000
C000
C000
C000
C000
C000
C000
C000
C000
C000
C000
C000
C000
FFFE
ENDCHAR
STARTCHAR 23C0
ENCODING 9152
SWIDTH 1000 0
DWIDTH 28 0
BBX 22 28 3 -3
BITMAP
003000
003000
003000
003000
01FE00
073180
0C30C0
103020
203030
603010
403008
403008
C03008
C0300C
80300C
C0300C
403008
403008
403008
203010
303030
183060
0C30C0
073380
00FC00
003000
003000
003000
ENDCHAR
STARTCHAR 23C1
ENCODING 9153
SWIDTH 1000 0
DWIDTH 28 0
BBX 28 28 0 -3
BITMAP
FFFFFFF0
00060000
00060000
000F0000
007FE000
01C61800
03060C00
06060600
04060200
08060300
08060100
08060100
18060180
18060180
10060180
18060180
08060100
08060100
0C060300
04060200
02060400
03060800
00C63000
007FE000
00060000
00060000
00060000
00060000
ENDCHAR
STARTCHAR 23C2
ENCODING 9154
SWIDTH 1000 0
DWIDTH 28 0
BBX 28 28 0 -3
BITMAP
00060000
00060000
00060000
00060000
007FC000
00C63000
01060800
02060400
04060200
0C060300
08060100
08060100
18060180
18060180
10060180
18060180
08060100
08060100
0C060300
04060200
06060600
03060C00
01861800
007FE000
000F0000
00060000
00060000
FFFFFFF0
ENDCHAR
STARTCHAR 23C3
ENCODING 9155
SWIDTH 1000 0
DWIDTH 28 0
BBX 24 27 2 -3
BITMAP
001800
001800
001800
001800
001800
003C00
003C00
007A00
005B00
009900
019980
011880
0318C0
021840
041820
0C1830
081810
181818
101808
201804
601806
401802
FFFFFF
001800
001800
001800
001800
ENDCHAR
STARTCHAR 23C4
ENCODING 9156
SWIDTH 1000 0
DWIDTH 28 0
BBX 28 28 0 -3
BITMAP
FFFFFFF0
00060000
00060000
00060000
00060000
00060000
000F0000
001F8000
00168000
0036C000
00264000
00662000
00462000
00861000
01861800
01060800
03060C00
02060400
06060200
04060200
08060100
18060180
10060080
3FFFFFC0
00060000
00060000
00060000
00060000
ENDCHAR
STARTCHAR 23C5
ENCODING 9157
SWIDTH 1000 0
DWIDTH 28 0
BBX 28 27 0 -3
BITMAP
00060000
00060000
00060000
00060000
00060000
000F0000
000F0000
00168000
00368000
00264000
00666000
00462000
00C63000
00861000
01060800
03060C00
02060400
06060600
04060200
08060100
18060180
10060080
3FFFFFC0
00060000
00060000
00060000
FFFFFFF0
ENDCHAR
STARTCHAR 23C6
ENCODING 9158
SWIDTH 1000 0
DWIDTH 28 0
BBX 24 28 2 -3
BITMAP
001800
001800
001800
001800
001800
001800
001800
001800
001800
001800
001800
1F1800
61D800
803800
001800
001E01
001B86
0018F8
001800
001800
001800
001800
001800
001800
001800
001800
001800
001800
ENDCHAR
STARTCHAR 23C7
ENCODING 9159
SWIDTH 1000 0
DWIDTH 28 0
BBX 28 28 0 -3
BITMAP
FFFFFFF0
00060000
00060000
00060000
00060000
00060000
00060000
00060000
00060000
00060000
00060000
0FC60000
303E0000
000E0000
00070040
0006C1C0
00063F00
00060000
00060000
00060000
00060000
00060000
00060000
00060000
00060000
00060000
00060000
00060000
ENDCHAR
STARTCHAR 23C8
ENCODING 9160
SWIDTH 1000 0
DWIDTH 28 0
BBX 28 28 0 -3
BITMAP
00060000
00060000
00060000
00060000
00060000
00060000
00060000
00060000
00060000
00060000
00060000
0FC60000
38360000
200E0000
00070000
0007C0C0
00063F00
00060000
00060000
00060000
00060000
00060000
00060000
00060000
00060000
00060000
00060000
FFFFFFF0
ENDCHAR
STARTCHAR 23C9
ENCODING 9161
SWIDTH 1000 0
DWIDTH 28 0
BBX 28 28 0 -3
BITMAP
FFFFFFF0
00060000
00060000
00060000
00060000
00060000
00060000
00060000
00060000
00060000
00060000
00060000
00060000
00060000
00060000
00060000
00060000
00060000
00060000
00060000
00060000
00060000
00060000
00060000
00060000
00060000
00060000
00060000
ENDCHAR
STARTCHAR 23CA
ENCODING 9162
SWIDTH 1000 0
DWIDTH 28 0
BBX 28 28 0 -3
BITMAP
00060000
00060000
00060000
00060000
00060000
00060000
00060000
00060000
00060000
00060000
00060000
00060000
00060000
00060000
00060000
00060000
00060000
00060000
00060000
00060000
00060000
00060000
00060000
00060000
00060000
00060000
00060000
FFFFFFF0
ENDCHAR
STARTCHAR 23CB
ENCODING 9163
SWIDTH 1000 0
DWIDTH 28 0
BBX 15 28 0 -3
BITMAP
FFFE
0006
0006
0006
0006
0006
0006
0006
0006
0006
0006
0006
0006
0006
0006
0006
0006
0006
0006
0006
0006
0006
0006
0006
0006
0006
0006
0006
ENDCHAR
STARTCHAR 23CC
ENCODING 9164
SWIDTH 1000 0
DWIDTH 28 0
BBX 15 28 0 -3
BITMAP
0006
0006
0006
0006
0006
0006
0006
0006
0006
0006
0006
0006
0006
0006
0006
0006
0006
0006
0006
0006
0006
0006
0006
0006
0006
0006
0006
FFFE
ENDCHAR
STARTCHAR 23CE
ENCODING 9166
SWIDTH 1000 0
DWIDTH 28 0
BBX 23 23 2 -1
BITMAP
0001FE
000102
000102
000102
000102
000102
000102
000102
018102
038102
068102
0C8102
18FE02
200002
C00002
800002
400004
30000C
18FFF0
0C8000
068000
018000
008000
ENDCHAR
STARTCHAR 2423
ENCODING 9251
SWIDTH 1000 0
DWIDTH 28 0
BBX 22 6 3 -1
BITMAP
800004
800004
800004
800004
800004
FFFFFC
ENDCHAR
STARTCHAR 2460
ENCODING 9312
SWIDTH 1000 0
DWIDTH 28 0
BBX 26 25 1 -2
BITMAP
003F0000
01C0E000
06001000
0C000C00
18040600
303C0200
200C0100
400C0080
400C0080
400C0080
800C0080
800C0040
800C0040
800C0040
800C0080
400C0080
400C0080
400C0080
200C0100
100C0200
103F8200
0C000400
02001800
01C06000
007F8000
ENDCHAR
STARTCHAR 2461
ENCODING 9313
SWIDTH 1000 0
DWIDTH 28 0
BBX 26 25 1 -2
BITMAP
003F0000
00C0C000
03003000
04000800
081E0400
10618200
20C0C100
20C0C100
40C0C080
40C0C080
8000C080
8001C040
80018040
80030040
80060040
800C0080
40102080
40202080
20402100
20806200
11FFE200
08000400
06001800
01806000
007F8000
ENDCHAR
STARTCHAR 2462
ENCODING 9314
SWIDTH 1000 0
DWIDTH 28 0
BBX 26 25 1 -2
BITMAP
007F8000
0180E000
06001800
08000C00
103F0600
20618300
20C0C100
40C0C080
40C0C080
4000C080
80018080
801F0040
801F0040
8000C040
80006080
40006080
40C06080
41C06100
2180C100
10C18200
183F0600
0C000C00
02001000
01C0E000
007F0000
ENDCHAR
STARTCHAR 2463
ENCODING 9315
SWIDTH 1000 0
DWIDTH 28 0
BBX 26 25 1 -2
BITMAP
003F0000
01C0E000
02001000
0C000C00
18030600
10070200
200F0100
400B0080
40130080
40230080
80630080
80C30040
80830040
81030040
82030080
43FFE080
40030080
40030080
20030100
10030200
101FC200
0C000400
02001800
01C06000
007F8000
ENDCHAR
STARTCHAR 2464
ENCODING 9316
SWIDTH 1000 0
DWIDTH 28 0
BBX 26 24 1 -1
BITMAP
007F8000
0180E000
06001800
08000C00
107FC600
20400300
20400100
40C00080
40C00080
80DF0080
80A18040
80C0C040
8000E040
80006040
80006080
40C06080
41C06080
20C0C100
20C0C100
10638200
083E0400
06000800
01807000
007F8000
ENDCHAR
STARTCHAR 2465
ENCODING 9317
SWIDTH 1000 0
DWIDTH 28 0
BBX 26 25 1 -2
BITMAP
007F8000
0180E000
06001800
08000C00
100F0600
2030C300
2061C100
4040C080
40C00080
40C00080
819F0080
81A18040
81C0C040
8180C040
81806080
41806080
40C0C080
40C0C100
2040C100
10718200
181F0600
0C000C00
02001000
01C0E000
007F0000
ENDCHAR
STARTCHAR 2466
ENCODING 9318
SWIDTH 1000 0
DWIDTH 28 0
BBX 26 25 1 -1
BITMAP
003F0000
00C0C000
03003000
04000800
08000400
10FFE200
20C04100
20804100
40808080
40818080
80010080
80030040
80030040
80020040
80060040
80060080
40040080
400C0080
200C0100
200C0200
100C0200
0C0C0400
06001800
01C06000
007F8000
ENDCHAR
STARTCHAR 2467
ENCODING 9319
SWIDTH 1000 0
DWIDTH 28 0
BBX 26 25 1 -2
BITMAP
007F8000
0180E000
06001800
08000C00
103F0600
20618300
20C0C100
40C0C080
40C0C080
40E08080
80710080
801E0040
80370040
80418040
8080C080
41806080
41806080
41806100
2080C100
10E18200
183F0600
0C000C00
02001000
01C0E000
007F0000
ENDCHAR
STARTCHAR 2468
ENCODING 9320
SWIDTH 1000 0
DWIDTH 28 0
BBX 26 25 1 -2
BITMAP
007F8000
0180E000
06001800
08000C00
103E0600
20618300
20C0C100
40C0C080
40804080
40806080
80C06080
80C0E040
8061E040
803E6040
80006080
4000C080
40C0C080
40E0C100
20C18100
10630200
183E0600
0C000C00
02001000
01C0E000
007F0000
ENDCHAR
STARTCHAR 2469
ENCODING 9321
SWIDTH 1000 0
DWIDTH 28 0
BBX 26 26 1 -2
BITMAP
003F0000
01C0E000
02001000
04000800
0801C400
13832200
21863100
21861100
41841880
418C1880
818C1880
818C1840
818C1840
818C1840
818C1840
818C1880
41841880
41861080
21863100
21822100
17E1C200
18000400
0C000C00
02003000
01C0E000
003F0000
ENDCHAR
STARTCHAR 246A
ENCODING 9322
SWIDTH 1000 0
DWIDTH 28 0
BBX 26 26 1 -2
BITMAP
003F0000
01C0E000
02001000
04000800
08000400
1381E200
21806100
21806100
41806080
41806080
81806080
81806040
81806040
81806040
81806040
81806080
41806080
41806080
21806100
21806100
17E1FA00
18000400
0C000C00
02003000
01C0E000
003F0000
ENDCHAR
STARTCHAR 246B
ENCODING 9323
SWIDTH 1000 0
DWIDTH 28 0
BBX 26 25 1 -2
BITMAP
007F8000
0180E000
06001800
08000C00
1083C600
27863300
21843100
418E1080
41863080
41803080
81803080
81806040
81806040
8180C040
81818080
41810080
41820880
41860900
21841900
13EFFA00
18000600
0C000C00
02003000
01C0E000
007F0000
ENDCHAR
STARTCHAR 246C
ENCODING 9324
SWIDTH 1000 0
DWIDTH 28 0
BBX 26 26 1 -2
BITMAP
003F0000
01C0E000
02001000
04000800
0803C400
13862200
21843100
218E1100
41861080
41803080
81803080
81806040
81818040
81806040
81803040
81801880
41801880
418C1880
218C3100
21843100
17E3C200
18000400
0C000C00
02003000
01C0E000
003F0000
ENDCHAR
STARTCHAR 246D
ENCODING 9325
SWIDTH 1000 0
DWIDTH 28 0
BBX 26 25 1 -2
BITMAP
007F8000
0180E000
06001800
08000C00
10806600
37806200
2180E100
4181E080
41816080
41826080
81826080
81846040
81846040
81886040
81986080
419FF880
41806080
61806180
21806100
17E1FA00
18000600
0C000C00
02003000
01C0E000
007F0000
ENDCHAR
STARTCHAR 246E
ENCODING 9326
SWIDTH 1000 0
DWIDTH 28 0
BBX 26 26 1 -2
BITMAP
003F0000
00C0C000
03003000
04000800
08000400
1787F200
21840100
21840100
41840080
41840080
8185E080
81863040
818C1040
81801840
81801840
81801880
418C1880
418E1880
618C3100
21846100
17E3C200
18000600
0C000C00
02003000
01C0E000
003F0000
ENDCHAR
STARTCHAR 246F
ENCODING 9327
SWIDTH 1000 0
DWIDTH 28 0
BBX 26 26 1 -2
BITMAP
003F0000
01C0E000
02001000
04000800
0801E400
13833200
21821100
21863100
41843080
418C0080
818C0080
818DE040
818E3040
818C1840
818C1840
818C1880
418C1880
41841880
21861100
21863100
17E1E200
18000400
0C000C00
02003000
01C0E000
003F0000
ENDCHAR
STARTCHAR 2470
ENCODING 9328
SWIDTH 1000 0
DWIDTH 28 0
BBX 26 26 1 -2
BITMAP
003F0000
00C0C000
03003000
04000800
08000400
138FFA00
218C1100
21881100
41882080
41882080
81806080
81804040
81804040
8180C040
8180C040
81808080
41818080
41818080
61818100
21818100
17E18200
18000600
0C000C00
02003000
01C0E000
003F0000
ENDCHAR
STARTCHAR 2471
ENCODING 9329
SWIDTH 1000 0
DWIDTH 28 0
BBX 26 26 1 -2
BITMAP
003F0000
01C0E000
02001000
04000800
0803C400
13863200
21841100
21841100
41841080
41861080
81862080
81834040
8181C040
81826040
81843040
818C1880
41881880
41881880
218C1900
21863100
17E3E200
18000400
0C000C00
02003000
01C0E000
003F0000
ENDCHAR
STARTCHAR 2472
ENCODING 9330
SWIDTH 1000 0
DWIDTH 28 0
BBX 26 26 1 -2
BITMAP
003F0000
01C0E000
02001000
04000800
0803C400
13862200
21843100
218C1100
418C1880
418C1880
818C1880
818C1840
81841840
81863840
8183D840
81801880
41801080
41863080
218E3100
21846100
17E3C200
18000400
0C000C00
02003000
01C0E000
003F0000
ENDCHAR
STARTCHAR 2473
ENCODING 9331
SWIDTH 1000 0
DWIDTH 28 0
BBX 26 25 1 -2
BITMAP
007F8000
0180E000
06001800
08000C00
11E0E600
26319300
24311900
46131880
46330880
40330880
80330C80
80630C40
80430C40
80C30C40
80830880
41030880
43131880
42111900
24119100
17F0E200
18000600
0C000C00
02003000
01C0E000
007F0000
ENDCHAR
STARTCHAR 24D0
ENCODING 9424
SWIDTH 1000 0
DWIDTH 28 0
BBX 26 25 1 -2
BITMAP
007F8000
0180E000
06001800
08000C00
10000600
20000300
20000100
403E0080
40410080
40618080
80018080
800F8040
80318040
80418040
80C18080
40C18080
40C3A080
407CC100
20000100
10000200
18000600
0C000C00
02001000
01C0E000
007F0000
ENDCHAR
STARTCHAR 24D1
ENCODING 9425
SWIDTH 1000 0
DWIDTH 28 0
BBX 26 25 1 -2
BITMAP
007F8000
0180E000
06001800
08000C00
11E00600
20600300
20600100
40600080
40600080
406F0080
8070C080
80604040
80606040
80606040
80602080
40606080
40606080
40606100
2070C100
104F0200
18000600
0C000C00
02001000
01C0E000
007F0000
ENDCHAR
STARTCHAR 24D2
ENCODING 9426
SWIDTH 1000 0
DWIDTH 28 0
BBX 26 25 1 -2
BITMAP
007F8000
0180E000
06001800
08000C00
10000600
20000300
20000100
401F0080
40718080
40418080
80C00080
80C00040
80C00040
80C00040
80C00080
40C08080
40618080
401E0100
20000100
10000200
18000600
0C000C00
02001000
01C0E000
007F0000
ENDCHAR
STARTCHAR 24D3
ENCODING 9427
SWIDTH 1000 0
DWIDTH 28 0
BBX 26 25 1 -2
BITMAP
007F8000
0180E000
06001800
08000C00
10078600
20018300
20018100
40018080
40018080
403F8080
80E38080
80C18040
81818040
81818040
81818080
41818080
41818080
40818100
20C38100
103DC200
18000600
0C000C00
02001000
01C0E000
007F0000
ENDCHAR
STARTCHAR 24D4
ENCODING 9428
SWIDTH 1000 0
DWIDTH 28 0
BBX 26 26 1 -2
BITMAP
003F0000
00C0C000
03003000
04000800
08000400
10000200
20000100
201E0100
40610080
40408080
80C0C080
80C0C040
80FFC040
80800040
80C00040
80C00080
40404080
40618080
401E0100
20000100
10000200
18000600
0C000C00
02001000
01C0E000
003F0000
ENDCHAR
STARTCHAR 24D5
ENCODING 9429
SWIDTH 1000 0
DWIDTH 28 0
BBX 26 26 1 -2
BITMAP
003F0000
01C0E000
03001000
04000800
08000400
10078200
2008C100
2008C100
40180080
40180080
807F0080
80180040
80180040
80180040
80180040
80180080
40180080
40180080
40180100
20180100
103E0200
18000600
0C000C00
02001000
01C0E000
003F0000
ENDCHAR
STARTCHAR 24D6
ENCODING 9430
SWIDTH 1000 0
DWIDTH 28 0
BBX 26 25 1 -2
BITMAP
007F8000
0180E000
06001800
08000C00
10000600
201CE300
20636100
40410080
40418080
40418080
80630080
803E0040
80400040
80600040
803F8080
40C0C080
40806080
40806100
20E1C100
103F0200
18000600
0C000C00
02001000
01C0E000
007F0000
ENDCHAR
STARTCHAR 24D7
ENCODING 9431
SWIDTH 1000 0
DWIDTH 28 0
BBX 26 25 1 -2
BITMAP
007F8000
0180F000
06001800
08000C00
10E00600
20600300
20600100
40600080
40600080
806F0080
80708040
8060C040
80604040
80604040
80604080
40604080
40604080
40604100
20604100
11F1F200
18000600
0C000C00
02001000
01C0E000
003F0000
ENDCHAR
STARTCHAR 24D8
ENCODING 9432
SWIDTH 1000 0
DWIDTH 28 0
BBX 26 25 1 -2
BITMAP
007F8000
0180F000
06001800
080C0C00
100C0600
200C0300
20000100
40000080
40000080
801C0080
800C0040
800C0040
800C0040
800C0040
800C0080
400C0080
400C0080
400C0100
200C0100
101F0200
18000600
0C000C00
02001000
01C0E000
003F0000
ENDCHAR
STARTCHAR 24D9
ENCODING 9433
SWIDTH 1000 0
DWIDTH 28 0
BBX 26 25 1 -2
BITMAP
007F8000
0180E000
06061800
08060C00
10060600
20000300
20000100
40020080
400E0080
40060080
80060080
80060040
80060040
80060040
80060080
40060080
40060080
40060100
20060100
10660200
18440600
0C380C00
02001000
01C0E000
007F0000
ENDCHAR
STARTCHAR 24DA
ENCODING 9434
SWIDTH 1000 0
DWIDTH 28 0
BBX 26 25 1 -2
BITMAP
007F8000
0180E000
06001800
08000C00
10E00600
20600300
20600100
40600080
40600080
4063E080
80618080
80630040
80640040
806C0040
80760080
40620080
40630080
40618100
2060C100
10FBF200
10000200
0C000400
02001800
01C06000
007F8000
ENDCHAR
STARTCHAR 24DB
ENCODING 9435
SWIDTH 1000 0
DWIDTH 28 0
BBX 26 25 1 -2
BITMAP
007F8000
0180F000
06001800
08000C00
101C0600
200C0300
200C0100
400C0080
400C0080
800C0080
800C0040
800C0040
800C0040
800C0040
800C0080
400C0080
400C0080
400C0100
200C0100
101F0200
18000600
0C000C00
02001000
01C0E000
003F0000
ENDCHAR
STARTCHAR 24DC
ENCODING 9436
SWIDTH 1000 0
DWIDTH 28 0
BBX 26 25 1 -2
BITMAP
003F0000
01C0E000
02001000
0C000C00
18000600
30000200
20000100
4779E080
438E3080
43041080
83041080
83041840
83041840
83041840
83041880
43041880
43041880
47DF7C80
20000100
10000200
10000200
0C000400
02001800
01C06000
007F8000
ENDCHAR
STARTCHAR 24DD
ENCODING 9437
SWIDTH 1000 0
DWIDTH 28 0
BBX 26 25 1 -2
BITMAP
003F0000
01C0E000
02001000
0C000C00
18000600
30000200
20000100
41CF0080
40518080
4060C080
8060C080
8060C040
8060C040
8060C040
8060C080
4060C080
4060C080
41F1F080
20000100
10000200
10000200
0C000400
02001800
01C06000
007F8000
ENDCHAR
STARTCHAR 24DE
ENCODING 9438
SWIDTH 1000 0
DWIDTH 28 0
BBX 26 25 1 -2
BITMAP
007F8000
0180E000
06001800
08000C00
10000600
20000300
20000100
403E0080
40418080
40C0C080
80C0C080
80804040
80804040
80C0C040
80C0C080
40C0C080
40618080
401E0100
20000100
10000200
18000600
0C000C00
02001000
01C0E000
007F0000
ENDCHAR
STARTCHAR 24DF
ENCODING 9439
SWIDTH 1000 0
DWIDTH 28 0
BBX 26 26 1 -2
BITMAP
003F0000
00C0C000
03003000
04000800
08000400
10000200
20200100
20EF8100
4070C080
40606080
80606080
80602040
80606040
80606040
80606040
8070C080
406F8080
40600080
40600100
20600100
10F80200
18000600
0C000C00
02001000
01C0E000
003F0000
ENDCHAR
STARTCHAR 24E0
ENCODING 9440
SWIDTH 1000 0
DWIDTH 28 0
BBX 26 26 1 -2
BITMAP
003F0000
00C0C000
03003000
04000800
08000400
10000200
20008100
203F8100
40C18080
41818080
81818080
81018040
81018040
81818040
81818040
80C38080
407D8080
40018080
40018100
20018100
1007C200
18000600
0C000C00
02001000
01C0E000
003F0000
ENDCHAR
STARTCHAR 24E1
ENCODING 9441
SWIDTH 1000 0
DWIDTH 28 0
BBX 26 25 1 -2
BITMAP
003F0000
01C0E000
06001800
0C000C00
10000600
30000200
20000100
4073C080
4014C080
4018C080
80100080
80100040
80100040
80100040
80100080
40100080
40180080
407C0080
20000100
10000200
10000200
0C000400
02001800
01C06000
007F8000
ENDCHAR
STARTCHAR 24E2
ENCODING 9442
SWIDTH 1000 0
DWIDTH 28 0
BBX 26 25 1 -2
BITMAP
007F8000
0180E000
06001800
08000C00
10000600
20000300
20000100
403E8080
40618080
40608080
80700080
803C0040
800F0040
80018040
8040C080
4040C080
40718080
401F0100
20000100
10000200
18000600
0C000C00
02001000
01C0E000
007F0000
ENDCHAR
STARTCHAR 24E3
ENCODING 9443
SWIDTH 1000 0
DWIDTH 28 0
BBX 26 25 1 -2
BITMAP
007F8000
0180E000
06001800
08000C00
10000600
20080300
20180100
40380080
407F0080
40180080
80180080
80180040
80180040
80180040
80180080
40180080
40180080
40188100
200F0100
10000200
10000200
0C000400
02001800
01C06000
003F8000
ENDCHAR
STARTCHAR 24E4
ENCODING 9444
SWIDTH 1000 0
DWIDTH 28 0
BBX 26 25 1 -2
BITMAP
007F8000
0180E000
06001800
08000C00
10000600
20000300
20000100
41C38080
40C08080
40C08080
80C08080
80C08040
80C08040
80C08040
80408080
40408080
4063C080
403EE100
20000100
10000200
18000600
0C000C00
02001000
01C0E000
007F0000
ENDCHAR
STARTCHAR 24E5
ENCODING 9445
SWIDTH 1000 0
DWIDTH 28 0
BBX 26 25 1 -2
BITMAP
003F0000
01C0E000
02001000
0C000800
18000400
10000200
20000100
60000100
43F1F080
40C04080
80408080
80608040
80210040
80310040
80110080
801A0080
401A0080
400C0080
200C0100
20000200
10000200
08000400
06000800
01807000
007F8000
ENDCHAR
STARTCHAR 24E6
ENCODING 9446
SWIDTH 1000 0
DWIDTH 28 0
BBX 26 25 1 -2
BITMAP
003F0000
01C0E000
02001000
0C000C00
18000600
10000200
20000100
40000100
4F9F7C80
43041080
81061080
818E2040
818A2040
80932040
80D34080
80D14080
4061C080
40618080
20208100
20000200
10000200
08000400
06001800
01806000
007F8000
ENDCHAR
STARTCHAR 24E7
ENCODING 9447
SWIDTH 1000 0
DWIDTH 28 0
BBX 26 25 1 -2
BITMAP
007F8000
0180E000
06001800
08000C00
10000600
30000300
20000100
41F3E080
40608080
40310080
801A0080
800C0040
800C0040
80160040
80230080
40618080
40C0C080
43F3F100
20000100
10000200
10000200
0C000400
02001800
01C06000
007F8000
ENDCHAR
STARTCHAR 24E8
ENCODING 9448
SWIDTH 1000 0
DWIDTH 28 0
BBX 26 25 1 -2
BITMAP
007F8000
0180F000
06001800
08000C00
10000600
20000300
21F1F100
40604080
40204080
80308080
80108040
80190040
800D0040
800E0040
80060080
40040080
40040080
40C80100
20E80100
10700200
18000600
0C000C00
02001000
01C0E000
003F0000
ENDCHAR
STARTCHAR 24E9
ENCODING 9449
SWIDTH 1000 0
DWIDTH 28 0
BBX 26 25 1 -2
BITMAP
007F8000
0180E000
06001800
08000C00
10000600
30000300
20000100
407F8080
40618080
40430080
80060080
80040040
800C0040
80180040
80304080
40604080
4040C080
40FFC100
20000100
10000200
10000200
0C000400
02001800
01C06000
007F8000
ENDCHAR
STARTCHAR 24EB
ENCODING 9451
SWIDTH 1000 0
DWIDTH 28 0
BBX 26 26 1 -2
BITMAP
003F0000
01FFE000
03FFF000
07FFF800
0FFFFC00
187F1E00
3E7F9F00
3E7F9F00
7E7F9F80
7E7F9F80
7E7F9F80
FE7F9FC0
FE7F9FC0
FE7F9FC0
FE7F9FC0
7E7F9F80
7E7F9F80
7E7F9F80
3E7F9F00
3E7F9F00
181E0600
1FFFFC00
0FFFFC00
03FFF000
01FFE000
003F0000
ENDCHAR
STARTCHAR 24EC
ENCODING 9452
SWIDTH 1000 0
DWIDTH 28 0
BBX 26 25 1 -2
BITMAP
007F8000
01FFE000
07FFF800
0FFFFC00
1E7E1E00
3879CF00
3E7BEF00
7E79E780
7E79E780
7E7FEF80
FE7FCF80
FE7FDFC0
FE7F9FC0
FE7F3FC0
7E7F7F80
7E7EFF80
7E7CF780
7E7DF700
3E7BF700
18380600
1FFFFE00
0FFFFC00
03FFF000
01FFE000
007F0000
ENDCHAR
STARTCHAR 24ED
ENCODING 9453
SWIDTH 1000 0
DWIDTH 28 0
BBX 26 26 1 -2
BITMAP
003F0000
01FFE000
03FFF000
07FFF800
0FFE1C00
1879CE00
3E7BEF00
3E79E700
7E79E780
7E7FEF80
7E7FCF80
FE7FDFC0
FE7E7FC0
FE7FCFC0
FE7FE7C0
7E7FE780
7E7FE780
7E79E780
3E71E700
3E79CF00
181C1E00
1FFFFE00
0FFFFC00
03FFF000
01FFE000
003F0000
ENDCHAR
STARTCHAR 24EE
ENCODING 9454
SWIDTH 1000 0
DWIDTH 28 0
BBX 26 25 1 -2
BITMAP
003F8000
01FFE000
07FFF800
0FFFFC00
1F7F9E00
387F9E00
3E7F1F00
7E7F1F80
7E7E9F80
7E7E9F80
FE7D9F80
FE7D9FC0
FE7B9FC0
FE779FC0
FE779F80
7E600380
7E7F9F80
7E7F9F80
3E7F9F00
181E0600
1FFFFE00
0FFFFC00
03FFF000
01FFE000
003F0000
ENDCHAR
STARTCHAR 24EF
ENCODING 9455
SWIDTH 1000 0
DWIDTH 28 0
BBX 26 26 1 -2
BITMAP
003F0000
00FFC000
03FFF000
07FFF800
0FFFFC00
1E780E00
38780F00
3E7BFF00
7E7BFF80
7E7BFF80
7E7BFF80
FE7A1FC0
FE79CFC0
FE7BE7C0
FE7FE7C0
7E7FE780
7E7FE780
7E71E780
3E71E700
3E7BCF00
181C3E00
1FFFFE00
0FFFFC00
03FFF000
01FFE000
003F0000
ENDCHAR
STARTCHAR 24F0
ENCODING 9456
SWIDTH 1000 0
DWIDTH 28 0
BBX 26 26 1 -2
BITMAP
003F0000
01FFE000
03FFF000
07FFF800
0FFF1C00
187CEE00
3C7DE700
3E79C700
7E79EF80
7E7BFF80
7E7BFF80
FE721FC0
FE71CFC0
FE73E7C0
FE73E7C0
7E73E780
7E7BE780
7E79E780
3E79E700
3E7CCF00
181E1E00
1FFFFC00
0FFFFC00
03FFF000
01FFE000
003F0000
ENDCHAR
STARTCHAR 24F1
ENCODING 9457
SWIDTH 1000 0
DWIDTH 28 0
BBX 26 26 1 -2
BITMAP
003F0000
00FFC000
03FFF000
07FFF800
0FFFFC00
1E780600
38780700
3E7BFF00
7E7FEF80
7E7FEF80
7E7FDF80
FE7FDFC0
FE7F9FC0
FE7FBFC0
FE7F3FC0
7E7F3F80
7E7F3F80
7E7F3F80
3E7E7F00
3E7E7F00
181E7E00
1FFFFE00
0FFFFC00
03FFF000
01FFE000
003F0000
ENDCHAR
STARTCHAR 24F2
ENCODING 9458
SWIDTH 1000 0
DWIDTH 28 0
BBX 26 26 1 -2
BITMAP
003F0000
01FFE000
03FFF000
07FFF800
0FFE1C00
187DCE00
3E79EF00
3E7BE700
7E79E780
7E79EF80
7E7CCF80
FE7C1FC0
FE7E3FC0
FE7D9FC0
FE7BCFC0
7E73E780
7E73E780
7E73E780
3E73E700
3E79CF00
181C1E00
1FFFFE00
0FFFFC00
03FFF000
01FFE000
003F0000
ENDCHAR
STARTCHAR 24F3
ENCODING 9459
SWIDTH 1000 0
DWIDTH 28 0
BBX 26 26 1 -2
BITMAP
003F0000
01FFE000
03FFF000
07FFF800
0FFE1C00
187DCE00
3E79CF00
3E7BE700
7E73E780
7E73E780
7E73E780
FE7BE7C0
FE79E7C0
FE79C7C0
FE7E27C0
7E7FE780
7E7FE780
7E79EF80
3E79CF00
3E799F00
181C3E00
1FFFFE00
0FFFFC00
03FFF000
01FFE000
003F0000
ENDCHAR
STARTCHAR 24F4
ENCODING 9460
SWIDTH 1000 0
DWIDTH 28 0
BBX 26 25 1 -2
BITMAP
007F8000
01FFE000
07FFF800
0FFFFC00
1C3F0E00
399E6700
3BCE6700
71CEF780
79CCF380
7FCCF380
FFDCF380
FF9CF3C0
FFBCF3C0
FF7CF3C0
7E7CF380
7EFCF380
7DEEF780
79EEF700
3BEE6700
100F6E00
1FFFFE00
0FFFFC00
03FFF000
01FFE000
007F0000
ENDCHAR
STARTCHAR 24F5
ENCODING 9461
SWIDTH 1000 0
DWIDTH 28 0
BBX 26 27 1 -3
BITMAP
007F8000
03806000
047F1800
0980E400
16001200
281C0900
502C0500
500C0280
A00C0280
A00C0140
A00C0140
C00C0140
C00C0140
C00C0140
C00C0140
A00C0140
A00C0140
A00C0280
500C0280
500C0500
283F8900
34001200
1B002400
0CC1C800
063E1000
01C0E000
003F0000
ENDCHAR
STARTCHAR 24F6
ENCODING 9462
SWIDTH 1000 0
DWIDTH 28 0
BBX 26 27 1 -3
BITMAP
007F0000
01C0E000
063F1800
0DC0EC00
13003200
341F0B00
28618500
50C0C280
50C0C280
A0E0C140
A0C0C140
A000C140
C0018140
C0030140
C0060140
A00C0140
A0180140
A0302280
50602280
50C06480
28FFE900
24001200
13002200
0CC1CC00
063E1000
01C0E000
003F0000
ENDCHAR
STARTCHAR 24F7
ENCODING 9463
SWIDTH 1000 0
DWIDTH 28 0
BBX 26 27 1 -3
BITMAP
007F0000
01C0E000
063F1800
0DC0EC00
13003200
343F0B00
28618500
50C0C280
50C0C280
A0C0C140
A000C140
A0018140
C0070140
C01F0140
C000C140
A000C140
A0006140
A0C06280
51C06280
50C0C480
28E18900
243F1200
13002200
0CC1CC00
063E1000
01C0E000
003F0000
ENDCHAR
STARTCHAR 24F8
ENCODING 9464
SWIDTH 1000 0
DWIDTH 28 0
BBX 26 26 1 -3
BITMAP
007F8000
03BF6000
05C0F800
1B003400
14030A00
28070500
50070300
500B0280
A0130180
A0330140
A0630140
C0430140
C0830140
C1030140
A3030140
A3FFE140
A0030280
50030280
50030480
280FC900
24001200
13002200
0CC1CC00
063E1000
01C0E000
007F0000
ENDCHAR
STARTCHAR 24F9
ENCODING 9465
SWIDTH 1000 0
DWIDTH 28 0
BBX 26 27 1 -3
BITMAP
007F0000
01C0E000
067F1800
0D80EC00
16001200
387FCB00
30400500
50400280
60400280
A0C00140
A0DF0140
C0E18140
C0C0C140
C000C140
C0006140
A0006140
A0C06140
A0C06280
50C0C280
50C0C500
28638900
243E1200
13002400
0CC1C800
063E1000
01C0E000
003F0000
ENDCHAR
STARTCHAR 24FA
ENCODING 9466
SWIDTH 1000 0
DWIDTH 28 0
BBX 26 27 1 -3
BITMAP
007F0000
01C0E000
063F1800
0DC0EC00
13003200
340F0B00
28308500
5061C280
5040C280
A0C00140
A0C00140
A08F0140
C0B18140
C1C0C140
C180C140
A080C140
A080C140
A0C0C280
50C0C280
5060C480
28618900
241E1200
13002200
0CC1CC00
063E1000
01C0E000
003F0000
ENDCHAR
STARTCHAR 24FB
ENCODING 9467
SWIDTH 1000 0
DWIDTH 28 0
BBX 26 26 1 -3
BITMAP
007F8000
03806000
047F1800
1980E400
16001200
28FFE900
50C04500
5080C280
A0808280
A0818140
A0010140
C0030140
C0020140
C0060140
A0060140
A0040140
A00C0240
500C0280
500C0480
280C0900
240C1200
13002200
0CC1CC00
063E1000
01C0E000
007F0000
ENDCHAR
STARTCHAR 24FC
ENCODING 9468
SWIDTH 1000 0
DWIDTH 28 0
BBX 26 27 1 -3
BITMAP
007F0000
01C0E000
063F1800
0DC0EC00
13003200
341F0B00
28618500
50C0C280
50C0C280
A0C0C140
A0408140
A0710140
C03E0140
C0170140
C0618140
A080C140
A1804140
A1806280
51806280
50C0C480
28E18900
243F1200
13002200
0CC1CC00
063E1000
01C0E000
003F0000
ENDCHAR
STARTCHAR 24FD
ENCODING 9469
SWIDTH 1000 0
DWIDTH 28 0
BBX 26 27 1 -3
BITMAP
007F0000
01C0E000
063F1800
0DC0EC00
13003200
341E0B00
28618500
50C08280
50C0C280
A0C0C140
A0C04140
A0C04140
C0C0E140
C061E140
C03E6140
A0004140
A000C140
A0C0C280
50E08280
50C18480
28630900
243E1200
13002200
0CC1CC00
063E1000
01C0E000
003F0000
ENDCHAR
STARTCHAR 24FE
ENCODING 9470
SWIDTH 1000 0
DWIDTH 28 0
BBX 26 27 1 -3
BITMAP
007F0000
01C0E000
063F1800
0DC0EC00
13003200
3441CB00
2BC22500
50C63280
50C43280
A0C41140
A0CC1940
A0CC1940
C0CC1940
C0CC1940
C0CC1940
A0CC1940
A0C41140
A0C43280
50C63280
50C22500
2BF1C900
24001200
13002400
0CC1C800
063E1000
01C0E000
003F0000
ENDCHAR
STARTCHAR 2500
ENCODING 9472
SWIDTH 1000 0
DWIDTH 28 0
BBX 28 1 0 10
BITMAP
FFFFFFF0
ENDCHAR
STARTCHAR 2501
ENCODING 9473
SWIDTH 1000 0
DWIDTH 28 0
BBX 28 3 0 9
BITMAP
FFFFFFF0
FFFFFFF0
FFFFFFF0
ENDCHAR
STARTCHAR 2502
ENCODING 9474
SWIDTH 1000 0
DWIDTH 28 0
BBX 2 28 13 -3
BITMAP
C0
C0
C0
C0
C0
C0
C0
C0
C0
C0
C0
C0
C0
C0
C0
C0
C0
C0
C0
C0
C0
C0
C0
C0
C0
C0
C0
C0
ENDCHAR
STARTCHAR 2503
ENCODING 9475
SWIDTH 1000 0
DWIDTH 28 0
BBX 4 28 12 -3
BITMAP
F0
F0
F0
F0
F0
F0
F0
F0
F0
F0
F0
F0
F0
F0
F0
F0
F0
F0
F0
F0
F0
F0
F0
F0
F0
F0
F0
F0
ENDCHAR
STARTCHAR 250C
ENCODING 9484
SWIDTH 1000 0
DWIDTH 28 0
BBX 15 14 13 -3
BITMAP
FFFE
C000
C000
C000
C000
C000
C000
C000
C000
C000
C000
C000
C000
C000
ENDCHAR
STARTCHAR 250F
ENCODING 9487
SWIDTH 1000 0
DWIDTH 28 0
BBX 16 15 12 -3
BITMAP
FFFF
FFFF
FFFF
F000
F000
F000
F000
F000
F000
F000
F000
F000
F000
F000
F000
ENDCHAR
STARTCHAR 2510
ENCODING 9488
SWIDTH 1000 0
DWIDTH 28 0
BBX 15 14 0 -3
BITMAP
FFFE
0006
0006
0006
0006
0006
0006
0006
0006
0006
0006
0006
0006
0006
ENDCHAR
STARTCHAR 2513
ENCODING 9491
SWIDTH 1000 0
DWIDTH 28 0
BBX 16 15 0 -3
BITMAP
FFFF
FFFF
FFFF
000F
000F
000F
000F
000F
000F
000F
000F
000F
000F
000F
000F
ENDCHAR
STARTCHAR 2514
ENCODING 9492
SWIDTH 1000 0
DWIDTH 28 0
BBX 15 14 13 10
BITMAP
C000
C000
C000
C000
C000
C000
C000
C000
C000
C000
C000
C000
C000
FFFE
ENDCHAR
STARTCHAR 2517
ENCODING 9495
SWIDTH 1000 0
DWIDTH 28 0
BBX 16 16 12 9
BITMAP
F000
F000
F000
F000
F000
F000
F000
F000
F000
F000
F000
F000
F000
FFFF
FFFF
FFFF
ENDCHAR
STARTCHAR 2518
ENCODING 9496
SWIDTH 1000 0
DWIDTH 28 0
BBX 15 14 0 10
BITMAP
0006
0006
0006
0006
0006
0006
0006
0006
0006
0006
0006
0006
0006
FFFE
ENDCHAR
STARTCHAR 251B
ENCODING 9499
SWIDTH 1000 0
DWIDTH 28 0
BBX 16 16 0 9
BITMAP
000F
000F
000F
000F
000F
000F
000F
000F
000F
000F
000F
000F
000F
FFFF
FFFF
FFFF
ENDCHAR
STARTCHAR 251C
ENCODING 9500
SWIDTH 1000 0
DWIDTH 28 0
BBX 15 27 13 -3
BITMAP
C000
C000
C000
C000
C000
C000
C000
C000
C000
C000
C000
C000
C000
FFFE
C000
C000
C000
C000
C000
C000
C000
C000
C000
C000
C000
C000
C000
ENDCHAR
STARTCHAR 251D
ENCODING 9501
SWIDTH 1000 0
DWIDTH 28 0
BBX 15 27 13 -3
BITMAP
C000
C000
C000
C000
C000
C000
C000
C000
C000
C000
C000
C000
FFFE
FFFE
FFFE
C000
C000
C000
C000
C000
C000
C000
C000
C000
C000
C000
C000
ENDCHAR
STARTCHAR 2520
ENCODING 9504
SWIDTH 1000 0
DWIDTH 28 0
BBX 16 28 12 -3
BITMAP
F000
F000
F000
F000
F000
F000
F000
F000
F000
F000
F000
F000
F000
F000
FFFF
F000
F000
F000
F000
F000
F000
F000
F000
F000
F000
F000
F000
F000
ENDCHAR
STARTCHAR 2523
ENCODING 9507
SWIDTH 1000 0
DWIDTH 28 0
BBX 16 28 12 -3
BITMAP
F000
F000
F000
F000
F000
F000
F000
F000
F000
F000
F000
F000
F000
FFFF
FFFF
FFFF
F000
F000
F000
F000
F000
F000
F000
F000
F000
F000
F000
F000
ENDCHAR
STARTCHAR 2524
ENCODING 9508
SWIDTH 1000 0
DWIDTH 28 0
BBX 15 27 0 -3
BITMAP
0006
0006
0006
0006
0006
0006
0006
0006
0006
0006
0006
0006
0006
FFFE
0006
0006
0006
0006
0006
0006
0006
0006
0006
0006
0006
0006
0006
ENDCHAR
STARTCHAR 2525
ENCODING 9509
SWIDTH 1000 0
DWIDTH 28 0
BBX 15 27 0 -3
BITMAP
0006
0006
0006
0006
0006
0006
0006
0006
0006
0006
0006
0006
FFFE
FFFE
FFFE
0006
0006
0006
0006
0006
0006
0006
0006
0006
0006
0006
0006
ENDCHAR
STARTCHAR 2528
ENCODING 9512
SWIDTH 1000 0
DWIDTH 28 0
BBX 16 28 0 -3
BITMAP
000F
000F
000F
000F
000F
000F
000F
000F
000F
000F
000F
000F
000F
000F
FFFF
000F
000F
000F
000F
000F
000F
000F
000F
000F
000F
000F
000F
000F
ENDCHAR
STARTCHAR 252B
ENCODING 9515
SWIDTH 1000 0
DWIDTH 28 0
BBX 16 28 0 -3
BITMAP
000F
000F
000F
000F
000F
000F
000F
000F
000F
000F
000F
000F
000F
FFFF
FFFF
FFFF
000F
000F
000F
000F
000F
000F
000F
000F
000F
000F
000F
000F
ENDCHAR
STARTCHAR 252C
ENCODING 9516
SWIDTH 1000 0
DWIDTH 28 0
BBX 28 14 0 -3
BITMAP
FFFFFFF0
00060000
00060000
00060000
00060000
00060000
00060000
00060000
00060000
00060000
00060000
00060000
00060000
00060000
ENDCHAR
STARTCHAR 252F
ENCODING 9519
SWIDTH 1000 0
DWIDTH 28 0
BBX 28 15 0 -3
BITMAP
FFFFFFF0
FFFFFFF0
FFFFFFF0
00060000
00060000
00060000
00060000
00060000
00060000
00060000
00060000
00060000
00060000
00060000
00060000
ENDCHAR
STARTCHAR 2530
ENCODING 9520
SWIDTH 1000 0
DWIDTH 28 0
BBX 28 14 0 -3
BITMAP
FFFFFFF0
000F0000
000F0000
000F0000
000F0000
000F0000
000F0000
000F0000
000F0000
000F0000
000F0000
000F0000
000F0000
000F0000
ENDCHAR
STARTCHAR 2533
ENCODING 9523
SWIDTH 1000 0
DWIDTH 28 0
BBX 28 15 0 -3
BITMAP
FFFFFFF0
FFFFFFF0
FFFFFFF0
000F0000
000F0000
000F0000
000F0000
000F0000
000F0000
000F0000
000F0000
000F0000
000F0000
000F0000
000F0000
ENDCHAR
STARTCHAR 2534
ENCODING 9524
SWIDTH 1000 0
DWIDTH 28 0
BBX 28 14 0 10
BITMAP
00060000
00060000
00060000
00060000
00060000
00060000
00060000
00060000
00060000
00060000
00060000
00060000
00060000
FFFFFFF0
ENDCHAR
STARTCHAR 2537
ENCODING 9527
SWIDTH 1000 0
DWIDTH 28 0
BBX 28 15 0 9
BITMAP
00060000
00060000
00060000
00060000
00060000
00060000
00060000
00060000
00060000
00060000
00060000
00060000
FFFFFFF0
FFFFFFF0
FFFFFFF0
ENDCHAR
STARTCHAR 2538
ENCODING 9528
SWIDTH 1000 0
DWIDTH 28 0
BBX 28 15 0 10
BITMAP
000F0000
000F0000
000F0000
000F0000
000F0000
000F0000
000F0000
000F0000
000F0000
000F0000
000F0000
000F0000
000F0000
000F0000
FFFFFFF0
ENDCHAR
STARTCHAR 253B
ENCODING 9531
SWIDTH 1000 0
DWIDTH 28 0
BBX 28 16 0 9
BITMAP
000F0000
000F0000
000F0000
000F0000
000F0000
000F0000
000F0000
000F0000
000F0000
000F0000
000F0000
000F0000
000F0000
FFFFFFF0
FFFFFFF0
FFFFFFF0
ENDCHAR
STARTCHAR 253C
ENCODING 9532
SWIDTH 1000 0
DWIDTH 28 0
BBX 28 27 0 -3
BITMAP
00060000
00060000
00060000
00060000
00060000
00060000
00060000
00060000
00060000
00060000
00060000
00060000
00060000
FFFFFFF0
00060000
00060000
00060000
00060000
00060000
00060000
00060000
00060000
00060000
00060000
00060000
00060000
00060000
ENDCHAR
STARTCHAR 253F
ENCODING 9535
SWIDTH 1000 0
DWIDTH 28 0
BBX 28 27 0 -3
BITMAP
00060000
00060000
00060000
00060000
00060000
00060000
00060000
00060000
00060000
00060000
00060000
00060000
FFFFFFF0
FFFFFFF0
FFFFFFF0
00060000
00060000
00060000
00060000
00060000
00060000
00060000
00060000
00060000
00060000
00060000
00060000
ENDCHAR
STARTCHAR 2542
ENCODING 9538
SWIDTH 1000 0
DWIDTH 28 0
BBX 28 28 0 -3
BITMAP
000F0000
000F0000
000F0000
000F0000
000F0000
000F0000
000F0000
000F0000
000F0000
000F0000
000F0000
000F0000
000F0000
000F0000
FFFFFFF0
000F0000
000F0000
000F0000
000F0000
000F0000
000F0000
000F0000
000F0000
000F0000
000F0000
000F0000
000F0000
000F0000
ENDCHAR
STARTCHAR 254B
ENCODING 9547
SWIDTH 1000 0
DWIDTH 28 0
BBX 28 28 0 -3
BITMAP
000F0000
000F0000
000F0000
000F0000
000F0000
000F0000
000F0000
000F0000
000F0000
000F0000
000F0000
000F0000
000F0000
FFFFFFF0
FFFFFFF0
FFFFFFF0
000F0000
000F0000
000F0000
000F0000
000F0000
000F0000
000F0000
000F0000
000F0000
000F0000
000F0000
000F0000
ENDCHAR
STARTCHAR 25A0
ENCODING 9632
SWIDTH 1000 0
DWIDTH 28 0
BBX 20 21 4 0
BITMAP
FFFFF0
FFFFF0
FFFFF0
FFFFF0
FFFFF0
FFFFF0
FFFFF0
FFFFF0
FFFFF0
FFFFF0
FFFFF0
FFFFF0
FFFFF0
FFFFF0
FFFFF0
FFFFF0
FFFFF0
FFFFF0
FFFFF0
FFFFF0
FFFFF0
ENDCHAR
STARTCHAR 25A1
ENCODING 9633
SWIDTH 1000 0
DWIDTH 28 0
BBX 20 21 4 0
BITMAP
FFFFF0
800010
800010
800010
800010
800010
800010
800010
800010
800010
800010
800010
800010
800010
800010
800010
800010
800010
800010
800010
FFFFF0
ENDCHAR
STARTCHAR 25B1
ENCODING 9649
SWIDTH 1000 0
DWIDTH 28 0
BBX 24 11 2 5
BITMAP
0FFFFF
080003
180003
100002
300006
200004
60000C
400008
C00018
C00010
FFFFF0
ENDCHAR
STARTCHAR 25B2
ENCODING 9650
SWIDTH 1000 0
DWIDTH 28 0
BBX 22 21 3 1
BITMAP
003000
003000
007800
007800
00FC00
00FC00
01FE00
01FE00
03FF00
03FF00
07FF80
07FF80
0FFFC0
0FFFC0
1FFFE0
1FFFE0
3FFFF0
7FFFF8
7FFFF8
FFFFFC
FFFFFC
ENDCHAR
STARTCHAR 25B3
ENCODING 9651
SWIDTH 1000 0
DWIDTH 28 0
BBX 22 21 3 1
BITMAP
003000
003000
007800
004800
00CC00
008400
018600
010200
030300
020100
060180
040080
0C00C0
080040
100020
100020
200010
600018
400008
C0000C
FFFFFC
ENDCHAR
STARTCHAR 25B6
ENCODING 9654
SWIDTH 1000 0
DWIDTH 28 0
BBX 22 23 3 -1
BITMAP
800000
E00000
F80000
FE0000
FF8000
FFE000
FFF800
FFFE00
FFFF80
FFFFE0
FFFFF8
FFFFFC
FFFFF0
FFFFC0
FFFF00
FFFC00
FFF000
FFC000
FF8000
FE0000
F80000
E00000
800000
ENDCHAR
STARTCHAR 25B7
ENCODING 9655
SWIDTH 1000 0
DWIDTH 28 0
BBX 22 23 3 -1
BITMAP
800000
E00000
D80000
CE0000
C38000
C0E000
C03800
C00E00
C00380
C000E0
C00038
C0001C
C00070
C001C0
C00300
C00C00
C03000
C0C000
C38000
CE0000
F80000
E00000
800000
ENDCHAR
STARTCHAR 25BC
ENCODING 9660
SWIDTH 1000 0
DWIDTH 28 0
BBX 22 21 3 -1
BITMAP
FFFFFC
FFFFFC
7FFFF8
7FFFF8
3FFFF0
1FFFE0
1FFFE0
0FFFC0
0FFFC0
07FF80
07FF80
03FF00
03FF00
01FE00
01FE00
00FC00
00FC00
007800
007800
003000
003000
ENDCHAR
STARTCHAR 25BD
ENCODING 9661
SWIDTH 1000 0
DWIDTH 28 0
BBX 22 21 3 -1
BITMAP
FFFFFC
C0000C
400008
200018
200010
100020
100020
080040
0C00C0
040080
060180
020100
030300
010200
018600
008400
00CC00
004800
007800
003000
003000
ENDCHAR
STARTCHAR 25C0
ENCODING 9664
SWIDTH 1000 0
DWIDTH 28 0
BBX 22 23 3 -1
BITMAP
000004
00001C
00007C
0001FC
0007FC
001FFC
007FFC
01FFFC
07FFFC
1FFFFC
7FFFFC
FFFFFC
3FFFFC
0FFFFC
03FFFC
00FFFC
003FFC
000FFC
0003FC
0001FC
00007C
00001C
000004
ENDCHAR
STARTCHAR 25C1
ENCODING 9665
SWIDTH 1000 0
DWIDTH 28 0
BBX 22 23 3 -1
BITMAP
000004
00001C
00006C
0001CC
00070C
001C0C
00700C
01C00C
07000C
1C000C
70000C
E0000C
38000C
0E000C
03000C
00C00C
00300C
000C0C
00030C
0001CC
00007C
00001C
000004
ENDCHAR
STARTCHAR 25C6
ENCODING 9670
SWIDTH 1000 0
DWIDTH 28 0
BBX 26 25 1 -2
BITMAP
000C0000
001E0000
003F0000
007F8000
00FFC000
01FFE000
03FFF000
07FFF800
0FFFFC00
1FFFFE00
3FFFFF00
7FFFFF80
FFFFFFC0
7FFFFF80
3FFFFF00
1FFFFE00
0FFFFC00
07FFF800
03FFF000
01FFE000
00FFC000
007F8000
003F0000
001E0000
00080000
ENDCHAR
STARTCHAR 25C7
ENCODING 9671
SWIDTH 1000 0
DWIDTH 28 0
BBX 26 25 1 -2
BITMAP
000C0000
001E0000
00330000
00618000
00C0C000
01806000
03003000
06001800
0C000C00
18000600
30000300
60000180
C00000C0
60000180
30000300
18000600
0C000C00
06001800
03003000
01806000
00C0C000
00618000
00330000
001E0000
00080000
ENDCHAR
STARTCHAR 25C9
ENCODING 9673
SWIDTH 1000 0
DWIDTH 28 0
BBX 24 23 2 -1
BITMAP
007E00
0381C0
060060
080010
107C08
20FF04
61FF86
43FFC2
47FFE2
87FFE1
87FFE1
87FFE1
87FFE1
87FFE1
43FFC2
41FF82
60FF06
207E04
100008
180010
060060
0381C0
007E00
ENDCHAR
STARTCHAR 25CB
ENCODING 9675
SWIDTH 1000 0
DWIDTH 28 0
BBX 24 23 2 -1
BITMAP
007E00
0381C0
060060
080010
100008
200004
600006
400002
400002
C00003
800001
800001
800001
C00003
400002
400002
600006
200004
100008
080010
060060
0381C0
007F00
ENDCHAR
STARTCHAR 25CE
ENCODING 9678
SWIDTH 1000 0
DWIDTH 28 0
BBX 24 23 2 -1
BITMAP
007E00
0381C0
060060
080010
107C08
20C304
610186
4200C2
460062
840021
840021
840021
840021
860061
420042
410082
60C306
207E04
100008
180010
060060
0381C0
007E00
ENDCHAR
STARTCHAR 25CF
ENCODING 9679
SWIDTH 1000 0
DWIDTH 28 0
BBX 24 23 2 -1
BITMAP
007E00
03FFC0
07FFE0
0FFFF0
1FFFF8
3FFFFC
7FFFFE
7FFFFE
7FFFFE
FFFFFF
FFFFFF
FFFFFF
FFFFFF
FFFFFF
7FFFFE
7FFFFE
7FFFFE
3FFFFC
1FFFF8
0FFFF0
07FFE0
03FFC0
007F00
ENDCHAR
STARTCHAR 25D0
ENCODING 9680
SWIDTH 1000 0
DWIDTH 28 0
BBX 24 23 2 -1
BITMAP
007E00
03F1C0
07F020
0FF010
1FF008
3FF004
7FF002
7FF002
7FF002
FFF001
FFF001
FFF001
FFF001
FFF001
7FF002
7FF002
7FF006
3FF004
1FF008
1FF010
07F020
03F1C0
007E00
ENDCHAR
STARTCHAR 25D1
ENCODING 9681
SWIDTH 1000 0
DWIDTH 28 0
BBX 24 23 2 -1
BITMAP
007F00
038FC0
040FF0
080FF8
100FF8
200FFC
400FFE
400FFE
400FFE
800FFF
800FFF
800FFF
800FFF
800FFF
400FFE
400FFE
600FFE
200FFC
100FF8
180FF0
040FE0
030FC0
007E00
ENDCHAR
STARTCHAR 25D2
ENCODING 9682
SWIDTH 1000 0
DWIDTH 28 0
BBX 24 24 2 -1
BITMAP
007E00
0381C0
060060
080010
100008
200004
600004
400002
400002
C00003
800001
800001
FFFFFF
FFFFFF
FFFFFF
7FFFFE
7FFFFE
3FFFFC
3FFFFC
1FFFF8
0FFFF0
07FFE0
01FFC0
007E00
ENDCHAR
STARTCHAR 25D3
ENCODING 9683
SWIDTH 1000 0
DWIDTH 28 0
BBX 24 24 2 -1
BITMAP
007E00
03FFC0
07FFE0
0FFFF0
1FFFF8
3FFFFC
7FFFFC
7FFFFE
7FFFFE
FFFFFF
FFFFFF
FFFFFF
800001
800001
C00003
400002
400002
200004
200004
100008
080010
060060
0181C0
007E00
ENDCHAR
STARTCHAR 25E6
ENCODING 9702
SWIDTH 1000 0
DWIDTH 28 0
BBX 10 9 9 6
BITMAP
1E00
6180
4080
8040
8040
8040
4080
6180
1E00
ENDCHAR
STARTCHAR 25EF
ENCODING 9711
SWIDTH 1000 0
DWIDTH 28 0
BBX 26 25 1 -2
BITMAP
007F8000
0180E000
06001800
08000C00
10000600
20000300
20000100
40000080
40000080
40000080
80000080
80000040
80000040
80000040
80000080
40000080
40000080
40000100
20000100
10000200
18000600
0C000C00
02001000
01C0E000
007F0000
ENDCHAR
STARTCHAR 2600
ENCODING 9728
SWIDTH 1000 0
DWIDTH 28 0
BBX 26 27 1 -3
BITMAP
000C0000
000C0000
000C0000
000C0000
080C0400
0C000C00
063E1800
037FB000
00FFC000
01FFE000
03FFE000
03FFF000
03FFF000
FBFFF7C0
03FFF000
03FFE000
01FFE000
00FFC000
007F8000
033F3000
06001800
0C000C00
080C0400
000C0000
000C0000
000C0000
000C0000
ENDCHAR
STARTCHAR 2601
ENCODING 9729
SWIDTH 1000 0
DWIDTH 28 0
BBX 24 19 2 -1
BITMAP
00F800
03FE00
03FF00
07FF00
07FF80
07FF9E
07FFFF
07FFFF
1FFFFF
7FFFFF
7FFFFE
FFFFFC
FFFFFE
FFFFFF
FFEFFF
FFCFFF
7F87FF
1E03FE
0000F8
ENDCHAR
STARTCHAR 2602
ENCODING 9730
SWIDTH 1000 0
DWIDTH 28 0
BBX 26 25 1 -2
BITMAP
00080000
00080000
007F8000
03FFF000
07FFF800
1FFFFE00
1FFFFE00
3FFFFF00
7FFFFF80
479E7880
830C30C0
82081040
82081040
00080000
00080000
00080000
00080000
00080000
00080000
00080000
00080000
00080000
00480000
00480000
00780000
ENDCHAR
STARTCHAR 2603
ENCODING 9731
SWIDTH 1000 0
DWIDTH 28 0
BBX 26 26 1 -2
BITMAP
C0180000
C018C180
030120C0
05021000
02040800
00080400
70380400
30CC0B80
03031280
0400F100
04000800
04330800
64330800
62001000
011E21C0
02001140
CC000C80
D0000400
100C0200
200C0200
20000200
20000200
100C0200
100C0200
0C000C00
03FFF000
ENDCHAR
STARTCHAR 2605
ENCODING 9733
SWIDTH 1000 0
DWIDTH 28 0
BBX 26 25 1 -1
BITMAP
00080000
000C0000
000C0000
000C0000
001E0000
001E0000
001E0000
003F0000
003F0000
FFFFFFC0
3FFFFF00
1FFFFE00
07FFF800
03FFF000
01FFE000
00FFC000
01FFE000
01FFE000
03FFE000
03F3F000
03E0F000
07807800
07003800
06001800
08000400
ENDCHAR
STARTCHAR 2606
ENCODING 9734
SWIDTH 1000 0
DWIDTH 28 0
BBX 26 25 1 -1
BITMAP
00080000
000C0000
000C0000
000C0000
00120000
00120000
00120000
00210000
00210000
FFE1FFC0
20000100
18000600
04000800
03003000
01806000
00804000
01002000
01002000
011C2000
02331000
02619000
06805000
07003800
06001800
08000400
ENDCHAR
STARTCHAR 260E
ENCODING 9742
SWIDTH 1000 0
DWIDTH 28 0
BBX 26 21 1 0
BITMAP
07FFF800
1FFFFE00
3FFFFF00
7EE1DF80
78E1C780
F8E1C7C0
F8FFC7C0
01FFE000
03E1F000
03C0F000
07807800
07003800
07003800
0F003C00
1F003E00
3F807F00
3F80FF00
7FE1FF80
7FFFFF80
7FFFFF80
7FFFFF80
ENDCHAR
STARTCHAR 2616
ENCODING 9750
SWIDTH 1000 0
DWIDTH 28 0
BBX 22 22 3 0
BITMAP
007800
00CC00
030300
0E01C0
180060
200010
200010
600018
600018
400008
400008
400008
400008
400008
400008
400008
C0000C
C0000C
800004
800004
800004
FFFFFC
ENDCHAR
STARTCHAR 2617
ENCODING 9751
SWIDTH 1000 0
DWIDTH 28 0
BBX 22 22 3 1
BITMAP
007800
01FE00
03FF00
0FFFC0
3FFFF0
3FFFF0
3FFFF0
7FFFF8
7FFFF8
7FFFF8
7FFFF8
7FFFF8
7FFFF8
7FFFF8
7FFFF8
7FFFF8
FFFFFC
FFFFFC
FFFFFC
FFFFFC
FFFFFC
FFFFFC
ENDCHAR
STARTCHAR 261E
ENCODING 9758
SWIDTH 1000 0
DWIDTH 28 0
BBX 24 12 2 4
BITMAP
78F9FE
8F0601
8C0101
8812FE
886F20
8F8F10
880AF0
881620
961920
9508C0
88E480
701F00
ENDCHAR
STARTCHAR 2640
ENCODING 9792
SWIDTH 1000 0
DWIDTH 28 0
BBX 18 25 5 -2
BITMAP
01E000
061800
080400
180600
100200
100200
100200
100200
180600
080400
0E1800
03F000
00C000
00C000
00C000
00C000
FFFFC0
00C000
00C000
00C000
00C000
00C000
00C000
00C000
00C000
ENDCHAR
STARTCHAR 2642
ENCODING 9794
SWIDTH 1000 0
DWIDTH 28 0
BBX 22 22 3 0
BITMAP
000FFC
00001C
000034
000064
0000C4
000184
000304
000604
000C04
001800
1FB000
30E000
406000
803000
801000
801000
801000
801000
802000
406000
30C000
1F0000
ENDCHAR
STARTCHAR 2660
ENCODING 9824
SWIDTH 1000 0
DWIDTH 28 0
BBX 20 25 4 -1
BITMAP
006000
00F000
01F800
03FC00
03FC00
07FE00
0FFF00
1FFF80
3FFFC0
3FFFC0
7FFFE0
FFFFF0
FFFFF0
FFFFF0
FFFFF0
FFFFF0
FFFFF0
FF6FF0
7F6FE0
3C63C0
006000
00E000
00F000
00F000
01F800
ENDCHAR
STARTCHAR 2661
ENCODING 9825
SWIDTH 1000 0
DWIDTH 28 0
BBX 22 23 3 -2
BITMAP
1F03E0
20CC10
407808
803004
803004
800004
800004
800004
800004
C0000C
400008
600018
200010
100020
180060
080040
040080
020100
030300
018600
00CC00
007800
003000
ENDCHAR
STARTCHAR 2662
ENCODING 9826
SWIDTH 1000 0
DWIDTH 28 0
BBX 20 27 4 -3
BITMAP
006000
006000
009000
010800
030C00
060400
040200
080100
180180
3000C0
200040
400020
800030
800010
400020
600060
2000C0
100080
080100
0C0300
040600
020400
010800
019800
009000
006000
004000
ENDCHAR
STARTCHAR 2663
ENCODING 9827
SWIDTH 1000 0
DWIDTH 28 0
BBX 24 25 2 -2
BITMAP
003C00
00FF00
01FF80
01FF80
01FF80
03FF80
01FF80
01FF80
01FF00
1EFF78
7FBDFE
7FFFFE
FFFFFF
FFFFFF
FFFFFF
FFFFFF
FFFFFF
7FDBFE
7F99FC
1E1878
001800
001800
003C00
003C00
007E00
ENDCHAR
STARTCHAR 2664
ENCODING 9828
SWIDTH 1000 0
DWIDTH 28 0
BBX 22 25 3 -1
BITMAP
003000
004800
008400
018600
030300
060180
040080
080040
100020
300030
200010
400008
400008
400008
C0000C
400008
400008
404808
20CC30
1F4BE0
004800
004800
008400
008400
01FE00
ENDCHAR
STARTCHAR 2665
ENCODING 9829
SWIDTH 1000 0
DWIDTH 28 0
BBX 22 23 3 -1
BITMAP
1F03E0
7F87F8
7FCFF8
FFFFFC
FFFFFC
FFFFFC
FFFFFC
FFFFFC
FFFFFC
7FFFF8
7FFFF8
3FFFF0
3FFFF0
1FFFE0
0FFFC0
0FFFC0
07FF80
03FF00
01FE00
00FC00
00FC00
007800
003000
ENDCHAR
STARTCHAR 2666
ENCODING 9830
SWIDTH 1000 0
DWIDTH 28 0
BBX 20 26 4 -3
BITMAP
006000
006000
00F000
01F800
03FC00
03FC00
07FE00
0FFF00
1FFF80
3FFF80
3FFFC0
7FFFE0
FFFFF0
FFFFF0
7FFFE0
7FFFE0
3FFFC0
1FFF80
0FFF00
0FFF00
07FE00
03FC00
01F800
01F800
00F000
006000
ENDCHAR
STARTCHAR 2667
ENCODING 9831
SWIDTH 1000 0
DWIDTH 28 0
BBX 24 25 2 -2
BITMAP
003C00
00C300
010080
030080
020040
020040
020040
0300C0
010080
1F81F8
60C304
400002
800001
800001
800001
800001
802401
406602
20E504
1F24F8
002400
002400
004200
004200
00FF00
ENDCHAR
STARTCHAR 2668
ENCODING 9832
SWIDTH 1000 0
DWIDTH 28 0
BBX 24 21 2 1
BITMAP
001000
002040
042080
042080
042080
042080
043080
0630C0
021840
030860
030C20
110C20
210C24
410C22
C20843
C40843
C01002
602006
30001C
0E0070
01FF80
ENDCHAR
STARTCHAR 2669
ENCODING 9833
SWIDTH 1000 0
DWIDTH 28 0
BBX 8 23 8 -1
BITMAP
01
01
01
01
01
01
01
01
01
01
01
01
01
01
01
01
01
01
3F
7F
FF
FE
7C
ENDCHAR
STARTCHAR 266A
ENCODING 9834
SWIDTH 1000 0
DWIDTH 28 0
BBX 19 23 5 0
BITMAP
008000
008000
00C000
00F000
013800
011C00
010E00
010700
010380
0101C0
0100C0
010060
010040
0100C0
010180
010300
010000
010000
3F0000
7F0000
FF0000
FE0000
7C0000
ENDCHAR
STARTCHAR 266B
ENCODING 9835
SWIDTH 1000 0
DWIDTH 28 0
BBX 20 25 2 -2
BITMAP
000070
000FF0
00FFF0
01FFD0
01FC10
01C010
010010
010010
010010
010010
010010
010010
010010
010010
010010
010010
010010
0103F0
0107F0
0107F0
3D07E0
FF07C0
FE0000
FE0000
780000
ENDCHAR
STARTCHAR 266C
ENCODING 9836
SWIDTH 1000 0
DWIDTH 28 0
BBX 20 25 2 -2
BITMAP
000070
000FF0
00FFF0
01FFD0
01F810
018030
0107F0
017FF0
01FFF0
01FC10
01C010
010010
010010
010010
010010
010010
010010
0103F0
0107F0
0107F0
3D07E0
FF07C0
FE0000
FE0000
780000
ENDCHAR
STARTCHAR 266D
ENCODING 9837
SWIDTH 1000 0
DWIDTH 28 0
BBX 10 24 10 -1
BITMAP
8000
8000
8000
8000
8000
8000
8000
8000
8000
9F00
E380
8180
81C0
81C0
81C0
8180
8180
8300
8700
8600
8C00
B000
E000
8000
ENDCHAR
STARTCHAR 266E
ENCODING 9838
SWIDTH 1000 0
DWIDTH 28 0
BBX 8 23 10 -1
BITMAP
80
80
80
80
80
83
9F
FF
F9
C1
81
81
81
87
BF
FD
E1
01
01
01
01
01
01
ENDCHAR
STARTCHAR 266F
ENCODING 9839
SWIDTH 1000 0
DWIDTH 28 0
BBX 16 24 6 -1
BITMAP
0010
0810
0810
0810
0810
0810
081F
0BFE
3FF0
FC10
8810
0810
0810
0810
0817
087F
0FF8
FF10
F810
0810
0810
0810
0810
0800
ENDCHAR
STARTCHAR 2713
ENCODING 10003
SWIDTH 1000 0
DWIDTH 28 0
BBX 18 18 6 2
BITMAP
000040
000040
000080
000100
000200
000600
000C00
000800
001000
003000
406000
E0C000
618000
730000
360000
3E0000
1C0000
180000
ENDCHAR
STARTCHAR 2756
ENCODING 10070
SWIDTH 1000 0
DWIDTH 28 0
BBX 26 25 1 -2
BITMAP
000C0000
001E0000
003F0000
007F8000
00FFC000
01FFE000
00FFC000
067F9800
0F3F3C00
1F9E7E00
3FC8FF00
7FE1FF80
FFF3FFC0
7FE1FF80
3FCCFF00
1F9E7E00
0F3F3C00
047F9000
00FFC000
01FFE000
00FFC000
007F8000
003F0000
001E0000
00080000
ENDCHAR
STARTCHAR 2776
ENCODING 10102
SWIDTH 1000 0
DWIDTH 28 0
BBX 26 25 1 -2
BITMAP
003F0000
01FFE000
07FFF000
0FFFFC00
1FFBFE00
3FC3FE00
3FF3FF00
7FF3FF80
7FF3FF80
7FF3FF80
FFF3FF80
FFF3FFC0
FFF3FFC0
FFF3FFC0
FFF3FF80
7FF3FF80
7FF3FF80
7FF3FF80
3FF3FF00
1FF3FE00
1FC07E00
0FFFFC00
03FFF000
01FFE000
003F8000
ENDCHAR
STARTCHAR 2777
ENCODING 10103
SWIDTH 1000 0
DWIDTH 28 0
BBX 26 26 1 -2
BITMAP
003F0000
00FFC000
03FFF000
07FFF800
0FE1FC00
1F9E7E00
3F3F3F00
3F3F3F00
7F3F3F80
7F3F3F80
7FFF3F80
FFFE7FC0
FFFE7FC0
FFFCFFC0
FFF9FFC0
7FF7FF80
7FEFDF80
7FDFDF80
7FBFDF00
3F7F9F00
1E001E00
1E001E00
0FFFFC00
03FFF000
01FFE000
003F0000
ENDCHAR
STARTCHAR 2778
ENCODING 10104
SWIDTH 1000 0
DWIDTH 28 0
BBX 26 25 1 -2
BITMAP
007F8000
01FFE000
07FFF800
0FFFFC00
1FC0FE00
3F9E7F00
3F3F3F00
7F3F3F80
7F3F3F80
7FFF3F80
FFFE7F80
FFE0FFC0
FFE1FFC0
FFFF3FC0
7FFF9F80
7FFF9F80
7F3F9F80
7E3F9F00
3E7F3F00
1F3E7E00
1FC0FE00
0FFFFC00
03FFF000
01FFE000
007F0000
ENDCHAR
STARTCHAR 2779
ENCODING 10105
SWIDTH 1000 0
DWIDTH 28 0
BBX 26 25 1 -2
BITMAP
003F0000
01FFE000
03FFF000
0FFFFC00
1FFCFE00
1FF8FE00
3FF0FF00
7FF4FF80
7FECFF80
7FDCFF80
FF9CFF80
FF3CFFC0
FF7CFFC0
FEFCFFC0
FDFCFF80
7C001F80
7FFCFF80
7FFCFF80
3FFCFF00
1FFCFE00
1FE03E00
0FFFFC00
03FFF000
01FFE000
007F8000
ENDCHAR
STARTCHAR 277A
ENCODING 10106
SWIDTH 1000 0
DWIDTH 28 0
BBX 26 25 1 -2
BITMAP
007F8000
01FFE000
07FFF800
0FFFFC00
1F803E00
3F803F00
3FBFFF00
7F3FFF80
7F3FFF80
7F3FFF80
FF20FF80
FF5E7FC0
FF3F3FC0
FFFF9FC0
7FFF9F80
7FFF9F80
7F3F9F80
7F3F9F80
3F3F3F00
1F3E3E00
1F9C7E00
0FC1FC00
03FFF000
01FFE000
007F0000
ENDCHAR
STARTCHAR 277B
ENCODING 10107
SWIDTH 1000 0
DWIDTH 28 0
BBX 26 25 1 -2
BITMAP
007F8000
01FFE000
07FFF800
0FFFFC00
1FF0FE00
3FCF3F00
3F9E3F00
7FBF3F80
7F3FFF80
7F3FFF80
FF60FF80
FE5E7FC0
FE3F3FC0
FE7F3FC0
7E7F9F80
7E7F9F80
7F7FBF80
7F3F3F00
3FBF3F00
1F9E7E00
1FE1FE00
0FFFFC00
03FFF000
01FFE000
007F0000
ENDCHAR
STARTCHAR 277C
ENCODING 10108
SWIDTH 1000 0
DWIDTH 28 0
BBX 26 26 1 -2
BITMAP
003F0000
00FFC000
03FFF000
07FFF800
0FFFFC00
1F001E00
3F001F00
3F3FBF00
7F7F7F80
7F7F7F80
7F7EFF80
FFFEFFC0
FFFCFFC0
FFFDFFC0
FFF9FFC0
7FF9FF80
7FF9FF80
7FF3FF80
7FF3FF00
3FF3FF00
1FF3FE00
1FF3FE00
0FFFFC00
03FFF000
01FFE000
003F0000
ENDCHAR
STARTCHAR 277D
ENCODING 10109
SWIDTH 1000 0
DWIDTH 28 0
BBX 26 25 1 -2
BITMAP
007F8000
01FFE000
07FFF800
0FFFFC00
1FC0FE00
3F9E7F00
3F3F3F00
7F3F3F80
7F3F3F80
7F1F7F80
FF8EFF80
FFC1FFC0
FFE8FFC0
FFBC7FC0
7F7F3F80
7E7F9F80
7E7F9F80
7E7F9F00
3F7F3F00
1F1E7E00
1FC0FE00
0FFFFC00
03FFF000
01FFE000
007F0000
ENDCHAR
STARTCHAR 277E
ENCODING 10110
SWIDTH 1000 0
DWIDTH 28 0
BBX 26 25 1 -2
BITMAP
007F8000
01FFE000
07FFF800
0FFFFC00
1FE1FE00
3F9E7F00
3F3F7F00
7F3F3F80
7F7F3F80
7F7F9F80
FF7F9F80
FF3F9FC0
FFBF1FC0
FFDF9FC0
7FFF9F80
7FFF3F80
7F3F3F80
7F1F3F00
3F3E7F00
1F9CFE00
1FC1FE00
0FFFFC00
03FFF000
01FFE000
007F0000
ENDCHAR
STARTCHAR 277F
ENCODING 10111
SWIDTH 1000 0
DWIDTH 28 0
BBX 26 26 1 -2
BITMAP
003F0000
01FFE000
03FFF000
07FFF800
0FFE3C00
18FCDE00
3CF9CF00
3EF9EF00
7EFBE780
7EF3E780
7EF3E780
FEF3E7C0
FEF3E7C0
FEF3E7C0
FEF3E7C0
7EF3E780
7EFBE780
7EF9EF80
3EF9CF00
3E7DCF00
183E3E00
1FFFFE00
0FFFFC00
03FFF000
01FFE000
003F0000
ENDCHAR
STARTCHAR 2934
ENCODING 10548
SWIDTH 1000 0
DWIDTH 28 0
BBX 22 21 3 0
BITMAP
000040
0000E0
0001F0
000158
000348
00064C
000444
000040
000040
000040
000040
000040
000040
000040
000040
000040
0000C0
000180
000100
000600
FFF800
ENDCHAR
STARTCHAR 2935
ENCODING 10549
SWIDTH 1000 0
DWIDTH 28 0
BBX 22 21 3 0
BITMAP
FFF800
000600
000100
000180
000080
0000C0
000040
000040
000040
000040
000040
000040
000040
000040
000444
000644
00024C
000358
0001F0
0000E0
000040
ENDCHAR
STARTCHAR 29BF
ENCODING 10687
SWIDTH 1000 0
DWIDTH 28 0
BBX 24 23 2 -1
BITMAP
007E00
0381C0
060060
080010
100008
200004
600006
403C02
407E02
80FF01
80FF01
80FF01
80FF01
807E01
403C02
400002
600006
200004
100008
180010
060060
0381C0
007E00
ENDCHAR
STARTCHAR 29FA
ENCODING 10746
SWIDTH 1000 0
DWIDTH 28 0
BBX 16 15 6 2
BITMAP
0420
0420
0420
0420
0420
0420
0420
FFFF
0420
0420
0420
0420
0420
0420
0420
ENDCHAR
STARTCHAR 29FB
ENCODING 10747
SWIDTH 1000 0
DWIDTH 28 0
BBX 16 15 6 2
BITMAP
1998
1998
1998
1998
1998
1998
1998
FFFF
1998
1998
1998
1998
1998
1998
1998
ENDCHAR
STARTCHAR 2E83
ENCODING 11907
SWIDTH 1000 0
DWIDTH 28 0
BBX 19 21 6 0
BITMAP
E00000
C00000
C00000
C00000
C00000
C00000
C00000
C00000
C00000
C00000
C00000
C00000
C00000
C00000
C00040
C00040
C000C0
C000C0
C000C0
7FFFE0
7FFFC0
ENDCHAR
STARTCHAR 2E85
ENCODING 11909
SWIDTH 1000 0
DWIDTH 28 0
BBX 14 24 5 -1
BITMAP
000C
001C
0038
0030
0060
0040
00C0
01C0
03C0
06C0
0CC0
08C0
30C0
60C0
C0C0
00C0
00C0
00C0
00C0
00C0
00C0
00C0
00C0
00C0
ENDCHAR
STARTCHAR 2E87
ENCODING 11911
SWIDTH 1000 0
DWIDTH 28 0
BBX 26 24 1 -2
BITMAP
08000800
0FFFFC00
0C000800
0C000800
0C000800
0C000800
0C000800
0C000800
0C000800
0C000800
08000800
08000C00
08000C00
08000C00
18000C00
18000C00
180004C0
10000680
10000680
30000680
20000380
60000380
400001C0
800000C0
ENDCHAR
STARTCHAR 2E89
ENCODING 11913
SWIDTH 1000 0
DWIDTH 28 0
BBX 11 23 10 -1
BITMAP
00E0
0080
C080
8080
8080
8080
8080
8080
8080
8080
8080
8080
8080
8080
8080
8080
8080
0080
0080
0080
0080
1F80
0380
ENDCHAR
STARTCHAR 2E8E
ENCODING 11918
SWIDTH 1000 0
DWIDTH 28 0
BBX 24 22 2 -1
BITMAP
000004
000006
7FFFF8
018300
018300
018300
018300
018300
018300
018300
018300
018300
010300
030300
030302
060302
060302
0C0302
180306
1003FF
6003FE
C00000
ENDCHAR
STARTCHAR 2E8F
ENCODING 11919
SWIDTH 1000 0
DWIDTH 28 0
BBX 24 24 2 -2
BITMAP
000200
018100
038080
030060
060030
060018
0C001C
18000C
31C386
618206
018200
018200
018200
018200
018200
018200
018200
030202
030202
060202
0C0202
180307
7003FF
800000
ENDCHAR
STARTCHAR 2E90
ENCODING 11920
SWIDTH 1000 0
DWIDTH 28 0
BBX 24 25 2 -2
BITMAP
002000
003800
003000
003000
003000
003004
00300E
7FFFFF
003600
003600
003400
003400
002400
006400
006400
006400
00C400
00C400
018402
018402
030402
060406
1C07FF
3007FF
C00000
ENDCHAR
STARTCHAR 2E92
ENCODING 11922
SWIDTH 1000 0
DWIDTH 28 0
BBX 20 22 6 -1
BITMAP
800180
FFFFC0
800180
800180
800180
800180
800180
800180
800180
FFFF80
800180
800180
800000
800000
800000
800020
800020
800020
800060
C00060
FFFFF0
7FFFE0
ENDCHAR
STARTCHAR 2E93
ENCODING 11923
SWIDTH 1000 0
DWIDTH 28 0
BBX 22 22 3 1
BITMAP
003800
003000
006000
006000
00C000
008080
6181E0
190180
0E0300
060600
030E00
018C00
019800
003000
006180
0040C0
008070
010038
020018
047FEC
FFF00C
600004
ENDCHAR
STARTCHAR 2E94
ENCODING 11924
SWIDTH 1000 0
DWIDTH 28 0
BBX 23 22 3 1
BITMAP
038000
030000
030000
030000
0300C0
03FFE0
0200C0
060080
060080
060180
040180
040180
0C0180
0C0180
0FFF80
080100
180300
180300
000300
000300
000304
FFFFFE
ENDCHAR
STARTCHAR 2E96
ENCODING 11926
SWIDTH 1000 0
DWIDTH 28 0
BBX 11 24 8 -2
BITMAP
0700
0600
0600
0600
0680
26C0
2640
2660
6660
6660
6600
C600
C600
0600
0600
0600
0600
0600
0600
0600
0600
0600
0600
0600
ENDCHAR
STARTCHAR 2E97
ENCODING 11927
SWIDTH 1000 0
DWIDTH 28 0
BBX 24 23 2 -1
BITMAP
00C000
00C000
008000
008000
008000
008000
008000
108820
108410
108408
30820C
208306
208306
608183
608183
E08183
C080C1
808080
008000
008000
008000
1F8000
038000
ENDCHAR
STARTCHAR 2E98
ENCODING 11928
SWIDTH 1000 0
DWIDTH 28 0
BBX 16 25 7 -2
BITMAP
01C0
0100
0100
0100
0104
0106
FFFE
0100
0100
0100
0100
0100
010F
01F0
7F00
F100
8100
0100
0100
0100
0100
0100
2300
1F00
0600
ENDCHAR
STARTCHAR 2E99
ENCODING 11929
SWIDTH 1000 0
DWIDTH 28 0
BBX 23 25 2 -2
BITMAP
018000
01C000
018000
030000
030004
02000E
07FFFE
0600C0
0E00C0
0E00C0
190180
110180
208100
60C300
404200
006600
003C00
001800
003C00
007700
00E3C0
0180F0
07007E
1C001E
E00002
ENDCHAR
STARTCHAR 2E9B
ENCODING 11931
SWIDTH 1000 0
DWIDTH 28 0
BBX 24 24 2 -2
BITMAP
000010
000018
3FFFF8
001800
001800
0C1800
181800
181000
101000
10100C
3FFFFE
303000
603400
202600
006400
006400
00C400
00C402
018402
030402
060406
1C07FF
7007FE
800000
ENDCHAR
STARTCHAR 2E9E
ENCODING 11934
SWIDTH 1000 0
DWIDTH 28 0
BBX 24 25 2 -2
BITMAP
000600
000400
000402
000406
0007FF
000400
00E400
00C400
018418
01FFFC
030018
060030
0C0070
1B0060
30C0C0
606180
803300
001600
000C00
003800
007000
01C000
038000
1C0000
700000
ENDCHAR
STARTCHAR 2E9F
ENCODING 11935
SWIDTH 1000 0
DWIDTH 28 0
BBX 26 23 1 -2
BITMAP
04001800
07FFF800
06001800
06301800
061C1800
040C1800
04041800
04001100
0C001180
FFFFFFC0
0C001000
0C401000
0C301000
08181000
080C3000
180C3100
18003380
1FFFFF80
18003000
10003000
000C3000
0003E000
00008000
ENDCHAR
STARTCHAR 2EA0
ENCODING 11936
SWIDTH 1000 0
DWIDTH 28 0
BBX 24 24 2 -2
BITMAP
100018
1FFFFC
180018
180018
180018
180018
1FFFF8
180818
180C00
180C00
180C04
180406
1FFFFF
180600
180600
180200
180300
180182
180182
183CC2
1BE062
FE0033
E0001F
800007
ENDCHAR
STARTCHAR 2EA1
ENCODING 11937
SWIDTH 1000 0
DWIDTH 28 0
BBX 11 25 9 -2
BITMAP
2000
1800
0E00
0600
0200
0020
8020
6040
3040
3080
1180
0100
0300
0600
0600
0C00
1C00
F800
3800
1000
1800
1800
1800
1800
1800
ENDCHAR
STARTCHAR 2EA3
ENCODING 11939
SWIDTH 1000 0
DWIDTH 28 0
BBX 24 7 2 7
BITMAP
080430
088618
10C20C
10C306
30C187
E0C183
C0C183
ENDCHAR
STARTCHAR 2EA4
ENCODING 11940
SWIDTH 1000 0
DWIDTH 28 0
BBX 21 13 3 6
BITMAP
000060
0007F0
007F80
3FC000
C08010
00C038
606030
303060
183060
1C18C0
0C1880
0C0180
000100
ENDCHAR
STARTCHAR 2EA6
ENCODING 11942
SWIDTH 1000 0
DWIDTH 28 0
BBX 13 24 5 -2
BITMAP
0038
0030
0030
2030
1030
1830
0C30
0630
0630
0630
0030
0030
0070
01B0
0730
3C30
F030
4030
4030
0030
0030
0030
0030
0030
ENDCHAR
STARTCHAR 2EA8
ENCODING 11944
SWIDTH 1000 0
DWIDTH 28 0
BBX 13 24 6 -2
BITMAP
0830
0438
0260
03C0
0180
0380
06C0
1840
3040
4060
00E0
00E0
01B0
0330
0630
0C30
3030
6030
8030
0030
0020
1860
07C0
0180
ENDCHAR
STARTCHAR 2EAA
ENCODING 11946
SWIDTH 1000 0
DWIDTH 28 0
BBX 15 24 6 -2
BITMAP
0004
FFFE
000E
0018
0020
01C0
0180
0180
3980
3180
318C
31FE
3180
3180
3180
3180
3180
3180
318E
31F0
3F80
FC00
E000
8000
ENDCHAR
STARTCHAR 2EAB
ENCODING 11947
SWIDTH 1000 0
DWIDTH 28 0
BBX 21 13 4 4
BITMAP
800018
FFFFF8
820C10
820C10
820C10
820C10
820C10
820C10
820C10
820C10
FFFFF0
800010
800010
ENDCHAR
STARTCHAR 2EAD
ENCODING 11949
SWIDTH 1000 0
DWIDTH 28 0
BBX 17 25 5 -2
BITMAP
00E000
008000
008000
008000
008600
3FFF00
000600
000C00
001800
003000
003000
006000
00C000
01F000
06DC00
0CC700
18C380
60C180
80C000
00C000
00C000
00C000
00C000
00C000
00C000
ENDCHAR
STARTCHAR 2EB2
ENCODING 11954
SWIDTH 1000 0
DWIDTH 28 0
BBX 21 13 4 4
BITMAP
800018
FFFFF8
820C10
820C10
820C10
820C10
820C10
820C10
820C10
820C10
FFFFF0
800010
800010
ENDCHAR
STARTCHAR 2EB9
ENCODING 11961
SWIDTH 1000 0
DWIDTH 28 0
BBX 24 20 2 3
BITMAP
003000
003008
00301C
003018
0031B0
1FFFE0
003040
003080
003180
003306
0037FF
7FCC00
003800
007000
00C000
018000
060000
0C0000
300000
C00000
ENDCHAR
STARTCHAR 2EBD
ENCODING 11965
SWIDTH 1000 0
DWIDTH 28 0
BBX 20 23 4 -1
BITMAP
008000
01C000
070000
980030
E00FF0
C00030
C00030
C00030
C00030
C00030
C10030
C38030
FC0FF0
C00030
C00030
C00030
C00030
C00030
C00030
C10030
C38030
FC0FF0
C00030
ENDCHAR
STARTCHAR 2EBE
ENCODING 11966
SWIDTH 1000 0
DWIDTH 28 0
BBX 23 8 3 9
BITMAP
038380
030300
030304
03030E
FFFFF0
030300
030300
030300
ENDCHAR
STARTCHAR 2EBF
ENCODING 11967
SWIDTH 1000 0
DWIDTH 28 0
BBX 23 8 3 9
BITMAP
0E01C0
0C0180
0C0184
0CC186
FF0FF8
0C0180
0C0180
0C0180
ENDCHAR
STARTCHAR 2EC0
ENCODING 11968
SWIDTH 1000 0
DWIDTH 28 0
BBX 24 9 2 8
BITMAP
01C1C0
018180
018182
018187
FF81FF
018180
018180
018180
018180
ENDCHAR
STARTCHAR 2EC1
ENCODING 11969
SWIDTH 1000 0
DWIDTH 28 0
BBX 24 26 2 -3
BITMAP
001C00
001808
00181C
001FFC
001800
201806
3FFFFE
301007
30104C
3011E0
37FE00
301008
30100C
301FFC
300000
300000
306380
304300
204300
20C302
60C302
60C302
418302
830307
8E01FE
100000
ENDCHAR
STARTCHAR 2EC2
ENCODING 11970
SWIDTH 1000 0
DWIDTH 28 0
BBX 16 25 5 -2
BITMAP
00E0
0080
0080
0080
0086
3FFE
000E
000C
0018
0030
0063
00C7
01C4
03F8
06CC
18C6
30C3
C0C1
00C0
00C0
00C0
00C0
00C0
00C0
00C0
ENDCHAR
STARTCHAR 2EC3
ENCODING 11971
SWIDTH 1000 0
DWIDTH 28 0
BBX 24 14 2 5
BITMAP
000002
000007
FFFFFF
00C200
00C200
20C208
3FFFFC
30C208
30C208
30C208
30C208
3FFFF8
300008
300000
ENDCHAR
STARTCHAR 2EC4
ENCODING 11972
SWIDTH 1000 0
DWIDTH 28 0
BBX 24 24 2 -1
BITMAP
000002
000007
FFFFFF
00C600
00C600
00C600
00C600
00C604
3FFFFE
20C604
20C604
208604
208624
218624
210624
230624
220674
2403F4
280004
200004
200004
200004
3FFFFC
200004
ENDCHAR
STARTCHAR 2ECA
ENCODING 11978
SWIDTH 1000 0
DWIDTH 28 0
BBX 15 25 6 -3
BITMAP
200C
3FF8
3018
3018
3018
3018
3018
3FF8
3198
3198
0180
0188
398C
31FC
3180
3180
3180
3180
3180
318E
31F0
3F80
FC00
C000
4000
ENDCHAR
STARTCHAR 2ECC
ENCODING 11980
SWIDTH 1000 0
DWIDTH 28 0
BBX 25 24 1 -2
BITMAP
20000000
18000000
0C000000
06000000
06000000
00000000
00000000
00000000
00000000
00000000
06000000
7E000000
06000000
06000000
06000000
06000000
06000000
06000000
06000000
0D000000
38800000
F0700180
600FFF80
40000000
ENDCHAR
STARTCHAR 2ECD
ENCODING 11981
SWIDTH 1000 0
DWIDTH 28 0
BBX 25 24 1 -2
BITMAP
18000000
0E000000
07000000
03000000
00000000
20000000
38000000
1C000000
0C000000
04000000
00000000
00000000
06000000
3E000000
06000000
06000000
06000000
06000000
06000000
0F000000
19800000
F0700080
600FFF80
40000000
ENDCHAR
STARTCHAR 2ECF
ENCODING 11983
SWIDTH 1000 0
DWIDTH 28 0
BBX 10 24 10 -2
BITMAP
80C0
FFC0
C080
C180
C100
C300
C200
C600
C300
C180
C080
C0C0
C040
C040
C040
C0C0
DFC0
C380
C000
C000
C000
C000
C000
C000
ENDCHAR
STARTCHAR 2ED1
ENCODING 11985
SWIDTH 1000 0
DWIDTH 28 0
BBX 25 24 2 -1
BITMAP
04001800
07FFFC00
06000000
06006000
07FFF000
06000000
06002000
06007000
07FFF000
06000000
06000200
06000700
FFFFFF80
06100000
06081800
060C3C00
06046000
0606C000
06030000
0605C000
06F8F000
1F803C00
7C000F00
40000300
ENDCHAR
STARTCHAR 2ED2
ENCODING 11986
SWIDTH 1000 0
DWIDTH 28 0
BBX 24 25 2 -2
BITMAP
000010
040018
07FFFC
060000
060000
060060
07FFF0
060000
060000
060060
07FFF0
060000
060000
060007
FFFFFF
00E000
00C000
00C080
018040
010030
010018
023FEC
3FF80E
380006
200006
ENDCHAR
STARTCHAR 2ED6
ENCODING 11990
SWIDTH 1000 0
DWIDTH 28 0
BBX 10 24 10 -2
BITMAP
80C0
FFC0
C080
C180
C100
C300
C200
C600
C300
C180
C080
C0C0
C040
C040
C040
C0C0
DFC0
C380
C000
C000
C000
C000
C000
C000
ENDCHAR
STARTCHAR 2ED8
ENCODING 11992
SWIDTH 1000 0
DWIDTH 28 0
BBX 24 25 2 -2
BITMAP
001C00
001800
00180C
7FFFFE
001800
001818
1FFFF8
001800
001806
FFFFFF
000000
000020
07FFF0
040020
040020
07FFE0
040020
040020
07FFE0
040020
040020
040020
040860
0407E0
0400C0
ENDCHAR
STARTCHAR 2EDE
ENCODING 11998
SWIDTH 1000 0
DWIDTH 28 0
BBX 14 25 6 -2
BITMAP
0180
0300
03C0
0630
0C18
086C
1384
3010
5FF8
9830
1830
1830
1FF0
1830
1830
1FF0
1830
1818
1FFC
1800
1808
181C
1FE0
1800
1800
ENDCHAR
STARTCHAR 2EDF
ENCODING 11999
SWIDTH 1000 0
DWIDTH 28 0
BBX 14 26 6 -2
BITMAP
0180
0300
03E0
0630
061C
0DCC
1984
3190
7FF8
D810
1810
1810
1FF0
1810
1810
1810
1FF0
1810
1840
1830
1838
1878
1F8C
FC0C
6000
4000
ENDCHAR
STARTCHAR 2EE4
ENCODING 12004
SWIDTH 1000 0
DWIDTH 28 0
BBX 24 24 2 -2
BITMAP
003000
003000
002000
102018
1FFFFC
181818
181818
181818
1FFFF8
181818
181818
181818
181818
1FEFF8
18CC00
008C60
018C40
018CD0
010C89
030DFD
060D0F
0C0C03
180C03
E007FF
ENDCHAR
STARTCHAR 2EE8
ENCODING 12008
SWIDTH 1000 0
DWIDTH 28 0
BBX 24 25 2 -2
BITMAP
001C00
001800
001800
00180C
3FFFF0
001810
001818
1FFFF8
001800
001802
001807
7FE7F8
00C000
00C060
01FFE0
0380E0
0680C0
0C6180
183700
601E00
001E00
0073C0
01C0FC
0F001F
F00000
ENDCHAR
STARTCHAR 2EE9
ENCODING 12009
SWIDTH 1000 0
DWIDTH 28 0
BBX 24 26 2 -2
BITMAP
010000
01C180
018100
01810C
7FFFFE
018100
018100
018102
018103
FFFFFF
001800
101810
1FFFF8
181818
181818
181818
1FFFF8
181818
181818
181818
1FE7F8
018380
07C07C
1E001E
700007
800000
ENDCHAR
STARTCHAR 2EEB
ENCODING 12011
SWIDTH 1000 0
DWIDTH 28 0
BBX 25 26 2 -2
BITMAP
00180000
00180000
00180000
00180600
FFFFFF00
0200C000
01018000
00C30000
00660000
001C0000
003F0000
00E3E000
07007F80
3E002700
C6002000
07FFE000
06002000
06002000
06002000
07FFE000
06002000
04002000
0C002000
18002000
30002000
C0002000
ENDCHAR
STARTCHAR 2EED
ENCODING 12013
SWIDTH 1000 0
DWIDTH 28 0
BBX 24 26 2 -3
BITMAP
000C00
070800
060818
060FFC
060800
060802
060803
F9F7FC
601C04
7218C6
619984
619904
609A04
601864
6FFFF4
603804
607C04
60DB84
6198C4
631864
641804
601804
600004
7FFFFC
600004
600004
ENDCHAR
STARTCHAR 2EEF
ENCODING 12015
SWIDTH 1000 0
DWIDTH 28 0
BBX 23 24 3 -1
BITMAP
003800
003000
003018
7FFFF8
040000
060380
030300
010604
01040E
FEFBF0
000020
1FFFF0
103020
103020
103020
1FFFE0
103020
103020
103020
1FFFE4
103004
003004
00300E
001FFC
ENDCHAR
STARTCHAR 2EF2
ENCODING 12018
SWIDTH 1000 0
DWIDTH 28 0
BBX 25 24 2 0
BITMAP
03800000
06040000
07FE0000
0C0C0000
18181000
3FFFF800
78103000
D8103000
1FFFF000
18103000
18103000
1FFFF000
20100800
3FFFFC00
30100800
30100800
3FFFF800
30100800
30100800
3FFFF900
30100900
00100100
00180380
001FFF00
ENDCHAR
STARTCHAR 2F00
ENCODING 12032
SWIDTH 1000 0
DWIDTH 28 0
BBX 24 3 2 10
BITMAP
000004
00000E
FFFFFF
ENDCHAR
STARTCHAR 2F01
ENCODING 12033
SWIDTH 1000 0
DWIDTH 28 0
BBX 3 23 13 -1
BITMAP
E0
C0
C0
C0
C0
C0
C0
C0
C0
C0
C0
C0
C0
C0
C0
C0
C0
C0
C0
C0
C0
C0
C0
ENDCHAR
STARTCHAR 2F02
ENCODING 12034
SWIDTH 1000 0
DWIDTH 28 0
BBX 9 9 9 7
BITMAP
8000
6000
3800
0C00
0600
0300
0380
0180
0080
ENDCHAR
STARTCHAR 2F03
ENCODING 12035
SWIDTH 1000 0
DWIDTH 28 0
BBX 8 24 9 -2
BITMAP
06
07
06
06
06
06
06
06
06
06
06
06
06
04
04
0C
0C
08
18
10
30
60
C0
80
ENDCHAR
STARTCHAR 2F04
ENCODING 12036
SWIDTH 1000 0
DWIDTH 28 0
BBX 21 21 4 0
BITMAP
000200
FFFF00
000700
000C00
003800
007000
00E000
01C000
038000
070000
0E0000
1C0000
180000
300000
600010
C00010
800030
800030
C00070
FFFFF8
3FFFF0
ENDCHAR
STARTCHAR 2F05
ENCODING 12037
SWIDTH 1000 0
DWIDTH 28 0
BBX 8 23 8 -1
BITMAP
07
07
06
06
06
06
06
06
06
06
06
06
06
06
06
06
06
06
06
06
06
FE
0C
ENDCHAR
STARTCHAR 2F06
ENCODING 12038
SWIDTH 1000 0
DWIDTH 28 0
BBX 24 17 2 3
BITMAP
000030
3FFFF8
000000
000000
000000
000000
000000
000000
000000
000000
000000
000000
000000
000000
000004
000006
FFFFFF
ENDCHAR
STARTCHAR 2F07
ENCODING 12039
SWIDTH 1000 0
DWIDTH 28 0
BBX 23 8 3 12
BITMAP
002000
003800
003000
003000
003000
003004
00300E
FFFFFE
ENDCHAR
STARTCHAR 2F08
ENCODING 12040
SWIDTH 1000 0
DWIDTH 28 0
BBX 24 23 2 -1
BITMAP
001C00
001000
001000
001000
001800
001800
003800
003800
003800
003400
003400
006400
006200
006200
00C100
00C180
0180C0
030060
060070
0C0038
18000E
300007
C00002
ENDCHAR
STARTCHAR 2F09
ENCODING 12041
SWIDTH 1000 0
DWIDTH 28 0
BBX 24 21 2 -1
BITMAP
01C380
018300
018300
018300
018300
018300
018300
018300
010300
010300
010300
030300
030300
030302
060302
060302
0C0302
0C0306
180307
6001FF
C00000
ENDCHAR
STARTCHAR 2F0A
ENCODING 12042
SWIDTH 1000 0
DWIDTH 28 0
BBX 24 23 2 -1
BITMAP
000800
000C00
03F800
000800
000800
000800
000800
000C00
001C00
001C00
001600
003200
003300
006100
00C180
00C0C0
0180E0
030070
060038
0C001C
18000F
200007
C00000
ENDCHAR
STARTCHAR 2F0B
ENCODING 12043
SWIDTH 1000 0
DWIDTH 28 0
BBX 24 21 2 -1
BITMAP
000380
007D00
000100
000100
018100
018100
030100
030100
030080
030080
020080
060040
060040
040060
0C0030
080030
180018
30000C
20000E
400007
800003
ENDCHAR
STARTCHAR 2F0C
ENCODING 12044
SWIDTH 1000 0
DWIDTH 28 0
BBX 21 23 4 -1
BITMAP
800030
FFFFF8
C00030
C00030
C00030
C00030
C00030
C00030
C00030
C00030
C00030
C00030
C00030
C00030
C00030
C00030
C00030
C00030
C00030
C00030
C00030
C007F0
C00060
ENDCHAR
STARTCHAR 2F0D
ENCODING 12045
SWIDTH 1000 0
DWIDTH 28 0
BBX 24 7 2 9
BITMAP
200006
3FFFFF
200007
60000C
600008
E00010
C00000
ENDCHAR
STARTCHAR 2F0E
ENCODING 12046
SWIDTH 1000 0
DWIDTH 28 0
BBX 10 22 9 -1
BITMAP
C000
3000
3840
1880
1880
0100
0100
0200
0200
0400
0400
0C00
0800
1800
7000
1000
1800
1800
1800
1800
1800
1800
ENDCHAR
STARTCHAR 2F0F
ENCODING 12047
SWIDTH 1000 0
DWIDTH 28 0
BBX 25 23 2 -2
BITMAP
04008000
07FFC000
06018000
06018000
06018000
06018000
06018000
06018000
06018000
06018000
06018000
06018000
06018000
06018000
06018200
04018200
0C018200
0C018200
18018200
10018200
3001FF80
6000FF00
80000000
ENDCHAR
STARTCHAR 2F10
ENCODING 12048
SWIDTH 1000 0
DWIDTH 28 0
BBX 21 22 4 -1
BITMAP
C00038
C00030
800030
800030
800030
800030
800030
800030
800030
800030
800030
800030
800030
800030
800030
800030
800030
800030
800030
FFFFF0
800030
800030
ENDCHAR
STARTCHAR 2F11
ENCODING 12049
SWIDTH 1000 0
DWIDTH 28 0
BBX 21 21 3 -1
BITMAP
000018
7FFFF8
00C018
00C018
00C018
00C018
00C018
008018
018018
018010
018010
018010
030010
030030
060030
060030
0C0030
180030
302060
601FE0
C001C0
ENDCHAR
STARTCHAR 2F12
ENCODING 12050
SWIDTH 1000 0
DWIDTH 28 0
BBX 23 24 2 -1
BITMAP
003000
002000
002000
002000
002000
00200C
7FFFFE
00600C
00600C
00600C
00600C
00600C
00400C
00C00C
00C008
018008
018008
030018
030018
060018
0C1030
380FF0
6000E0
800000
ENDCHAR
STARTCHAR 2F13
ENCODING 12051
SWIDTH 1000 0
DWIDTH 28 0
BBX 23 25 2 -2
BITMAP
020000
038000
070000
060000
06000C
0FFFFE
0C000C
08000C
18000C
30000C
20000C
40000C
80000C
00000C
000008
000008
000018
000018
000018
000018
000030
000030
001FF0
0003E0
000180
ENDCHAR
STARTCHAR 2F14
ENCODING 12052
SWIDTH 1000 0
DWIDTH 28 0
BBX 18 22 7 -1
BITMAP
C00000
C00000
800000
800400
800E00
801F00
807800
80E000
838000
8E0000
B00000
C00000
800000
800000
800000
800080
800080
800080
800180
800180
FFFFC0
7FFF80
ENDCHAR
STARTCHAR 2F15
ENCODING 12053
SWIDTH 1000 0
DWIDTH 28 0
BBX 21 23 4 -1
BITMAP
000070
FFFF80
800000
800000
800000
800000
800000
800000
800000
800000
800000
800000
800000
800000
800000
800000
800000
800000
800010
800038
FFFFF8
800000
800000
ENDCHAR
STARTCHAR 2F16
ENCODING 12054
SWIDTH 1000 0
DWIDTH 28 0
BBX 22 21 3 0
BITMAP
000008
00001C
FFFFFC
180000
180000
180000
180000
180000
180000
180000
180000
180000
180000
180000
180000
180000
180000
180000
180000
1FFFF8
0FFFFC
ENDCHAR
STARTCHAR 2F17
ENCODING 12055
SWIDTH 1000 0
DWIDTH 28 0
BBX 24 24 2 -2
BITMAP
001C00
001800
001800
001800
001800
001800
001800
001800
001802
001807
FFFFFF
001800
001800
001800
001800
001800
001800
001800
001800
001800
001800
001800
001800
001800
ENDCHAR
STARTCHAR 2F18
ENCODING 12056
SWIDTH 1000 0
DWIDTH 28 0
BBX 12 24 11 -2
BITMAP
E000
C000
C000
C000
C000
C000
C000
C000
C000
F800
CE00
C300
C1C0
C0E0
C070
C030
C000
C000
C000
C000
C000
C000
C000
C000
ENDCHAR
STARTCHAR 2F19
ENCODING 12057
SWIDTH 1000 0
DWIDTH 28 0
BBX 13 23 8 -2
BITMAP
8010
FFF8
C010
C010
C010
C010
C010
C010
C010
C010
C010
C010
C010
C010
C010
C010
C030
C7F0
C070
C000
C000
C000
C000
ENDCHAR
STARTCHAR 2F1A
ENCODING 12058
SWIDTH 1000 0
DWIDTH 28 0
BBX 24 24 1 -2
BITMAP
000002
080007
0FFFFF
080000
080000
080000
080000
080000
080000
080000
080000
080000
080000
180000
180000
180000
180000
100000
100000
300000
200000
200000
400000
800000
ENDCHAR
STARTCHAR 2F1B
ENCODING 12059
SWIDTH 1000 0
DWIDTH 28 0
BBX 22 22 3 -1
BITMAP
001800
001C00
003000
003000
003000
006000
006000
006000
00C000
00C000
008000
018000
018180
0100C0
030060
020030
020030
040018
07FFFC
FFE00C
40000C
000004
ENDCHAR
STARTCHAR 2F1C
ENCODING 12060
SWIDTH 1000 0
DWIDTH 28 0
BBX 24 23 2 -2
BITMAP
000030
7FFFF0
040070
040060
060060
0200C0
0300C0
0100C0
018180
008180
00C300
006700
002600
003C00
001800
003C00
007700
00E380
0180E0
070078
0C001F
300007
C00000
ENDCHAR
STARTCHAR 2F1D
ENCODING 12061
SWIDTH 1000 0
DWIDTH 28 0
BBX 19 21 5 -1
BITMAP
800040
FFFFE0
8000C0
8000C0
8000C0
8000C0
8000C0
8000C0
8000C0
8000C0
8000C0
8000C0
8000C0
8000C0
8000C0
8000C0
8000C0
FFFFC0
8000C0
8000C0
8000C0
ENDCHAR
STARTCHAR 2F1E
ENCODING 12062
SWIDTH 1000 0
DWIDTH 28 0
BBX 22 24 3 -2
BITMAP
800008
FFFFFC
C0000C
C00008
C00008
C00008
C00008
C00008
C00008
C00008
C00008
C00008
C00008
C00008
C00008
C00008
C00008
C00008
C00008
C00008
C00008
FFFFF8
C00008
C00008
ENDCHAR
STARTCHAR 2F1F
ENCODING 12063
SWIDTH 1000 0
DWIDTH 28 0
BBX 24 23 2 0
BITMAP
001000
001C00
001800
001800
001800
001800
001800
001808
00181C
3FFFFC
001800
001800
001800
001800
001800
001800
001800
001800
001800
001800
001804
001806
FFFFFF
ENDCHAR
STARTCHAR 2F20
ENCODING 12064
SWIDTH 1000 0
DWIDTH 28 0
BBX 24 23 2 0
BITMAP
001800
001C00
001800
001800
001800
001800
001800
001804
001806
FFFFFF
001800
001800
001800
001800
001800
001800
001800
001800
001800
001800
001808
00181C
3FFFFC
ENDCHAR
STARTCHAR 2F21
ENCODING 12065
SWIDTH 1000 0
DWIDTH 28 0
BBX 24 23 2 -2
BITMAP
007000
006000
00C000
00C000
00C060
01BFE0
0100C0
0300C0
0280C0
048180
0C4380
186300
102600
201E00
401C00
001C00
003600
006300
01C1C0
0380F0
0E003C
18000F
E00002
ENDCHAR
STARTCHAR 2F22
ENCODING 12066
SWIDTH 1000 0
DWIDTH 28 0
BBX 24 23 2 -1
BITMAP
007000
007000
006000
10C000
08C060
09BFE0
0580C0
0700C0
020180
070180
0D8300
088300
10C600
206C00
403C00
001800
003C00
00E700
01C380
0300E0
0E007C
38001F
E00002
ENDCHAR
STARTCHAR 2F23
ENCODING 12067
SWIDTH 1000 0
DWIDTH 28 0
BBX 21 25 3 -2
BITMAP
002000
007000
006000
004000
00C018
00FFF8
018038
018030
030030
060060
078060
0C60C0
183180
301980
601F00
C00E00
000E00
001C00
003800
007000
00C000
038000
0E0000
380000
400000
ENDCHAR
STARTCHAR 2F24
ENCODING 12068
SWIDTH 1000 0
DWIDTH 28 0
BBX 24 25 2 -2
BITMAP
001800
001800
001800
001800
001800
001800
001804
001806
FFFFFF
001800
001800
003400
003400
003600
006200
006300
004180
00C0C0
0180E0
030070
060038
0C001E
180007
600002
800000
ENDCHAR
STARTCHAR 2F25
ENCODING 12069
SWIDTH 1000 0
DWIDTH 28 0
BBX 24 24 2 -1
BITMAP
002000
007000
006000
006000
00C000
00C002
00C007
7FBFF8
0100C0
0300C0
0300C0
060080
060180
0C0180
0E0300
19C300
183E00
000E00
000F80
0038E0
007078
01C03C
07000E
F80006
ENDCHAR
STARTCHAR 2F26
ENCODING 12070
SWIDTH 1000 0
DWIDTH 28 0
BBX 24 23 2 -2
BITMAP
000030
1FFFF8
000070
0000C0
000180
000200
001C00
001800
001800
001802
001807
FFFFFF
001800
001800
001800
001800
001800
001800
001800
001800
061800
01F800
003000
ENDCHAR
STARTCHAR 2F27
ENCODING 12071
SWIDTH 1000 0
DWIDTH 28 0
BBX 25 11 2 9
BITMAP
001C0000
00180000
00180000
00180000
20180200
3FFFFF00
60000780
60000600
E0000C00
C0000800
C0000000
ENDCHAR
STARTCHAR 2F28
ENCODING 12072
SWIDTH 1000 0
DWIDTH 28 0
BBX 24 24 2 -2
BITMAP
0001C0
000180
000180
000180
000180
000184
000186
FFFFFF
000180
000180
0C0180
060180
030180
018180
01C180
00C180
00C180
000180
000180
000180
000180
000180
007F80
000700
ENDCHAR
STARTCHAR 2F29
ENCODING 12073
SWIDTH 1000 0
DWIDTH 28 0
BBX 24 24 2 -2
BITMAP
001C00
001800
001800
001800
001800
001880
061840
0E1860
0C1830
0C1810
081818
18180C
18180C
301806
301807
201803
401803
401803
801800
001800
001800
03F800
007800
002000
ENDCHAR
STARTCHAR 2F2A
ENCODING 12074
SWIDTH 1000 0
DWIDTH 28 0
BBX 24 25 2 -2
BITMAP
002000
003800
003000
003000
003000
003004
00300E
7FFFFF
003600
003600
003400
003400
002400
006400
006400
006400
00C400
00C400
018402
018402
030402
060406
1C07FF
3007FF
C00000
ENDCHAR
STARTCHAR 2F2B
ENCODING 12075
SWIDTH 1000 0
DWIDTH 28 0
BBX 22 22 2 -2
BITMAP
10000C
1FFFFC
180008
180008
180008
180008
180008
1FFFF8
180008
180000
180000
180000
100000
100000
300000
300000
300000
200000
600000
600000
400000
800000
ENDCHAR
STARTCHAR 2F2C
ENCODING 12076
SWIDTH 1000 0
DWIDTH 28 0
BBX 21 25 4 -2
BITMAP
007000
006000
006000
006000
E06038
C06030
C06030
C06030
C06030
C06030
C06030
C06030
C06030
C06030
FFFFF0
C06030
C04030
C0C000
00C000
018000
018000
030000
060000
180000
200000
ENDCHAR
STARTCHAR 2F2D
ENCODING 12077
SWIDTH 1000 0
DWIDTH 28 0
BBX 21 24 4 -2
BITMAP
007000
006000
006000
006000
006000
E06038
C06030
C06030
C06030
C06030
C06030
C06030
C06030
C06030
C06030
C06030
C06030
C06030
C06030
C06030
FFFFF0
C00030
C00030
C00030
ENDCHAR
STARTCHAR 2F2E
ENCODING 12078
SWIDTH 1000 0
DWIDTH 28 0
BBX 21 21 3 0
BITMAP
000020
0E1838
183030
183060
106060
3060C0
204080
608180
418100
810200
810300
408180
60C080
3060C0
102060
183020
181030
0C1830
0C1818
0C0C18
040C18
ENDCHAR
STARTCHAR 2F2F
ENCODING 12079
SWIDTH 1000 0
DWIDTH 28 0
BBX 24 21 2 0
BITMAP
000008
00000C
7FFFFE
001800
001800
001800
001800
001800
001800
001800
001800
001800
001800
001800
001800
001800
001800
001800
001802
001807
FFFFFF
ENDCHAR
STARTCHAR 2F30
ENCODING 12080
SWIDTH 1000 0
DWIDTH 28 0
BBX 21 21 4 0
BITMAP
000040
FFFFE0
0000C0
0000C0
0000C0
0000C0
0000C0
0000C0
2000C0
3FFFC0
2000C0
2000C0
200000
200000
200000
200010
200010
200018
200018
3FFFF8
3FFFF8
ENDCHAR
STARTCHAR 2F31
ENCODING 12081
SWIDTH 1000 0
DWIDTH 28 0
BBX 21 25 4 -2
BITMAP
007000
006000
006000
006000
006000
806030
FFFFF8
C06030
C06030
C06030
C06030
C06030
C06030
C06030
C06030
C06030
C06030
C06030
C06030
C067F0
C060E0
C06000
006000
006000
006000
ENDCHAR
STARTCHAR 2F32
ENCODING 12082
SWIDTH 1000 0
DWIDTH 28 0
BBX 24 23 2 -1
BITMAP
000018
3FFFFC
001800
001800
001800
001800
001800
001800
001804
00180E
FFFFFF
001800
001800
001800
001800
001800
001800
001800
001800
001800
001800
001800
001800
ENDCHAR
STARTCHAR 2F33
ENCODING 12083
SWIDTH 1000 0
DWIDTH 28 0
BBX 22 22 3 1
BITMAP
003800
003000
006000
006000
00C000
008080
6181E0
190180
0E0300
060600
030E00
018C00
019800
003000
006180
0040C0
008070
010038
020018
047FEC
FFF00C
600004
ENDCHAR
STARTCHAR 2F34
ENCODING 12084
SWIDTH 1000 0
DWIDTH 28 0
BBX 23 24 2 -2
BITMAP
001C00
001800
001800
001804
201806
3FE7F8
300000
300000
300000
300000
300000
300000
300000
300000
300000
300000
200000
200000
600000
600000
400000
400000
800000
800000
ENDCHAR
STARTCHAR 2F35
ENCODING 12085
SWIDTH 1000 0
DWIDTH 28 0
BBX 25 24 1 -2
BITMAP
03000000
7F800000
03000000
02000000
06000000
04000000
0C000000
08000000
18800000
1FC00000
30C00000
01800000
01800000
21800000
11000000
1B000000
0B000000
06000000
06000000
0F800000
18F80000
303FFF80
6007FF80
C0000000
ENDCHAR
STARTCHAR 2F36
ENCODING 12086
SWIDTH 1000 0
DWIDTH 28 0
BBX 24 24 2 -2
BITMAP
0180C0
0180E0
0180C0
0180C0
0180C0
0180C0
0180C0
0180C0
0180C2
0180C7
FFFFFF
0180C0
0100C0
0100C0
0300C0
0300C0
0300C0
0200C0
0600C0
0C00C0
0C00C0
1800C0
2000C0
400000
ENDCHAR
STARTCHAR 2F37
ENCODING 12087
SWIDTH 1000 0
DWIDTH 28 0
BBX 22 23 3 -1
BITMAP
00E000
00C800
00C600
00C380
00C180
00C080
00C01C
00C07C
007F80
FFE000
006000
006000
002000
003000
003000
001800
000C08
000C08
000608
000308
0001C8
00007C
00003C
ENDCHAR
STARTCHAR 2F38
ENCODING 12088
SWIDTH 1000 0
DWIDTH 28 0
BBX 20 24 4 -2
BITMAP
0000C0
FFFFE0
0000C0
0000C0
0000C0
0000C0
2000C0
3FFFC0
3000C0
2000C0
600000
600000
600030
FFFFF0
C00030
C00020
000020
000060
000060
000060
000040
0060C0
001F80
000200
ENDCHAR
STARTCHAR 2F39
ENCODING 12089
SWIDTH 1000 0
DWIDTH 28 0
BBX 24 21 2 0
BITMAP
000040
3FFFE0
000040
000040
000040
000040
000040
000040
000040
000040
1FFFC0
000040
000040
000040
000040
000040
000040
000040
000044
000046
FFFFFF
ENDCHAR
STARTCHAR 2F3A
ENCODING 12090
SWIDTH 1000 0
DWIDTH 28 0
BBX 19 24 5 -2
BITMAP
001C00
003C00
007000
00E000
038000
060000
180600
E00F00
001C00
003800
006000
01C000
030000
0C0080
3001E0
400380
000700
000E00
003800
00E000
01C000
0E0000
700000
800000
ENDCHAR
STARTCHAR 2F3B
ENCODING 12091
SWIDTH 1000 0
DWIDTH 28 0
BBX 16 24 5 -1
BITMAP
0038
003C
00E0
01C0
0306
0607
180C
6018
0030
0060
00C0
03E0
06C0
0CC0
30C0
60C0
80C0
00C0
00C0
00C0
00C0
00C0
00C0
00C0
ENDCHAR
STARTCHAR 2F3C
ENCODING 12092
SWIDTH 1000 0
DWIDTH 28 0
BBX 25 23 1 -1
BITMAP
00600000
00380000
000C0000
00070000
00030000
00030000
00600000
00400000
00401000
08401800
08400C00
08400600
08400600
18400300
18400380
30400180
30402180
60402080
E0402000
00403000
00403000
00403000
007FF000
ENDCHAR
STARTCHAR 2F3D
ENCODING 12093
SWIDTH 1000 0
DWIDTH 28 0
BBX 23 24 3 -2
BITMAP
00E000
00C600
00C380
00C1C0
00C0C8
00C00C
00C0FC
01FF00
FE4000
006060
006070
0060C0
002180
003380
003700
001E00
001C04
003C04
00E604
018384
0701CC
3800FC
C0007E
00001C
ENDCHAR
STARTCHAR 2F3E
ENCODING 12094
SWIDTH 1000 0
DWIDTH 28 0
BBX 23 24 2 -2
BITMAP
000004
00000E
3FFFF0
000000
000000
000000
080018
0FFFF8
080018
080018
080018
080018
080018
1FFFF8
180018
180018
180000
180000
100000
300000
200000
400000
C00000
800000
ENDCHAR
STARTCHAR 2F3F
ENCODING 12095
SWIDTH 1000 0
DWIDTH 28 0
BBX 25 23 2 -1
BITMAP
0000F000
0007F800
00FE0000
3F180000
00180000
00180000
00180000
00180C00
7FFFFE00
00180000
00180000
00180200
00180700
FFFFFF80
00180000
00180000
00180000
00180000
00180000
00180000
00180000
03F80000
00780000
ENDCHAR
STARTCHAR 2F40
ENCODING 12096
SWIDTH 1000 0
DWIDTH 28 0
BBX 24 25 2 -2
BITMAP
001C00
001800
001800
001804
001806
FFFFFF
001800
001800
001800
001800
001820
3FFFF0
040070
020060
0100C0
008180
00C300
006600
003C00
001C00
007700
01C1E0
07007C
1C001F
E00002
ENDCHAR
STARTCHAR 2F41
ENCODING 12097
SWIDTH 1000 0
DWIDTH 28 0
BBX 24 25 2 -2
BITMAP
001800
001800
001000
001008
00101C
001FFC
001000
001000
001000
001000
001030
1FEFF0
020060
0100C0
018180
008380
004300
002600
001C00
003C00
006700
01C1E0
06007E
38000F
C00000
ENDCHAR
STARTCHAR 2F42
ENCODING 12098
SWIDTH 1000 0
DWIDTH 28 0
BBX 24 24 2 -1
BITMAP
001C00
001800
001800
001802
001807
7FE7F8
0200C0
0100C0
010080
018180
008180
004300
006300
003600
001C00
001C00
003E00
007700
00E1C0
0180F0
07003C
1C001F
600002
800000
ENDCHAR
STARTCHAR 2F43
ENCODING 12099
SWIDTH 1000 0
DWIDTH 28 0
BBX 22 24 3 -2
BITMAP
000380
000300
060300
038300
01C300
00C300
004300
000300
300300
1C0300
060300
070300
030308
03031C
000378
001F80
07E300
F80300
000300
000300
000300
000300
000300
000300
ENDCHAR
STARTCHAR 2F44
ENCODING 12100
SWIDTH 1000 0
DWIDTH 28 0
BBX 23 23 2 -1
BITMAP
0000F0
0007F8
087E00
0F8000
0C0000
0C0000
0C0000
0C0000
0C0004
0C0006
0FFFF8
0C0300
0C0300
0C0300
0C0300
080300
180300
180300
100300
300300
200300
600300
C00300
ENDCHAR
STARTCHAR 2F45
ENCODING 12101
SWIDTH 1000 0
DWIDTH 28 0
BBX 24 25 2 -2
BITMAP
001C00
001800
001800
001804
001806
FFFFFF
006000
006000
006000
006000
006008
007FFC
006018
006018
004018
00C018
00C018
018018
018018
030018
060010
040030
181830
3007E0
4000C0
ENDCHAR
STARTCHAR 2F46
ENCODING 12102
SWIDTH 1000 0
DWIDTH 28 0
BBX 24 23 2 -1
BITMAP
000038
1FFFC0
001800
001800
001000
001000
001000
001004
00300E
3FFFF0
003600
002600
006400
006400
004400
00C402
018402
018402
030402
0E0402
180407
6007FE
800000
ENDCHAR
STARTCHAR 2F47
ENCODING 12103
SWIDTH 1000 0
DWIDTH 28 0
BBX 17 22 6 -1
BITMAP
800380
FFFF00
800300
800300
800300
800300
800300
800300
800300
800300
FFFF00
800300
800300
800300
800300
800300
800300
800300
800300
FFFF00
800300
800300
ENDCHAR
STARTCHAR 2F48
ENCODING 12104
SWIDTH 1000 0
DWIDTH 28 0
BBX 19 22 5 -1
BITMAP
8000C0
FFFFE0
C000C0
C000C0
C000C0
C000C0
C000C0
C000C0
C008C0
C01CC0
FFFCC0
C000C0
C000C0
C000C0
C000C0
C000C0
C000C0
C000C0
C000C0
FFFFC0
C000C0
C000C0
ENDCHAR
STARTCHAR 2F49
ENCODING 12105
SWIDTH 1000 0
DWIDTH 28 0
BBX 21 24 2 -2
BITMAP
040030
07FFF8
060030
060030
060030
060030
060030
07FFF0
060030
060030
060030
060030
040030
07FFF0
040030
0C0030
0C0030
0C0030
080030
180030
100030
300FF0
6000F0
800000
ENDCHAR
STARTCHAR 2F4A
ENCODING 12106
SWIDTH 1000 0
DWIDTH 28 0
BBX 25 24 2 -2
BITMAP
001C0000
00180000
00180000
00180000
00180000
00180400
00180600
7FFFF800
003C0000
007A0000
00DA0000
00D90000
01998000
0318C000
03186000
06183800
0C181C00
18180E00
30180780
40180300
80180000
00180000
00180000
00180000
ENDCHAR
STARTCHAR 2F4B
ENCODING 12107
SWIDTH 1000 0
DWIDTH 28 0
BBX 23 25 2 -2
BITMAP
018000
038000
030000
030000
060000
060006
07FFFE
0C180E
0C180C
181818
101810
301830
603820
403400
003400
006200
006200
00C100
00C180
0180C0
030070
060038
0C001E
300006
C00000
ENDCHAR
STARTCHAR 2F4C
ENCODING 12108
SWIDTH 1000 0
DWIDTH 28 0
BBX 23 22 3 0
BITMAP
001C00
001C00
001800
001800
001800
001800
0C1800
0C1800
081810
081838
081FC0
081800
081800
081800
081800
081800
081800
081800
081800
081800
081804
FFFFFE
ENDCHAR
STARTCHAR 2F4D
ENCODING 12109
SWIDTH 1000 0
DWIDTH 28 0
BBX 22 24 3 -2
BITMAP
000008
00001C
FFFFE0
00C000
00C000
018000
0100C0
03FFE0
0600C0
060180
0C0180
1B0300
318300
40C600
806C00
007800
003800
007000
00C000
018000
070000
0C0000
300000
C00000
ENDCHAR
STARTCHAR 2F4E
ENCODING 12110
SWIDTH 1000 0
DWIDTH 28 0
BBX 24 24 2 -2
BITMAP
020100
03FF80
030100
030100
030100
030104
030104
020106
060107
0401FE
080000
300000
C00060
0FFFE0
0100C0
008180
006300
003600
001C00
003F00
00E3E0
07807F
3C000F
C00000
ENDCHAR
STARTCHAR 2F4F
ENCODING 12111
SWIDTH 1000 0
DWIDTH 28 0
BBX 26 23 1 -2
BITMAP
04001800
07FFF800
060C1800
060C1800
060C1800
04081800
04081800
04081900
04081180
FFFFFFC0
0C081000
0C181000
0C181000
0C181000
08183000
08183100
18103380
1FFFFF80
18003000
18003000
000C3000
0003E000
00008000
ENDCHAR
STARTCHAR 2F50
ENCODING 12112
SWIDTH 1000 0
DWIDTH 28 0
BBX 25 24 2 -2
BITMAP
1C070000
18070000
18060000
18060000
18060000
18060400
18060E00
18061C00
18663000
1FF66000
18068000
18070000
18060000
18060000
18060000
18060000
18060000
18060200
18160200
19E60200
1F060300
F8060380
C003FF00
80000000
ENDCHAR
ENDFONT
